STARTFONT 2.1
FONT -FontForge-ITC Benguiat Gothic Std-Medium-R-Normal--72-690-75-75-P-372-ISO8859-1
SIZE 69 75 75
FONTBOUNDINGBOX 84 85 -12 -18
COMMENT "Generated by fontforge, http://fontforge.sourceforge.net"
COMMENT "Copyright 1990, 1995 , 2002Adobe Systems Incorporated. All Rights Reserved. ITC Benguiat Gothic is a registered trademark of International Typeface Corporation."
STARTPROPERTIES 40
FOUNDRY "FontForge"
FAMILY_NAME "ITC Benguiat Gothic Std"
WEIGHT_NAME "Medium"
SLANT "R"
SETWIDTH_NAME "Normal"
ADD_STYLE_NAME ""
PIXEL_SIZE 72
POINT_SIZE 690
RESOLUTION_X 75
RESOLUTION_Y 75
SPACING "P"
AVERAGE_WIDTH 372
CHARSET_REGISTRY "ISO8859"
CHARSET_ENCODING "1"
FONTNAME_REGISTRY ""
CHARSET_COLLECTIONS "ISOLatin1Encoding"
FONT_NAME "BenguiatGothicStd-Medium"
FACE_NAME "ITC Benguiat Gothic Std Medium"
COPYRIGHT "Copyright 1990, 1995 , 2002Adobe Systems Incorporated. All Rights Reserved. ITC Benguiat Gothic is a registered trademark of International Typeface Corporation."
FONT_VERSION "001.001"
FONT_ASCENT 50
FONT_DESCENT 22
UNDERLINE_POSITION -7
UNDERLINE_THICKNESS 4
X_HEIGHT 36
CAP_HEIGHT 49
RAW_ASCENT 691
RAW_DESCENT 309
NORM_SPACE 22
RELATIVE_WEIGHT 50
RELATIVE_SETWIDTH 50
SUPERSCRIPT_X 0
SUPERSCRIPT_Y 25
SUPERSCRIPT_SIZE 43
SUBSCRIPT_X 0
SUBSCRIPT_Y 5
SUBSCRIPT_SIZE 43
FIGURE_WIDTH 44
AVG_LOWERCASE_WIDTH 358
AVG_UPPERCASE_WIDTH 433
ENDPROPERTIES
CHARS 253
STARTCHAR space
ENCODING 32
SWIDTH 305 0
DWIDTH 22 0
BBX 1 1 0 0
BITMAP
00
ENDCHAR
STARTCHAR exclam
ENCODING 33
SWIDTH 278 0
DWIDTH 20 0
BBX 8 51 6 -1
BITMAP
3C
7E
7E
FF
FF
FF
FF
FF
FE
FE
FE
7E
7E
7E
7E
7E
7E
7E
7E
7E
7E
7E
7E
7E
7E
7E
7E
7E
7E
7E
7E
7E
7E
7E
7E
7E
3C
18
00
00
00
00
00
3C
7E
7E
FF
FE
7E
7E
3C
ENDCHAR
STARTCHAR quotedbl
ENCODING 34
SWIDTH 333 0
DWIDTH 24 0
BBX 16 19 4 32
BITMAP
781E
F81F
FC3F
FC3F
FC3F
FC3F
FC3F
FC3F
FC3F
FC3F
FC3F
FC3F
FC3F
FC3F
FC3F
FC3F
FC3F
F81F
781E
ENDCHAR
STARTCHAR numbersign
ENCODING 35
SWIDTH 611 0
DWIDTH 44 0
BBX 36 50 4 0
BITMAP
000F803E00
000F803E00
000F803E00
000F803E00
000F807E00
000F807E00
001F807C00
001F007C00
001F007C00
001F007C00
001F007C00
001F00FC00
001F00FC00
003F00F800
003E00F800
3FFFFFFFF0
3FFFFFFFF0
3FFFFFFFF0
3FFFFFFFF0
3FFFFFFFF0
007E01F000
007E01F000
007C01F000
007C01F000
007C01F000
007C03F000
007C03F000
00FC03E000
00FC03E000
00F803E000
FFFFFFFFC0
FFFFFFFFC0
FFFFFFFFC0
FFFFFFFFC0
FFFFFFFFC0
01F007C000
01F007C000
01F007C000
01F007C000
01F007C000
01F00FC000
03F00F8000
03F00F8000
03E00F8000
03E00F8000
03E00F8000
03E00F8000
03E01F8000
07E01F0000
07E01F0000
ENDCHAR
STARTCHAR dollar
ENCODING 36
SWIDTH 611 0
DWIDTH 44 0
BBX 32 59 4 -5
BITMAP
000F8000
000F8000
001FC000
001FC000
001FC000
001FC000
001FC000
001FC000
001FC000
03FFFFC0
1FFFFFE0
3FFFFFE0
7FFFFFE0
7FFFFFE0
FFC00000
FC000000
FC000000
FC000000
FE000000
FF800000
7FFE0000
7FFFF800
3FFFFF80
0FFFFFE0
01FFFFF8
001FFFFC
001FFFFC
001FC3FE
001FC0FE
001FC07F
001FC03F
001FC03F
001FC03F
001FC03F
001FC03F
001FC03F
001FC03F
001FC03F
001FC07F
001FC07E
001FC0FE
001FC1FC
001FC3FC
001FDFF8
7FFFFFF0
FFFFFFE0
FFFFFFC0
FFFFFF00
FFFFFC00
7FFFE000
001FC000
001FC000
001FC000
001FC000
001FC000
001FC000
001F8000
000F8000
00060000
ENDCHAR
STARTCHAR percent
ENCODING 37
SWIDTH 833 0
DWIDTH 60 0
BBX 52 52 4 -1
BITMAP
00FE00001C0000
03FF80003E0000
0FFFC0003E0000
1FFFE0007E0000
1FFFF0007E0000
3FC7F8007C0000
7F01FC00FC0000
7E00FC00F80000
FC00FC01F80000
FC007E01F00000
FC007E03F00000
F8007E03E00000
F8007E07E00000
F8007E07E00000
FC007E0FC00000
FC007E0FC00000
FC007C1F800000
7E00FC1F800000
7F01FC1F000000
3F83F83F000000
3FFFF03E000000
1FFFF07E000000
0FFFE07C000000
03FF80FC000000
00FE00F8000000
000001F8000000
000001F8000000
000003F007F000
000003F01FFC00
000007E07FFF00
000007E0FFFF80
000007C1FFFFC0
00000FC1FC1FC0
00000F83F80FE0
00001F83F007E0
00001F03E003E0
00003F07E003F0
00003E07E003F0
00007E07C001F0
00007C07C001F0
0000FC07C001F0
0000FC07E003F0
0001F807E003F0
0001F803E003E0
0001F003F007E0
0003F003F80FE0
0003E001FE3FC0
0007E000FFFF80
0007C000FFFF80
0007C0003FFE00
000780001FFC00
0007800007F000
ENDCHAR
STARTCHAR ampersand
ENCODING 38
SWIDTH 778 0
DWIDTH 56 0
BBX 50 52 4 -1
BITMAP
0001FE00000000
000FFF80000000
001FFFE0000000
003FFFF0000000
007FFFF8000000
00FFFFF8000000
01FF03FC000000
01FC01FC000000
03F800FE000000
03F800FE000000
03F0007E000000
03F0007E000000
03F0007E0F0000
03F0007E0F8000
03F8007E0F8000
03F8007E0FC000
01FC00FC0FC000
01FE01FC0FC000
00FE01FC0FC000
01FF03F807E000
03FFC7F007E000
07FFFFF007E000
0FFFFFE007E000
1FEFFFC007E000
1FC7FF8007E000
3F83FF0007E000
3F01FF8007E000
7F007FC007E000
7E003FE007E000
7E001FF007E000
7E000FFC07E000
FE0007FE0FC000
FE0001FF0FC000
FE0000FF8FC000
FE00007FDFC000
FE00003FFF8000
FE00000FFF8000
FE000007FF0000
7F000003FF0000
7F000001FF0000
7F800001FFC000
3F800003FFE000
3FC00007FFF000
1FE0000FFFF800
1FF8003FF7FE00
0FFE01FFE3FF00
07FFFFFFC1FF80
03FFFFFF00FFC0
01FFFFFE003FC0
007FFFF8001FC0
001FFFE0000FC0
0003FF00000780
ENDCHAR
STARTCHAR quotesingle
ENCODING 39
SWIDTH 222 0
DWIDTH 16 0
BBX 6 19 5 32
BITMAP
78
FC
FC
FC
FC
FC
FC
FC
FC
FC
FC
FC
FC
FC
FC
FC
FC
FC
78
ENDCHAR
STARTCHAR parenleft
ENCODING 40
SWIDTH 389 0
DWIDTH 28 0
BBX 19 66 5 -15
BITMAP
0003C0
0007E0
000FE0
001FC0
003F80
007F80
007F00
00FE00
01FC00
01F800
03F800
03F000
07F000
07E000
0FC000
0FC000
1FC000
1F8000
3F8000
3F0000
3F0000
3F0000
7F0000
7E0000
7E0000
7E0000
7E0000
FE0000
FE0000
FE0000
FC0000
FC0000
FC0000
FC0000
FC0000
FE0000
FE0000
FE0000
FE0000
7E0000
7E0000
7E0000
7E0000
7F0000
3F0000
3F0000
3F8000
1F8000
1F8000
1FC000
0FC000
0FE000
07E000
07F000
03F000
03F800
01FC00
01FC00
00FE00
007F00
003F80
003FC0
001FC0
000FE0
0007E0
0001C0
ENDCHAR
STARTCHAR parenright
ENCODING 41
SWIDTH 389 0
DWIDTH 28 0
BBX 19 66 4 -15
BITMAP
780000
FC0000
FE0000
7F0000
3F8000
3FC000
1FC000
0FE000
07F000
07F000
03F800
01F800
01FC00
00FC00
00FE00
007E00
007F00
003F00
003F00
001F80
001F80
001F80
001FC0
000FC0
000FC0
000FC0
000FC0
000FE0
000FE0
000FE0
000FE0
0007E0
0007E0
0007E0
0007E0
000FE0
000FE0
000FE0
000FE0
000FC0
000FC0
000FC0
000FC0
001FC0
001F80
001F80
003F80
003F00
003F00
007F00
007E00
00FE00
00FC00
01FC00
01F800
03F800
07F000
07F000
0FE000
1FC000
3F8000
7F8000
7F0000
FE0000
FC0000
700000
ENDCHAR
STARTCHAR asterisk
ENCODING 42
SWIDTH 333 0
DWIDTH 24 0
BBX 18 22 3 28
BITMAP
00C000
01E000
01E000
01E000
01E000
E1E3C0
F9E7C0
FDFFC0
FFFFC0
3FFF00
0FFC00
0FFC00
3FFF00
FFFFC0
FDEFC0
F9E7C0
E1E1C0
01E000
01E000
01E000
01E000
00C000
ENDCHAR
STARTCHAR plus
ENCODING 43
SWIDTH 600 0
DWIDTH 43 0
BBX 37 37 3 0
BITMAP
0000FC0000
0000FC0000
0000FC0000
0000FC0000
0000FC0000
0000FC0000
0000FC0000
0000FC0000
0000FC0000
0000FC0000
0000FC0000
0000FC0000
0000FC0000
0000FC0000
0000FC0000
0000FC0000
FFFFFFFFF8
FFFFFFFFF8
FFFFFFFFF8
FFFFFFFFF8
FFFFFFFFF8
FFFFFFFFF8
0000FC0000
0000FC0000
0000FC0000
0000FC0000
0000FC0000
0000FC0000
0000FC0000
0000FC0000
0000FC0000
0000FC0000
0000FC0000
0000FC0000
0000FC0000
0000FC0000
0000FC0000
ENDCHAR
STARTCHAR comma
ENCODING 44
SWIDTH 305 0
DWIDTH 22 0
BBX 11 19 4 -9
BITMAP
0380
07C0
07E0
0FE0
0FE0
1FC0
1FC0
1F80
3F80
3F80
3F00
7F00
7E00
7E00
FC00
FC00
F800
F800
7000
ENDCHAR
STARTCHAR hyphen
ENCODING 45
SWIDTH 333 0
DWIDTH 24 0
BBX 18 5 3 16
BITMAP
7FFF80
FFFF80
FFFFC0
FFFFC0
7FFF80
ENDCHAR
STARTCHAR period
ENCODING 46
SWIDTH 305 0
DWIDTH 22 0
BBX 7 8 7 -1
BITMAP
3C
7E
7E
FE
FE
7E
7E
3C
ENDCHAR
STARTCHAR slash
ENCODING 47
SWIDTH 278 0
DWIDTH 20 0
BBX 24 52 -2 -1
BITMAP
00000E
00001F
00001F
00003F
00003F
00007F
00007E
00007E
0000FC
0000FC
0001FC
0001F8
0003F8
0003F0
0003F0
0007E0
0007E0
000FE0
000FC0
000FC0
001F80
001F80
003F80
003F00
007F00
007E00
007E00
00FE00
00FC00
01FC00
01F800
01F800
03F000
03F000
07F000
07E000
07E000
0FC000
0FC000
1FC000
1F8000
3F8000
3F0000
3F0000
7E0000
7E0000
FE0000
FC0000
FC0000
F80000
F80000
700000
ENDCHAR
STARTCHAR zero
ENCODING 48
SWIDTH 611 0
DWIDTH 44 0
BBX 38 52 3 -1
BITMAP
0001FE0000
0007FF8000
001FFFE000
007FFFF000
00FFFFFC00
01FFFFFE00
03FF03FF00
03FC00FF00
07F8007F80
0FF0003FC0
0FE0001FC0
1FC0000FE0
1F80000FE0
3F800007F0
3F000007F0
7F000003F0
7F000003F8
7E000001F8
7E000001F8
FE000001FC
FE000001FC
FC000001FC
FC000000FC
FC000000FC
FC000000FC
FC000000FC
FC000000FC
FC000000FC
FC000000FC
FC000000FC
FC000001FC
FE000001FC
FE000001FC
7E000001F8
7E000001F8
7F000003F8
7F000003F0
3F000007F0
3F800007F0
1F80000FE0
1FC0000FE0
0FE0001FC0
0FF0003FC0
07F8007F80
03FC00FF00
03FF03FF00
01FFFFFE00
00FFFFFC00
007FFFF800
001FFFE000
0007FF8000
0001FE0000
ENDCHAR
STARTCHAR one
ENCODING 49
SWIDTH 611 0
DWIDTH 44 0
BBX 26 51 10 0
BITMAP
000F0000
007F0000
07FF0000
3FFF0000
7FFF0000
FFFF0000
FFFF0000
7FFF0000
003F0000
003F0000
003F0000
003F0000
003F0000
003F0000
003F0000
003F0000
003F0000
003F0000
003F0000
003F0000
003F0000
003F0000
003F0000
003F0000
003F0000
003F0000
003F0000
003F0000
003F0000
003F0000
003F0000
003F0000
003F0000
003F0000
003F0000
003F0000
003F0000
003F0000
003F0000
003F0000
003F0000
003F0000
003F0000
003F0000
003F0000
3FFFFF80
7FFFFFC0
FFFFFFC0
FFFFFFC0
7FFFFFC0
3FFFFF80
ENDCHAR
STARTCHAR two
ENCODING 50
SWIDTH 611 0
DWIDTH 44 0
BBX 34 50 5 0
BITMAP
3FFFFE0000
7FFFFFC000
7FFFFFE000
7FFFFFF000
7FFFFFF800
3FFFFFFC00
000007FC00
000001FE00
000000FE00
000000FE00
0000007F00
0000007F00
0000007F00
0000007F00
0000007F00
0000007F00
000000FE00
000000FE00
000001FE00
000003FC00
000007FC00
00001FF800
00007FF000
0000FFE000
0003FFC000
0007FF8000
001FFF0000
003FFC0000
00FFF00000
01FFE00000
07FF800000
0FFE000000
1FFC000000
3FF0000000
3FE0000000
7FC0000000
7F80000000
FF00000000
FE00000000
FE00000000
FC00000000
FC00000000
FC00000000
FC00000000
FFFFFFFF00
FFFFFFFF80
FFFFFFFFC0
FFFFFFFFC0
FFFFFFFF80
3FFFFFFF00
ENDCHAR
STARTCHAR three
ENCODING 51
SWIDTH 611 0
DWIDTH 44 0
BBX 35 50 4 0
BITMAP
3FFFFFF800
7FFFFFFC00
7FFFFFFC00
7FFFFFFC00
7FFFFFFC00
3FFFFFF800
00003FF000
00007FC000
0000FF8000
0003FF0000
0007FC0000
001FF80000
003FE00000
007FC00000
01FF800000
03FFF80000
07FFFF0000
07FFFFC000
07FFFFF000
03FFFFF800
0003FFFC00
00000FFE00
000001FF00
000000FF80
0000007F80
0000003FC0
0000001FC0
0000000FC0
0000000FE0
0000000FE0
0000000FE0
00000007E0
00000007E0
00000007E0
00000007E0
0000000FE0
0000000FE0
0000000FC0
0000001FC0
0000001FC0
0000003F80
0000007F80
000001FF00
000007FF00
3FFFFFFE00
FFFFFFFC00
FFFFFFF800
FFFFFFE000
FFFFFF8000
7FFFF80000
ENDCHAR
STARTCHAR four
ENCODING 52
SWIDTH 611 0
DWIDTH 44 0
BBX 38 51 3 0
BITMAP
000000F000
000003F800
00000FFC00
00003FFC00
00007FFC00
0000FFFC00
0001FFFC00
0003FEFC00
0007FCFC00
000FF0FC00
001FE0FC00
003FC0FC00
007F80FC00
00FF00FC00
00FE00FC00
01FC00FC00
03F800FC00
03F800FC00
07F000FC00
0FE000FC00
0FE000FC00
1FC000FC00
1FC000FC00
1F8000FC00
3F8000FC00
3F0000FC00
3F0000FC00
7F0000FC00
7E0000FC00
7E0000FC00
7E0000FC00
FE0000FC00
FE0000FC00
FFFFFFFFF8
FFFFFFFFFC
FFFFFFFFFC
FFFFFFFFFC
7FFFFFFFFC
000000FC00
000000FC00
000000FC00
000000FC00
000000FC00
000000FC00
000000FC00
000000FC00
000000FC00
000000FC00
000000FC00
000000FC00
0000007800
ENDCHAR
STARTCHAR five
ENCODING 53
SWIDTH 611 0
DWIDTH 44 0
BBX 36 50 4 0
BITMAP
07FFFFFC00
0FFFFFFE00
1FFFFFFE00
1FFFFFFE00
1FFFFFFE00
1FFFFFFC00
1FC0000000
1F80000000
1F80000000
1F80000000
3F80000000
3F80000000
3FFF800000
3FFFFC0000
3FFFFF8000
3FFFFFE000
3FFFFFF800
1FFFFFFC00
0000FFFE00
00000FFF00
000001FF80
0000007FC0
0000003FC0
0000001FE0
0000000FE0
0000000FE0
00000007F0
00000007F0
00000007F0
00000003F0
00000003F0
00000003F0
00000003F0
00000003F0
00000003F0
00000007F0
00000007F0
00000007F0
0000000FE0
0000001FE0
0000001FE0
0000007FC0
000000FF80
000007FF80
7FFFFFFF00
FFFFFFFE00
FFFFFFFC00
FFFFFFF000
FFFFFFC000
7FFFFE0000
ENDCHAR
STARTCHAR six
ENCODING 54
SWIDTH 611 0
DWIDTH 44 0
BBX 39 51 3 -1
BITMAP
0001FFFFE0
000FFFFFF0
003FFFFFF0
007FFFFFF0
01FFFFFFF0
03FFFFFFE0
03FF800000
07FC000000
0FF8000000
0FF0000000
1FE0000000
1FC0000000
3F80000000
3F80000000
3F00000000
7F007F8000
7F03FFF800
7F0FFFFC00
7E1FFFFF00
FE3FFFFF80
FE7FFFFFC0
FEFF80FFE0
FFFC003FF0
FFF8000FF0
FFF00007F8
FFE00007F8
FFC00003FC
FFC00001FC
FF800001FC
FF800000FC
FF800000FE
FF000000FE
FF000000FE
7F000000FE
7F000000FE
7F800000FC
7F800000FC
3F800001FC
3FC00001FC
3FC00003F8
1FE00003F8
1FF00007F0
0FF8000FF0
07FC003FE0
07FF00FFC0
03FFFFFF80
01FFFFFF00
00FFFFFE00
003FFFFC00
000FFFF000
0001FF0000
ENDCHAR
STARTCHAR seven
ENCODING 55
SWIDTH 611 0
DWIDTH 44 0
BBX 31 50 6 0
BITMAP
7FFFFFF8
FFFFFFFC
FFFFFFFC
FFFFFFFC
FFFFFFFE
000000FE
000000FE
000000FE
000000FC
000000FC
000001FC
000001FC
000001F8
000003F8
000007F0
000007F0
00000FE0
00000FE0
00001FC0
00003FC0
00003F80
00007F00
0000FF00
0000FE00
0001FC00
0003FC00
0003F800
0007F000
000FF000
000FE000
001FE000
003FC000
003F8000
007F8000
007F0000
00FF0000
00FE0000
00FE0000
01FC0000
01FC0000
01FC0000
01F80000
01F80000
01F80000
01F80000
01F80000
01F80000
01F80000
01F00000
00F00000
ENDCHAR
STARTCHAR eight
ENCODING 56
SWIDTH 611 0
DWIDTH 44 0
BBX 38 52 3 -1
BITMAP
0003FE0000
001FFFE000
007FFFF000
01FFFFFC00
03FFFFFE00
07FFFFFF00
07FC01FF80
0FF0007F80
0FE0003FC0
1FC0001FC0
1FC0000FE0
1FC0000FE0
1F80000FE0
1F80000FE0
1F80000FE0
1FC0000FE0
1FC0001FC0
1FE0001FC0
0FF0003FC0
07F800FF80
07FE03FF00
03FFFFFE00
01FFFFFC00
007FFFF800
01FFFFFE00
03FFFFFF00
07FFFFFF80
0FF8007FC0
1FE0001FE0
3FC0000FF0
7F800007F0
7F000003F8
7F000003F8
FE000001F8
FE000001FC
FE000001FC
FE000001FC
FE000001FC
FE000001F8
7E000001F8
7F000003F8
7F000003F8
3F800007F0
3FC0000FF0
1FE0001FE0
1FF8007FE0
0FFFDFFFC0
07FFFFFF80
03FFFFFE00
00FFFFFC00
003FFFF000
0003FF0000
ENDCHAR
STARTCHAR nine
ENCODING 57
SWIDTH 611 0
DWIDTH 44 0
BBX 39 51 2 0
BITMAP
0001FF0000
001FFFE000
007FFFF800
00FFFFFE00
01FFFFFF00
07FFFFFF80
07FE01FFC0
0FF8007FC0
1FE0003FE0
3FC0001FF0
3F80000FF0
3F800007F8
7F000007F8
7F000003F8
7E000003FC
FE000003FC
FE000001FC
FE000001FC
FE000001FE
FE000001FE
FE000003FE
7E000003FE
7F000003FE
7F000007FE
7F800007FE
3F80000FFE
3FC0001FFE
1FE0003FFE
1FF8007FFE
0FFE03FEFE
07FFFFFCFE
03FFFFF8FE
01FFFFF0FC
00FFFFE1FC
003FFF81FC
0003FC01FC
00000001F8
00000003F8
00000003F8
00000007F0
0000000FF0
0000001FE0
0000003FE0
0000007FC0
000003FF80
0FFFFFFF00
1FFFFFFE00
1FFFFFFC00
1FFFFFF800
1FFFFFE000
0FFFFF0000
ENDCHAR
STARTCHAR colon
ENCODING 58
SWIDTH 305 0
DWIDTH 22 0
BBX 7 30 7 -1
BITMAP
3C
7E
7E
FE
FE
7E
7E
3C
00
00
00
00
00
00
00
00
00
00
00
00
00
00
3C
7E
7E
FE
FE
7E
7E
3C
ENDCHAR
STARTCHAR semicolon
ENCODING 59
SWIDTH 305 0
DWIDTH 22 0
BBX 12 38 3 -8
BITMAP
01C0
03E0
07F0
07F0
07F0
07F0
03E0
03C0
0000
0000
0000
0000
0000
0000
0000
0000
0000
0000
0000
0180
03C0
07E0
07E0
0FE0
0FE0
1FC0
1FC0
1F80
3F80
3F80
3F00
7F00
7E00
7E00
FC00
FC00
F800
7800
ENDCHAR
STARTCHAR less
ENCODING 60
SWIDTH 600 0
DWIDTH 43 0
BBX 37 37 3 0
BITMAP
0000000008
0000000078
00000001F8
00000007F8
0000001FF8
000000FFF8
000003FFF0
00000FFF80
00007FFE00
0001FFF800
0007FFC000
003FFF0000
00FFFC0000
03FFE00000
0FFF800000
7FFE000000
FFF0000000
FFC0000000
FF00000000
FFC0000000
FFF0000000
7FFE000000
0FFF800000
03FFE00000
00FFFC0000
003FFF0000
0007FFC000
0001FFF800
00007FFE00
00000FFF80
000003FFF0
000000FFF8
0000001FF8
00000007F8
00000001F8
0000000078
0000000008
ENDCHAR
STARTCHAR equal
ENCODING 61
SWIDTH 600 0
DWIDTH 43 0
BBX 37 20 3 8
BITMAP
FFFFFFFFF8
FFFFFFFFF8
FFFFFFFFF8
FFFFFFFFF8
FFFFFFFFF8
FFFFFFFFF8
0000000000
0000000000
0000000000
0000000000
0000000000
0000000000
0000000000
0000000000
FFFFFFFFF8
FFFFFFFFF8
FFFFFFFFF8
FFFFFFFFF8
FFFFFFFFF8
FFFFFFFFF8
ENDCHAR
STARTCHAR greater
ENCODING 62
SWIDTH 600 0
DWIDTH 43 0
BBX 37 37 3 0
BITMAP
8000000000
F000000000
FC00000000
FF00000000
FFE0000000
FFF8000000
7FFE000000
0FFFC00000
03FFF00000
00FFFC0000
001FFF0000
0007FFE000
0001FFF800
00003FFE00
00000FFFC0
000003FFF0
0000007FF8
0000001FF8
00000007F8
0000001FF8
0000007FF8
000001FFF0
00000FFFC0
00003FFE00
0000FFF800
0007FFE000
001FFF0000
007FFC0000
03FFF00000
0FFFC00000
3FFE000000
FFF8000000
FFE0000000
FF00000000
FC00000000
F000000000
8000000000
ENDCHAR
STARTCHAR question
ENCODING 63
SWIDTH 500 0
DWIDTH 36 0
BBX 31 51 1 -1
BITMAP
3FFFFC00
7FFFFF80
FFFFFFE0
FFFFFFF0
7FFFFFF8
3FFFFFF8
000007FC
000001FC
000001FE
000000FE
000000FE
000000FE
000000FE
000000FE
000000FE
000000FE
000001FE
000001FC
000003FC
000007F8
00000FF8
00003FF0
00007FE0
0000FFC0
0001FF80
0003FF00
000FFC00
001FF800
001FF000
003FE000
003FC000
003F8000
003F0000
007F0000
007F0000
003E0000
003E0000
003E0000
001C0000
00000000
00000000
00000000
00000000
003C0000
007E0000
007E0000
007F0000
00FF0000
007E0000
007E0000
003C0000
ENDCHAR
STARTCHAR at
ENCODING 64
SWIDTH 800 0
DWIDTH 58 0
BBX 50 52 4 -1
BITMAP
000007FE000000
00007FFFE00000
0001FFFFF80000
0007FFFFFE0000
001FFFFFFF8000
003FF000FFC000
007F80001FE000
01FE000007F000
03FC000003F800
03F0000000FC00
07E00000007E00
0FC00000007E00
1FC007FC003F00
1F801FFE1F1F00
3F007FFF1F1F80
3F00FFFFBE0F80
7E01FFFFFE0F80
7E03FF0FFE0FC0
7C03FC03FE07C0
FC07F001FC07C0
FC0FE001FC07C0
FC0FE000FC07C0
F81FC000FC07C0
F81FC000F807C0
F81F8000F807C0
F81F8000F807C0
F83F8001F00780
F83F0001F00F80
F83F0001F00F80
F83F0003F00F80
F83F0003E01F00
FC3F0007E01F00
FC3F800FE03E00
7C1F801FE07C00
7C1FC03FC07C00
7E1FF0FFC1F800
3E0FFFFFE3F000
3F07FFF7FFE000
1F87FFE7FFC000
1F81FFC7FF0000
0FC0FF03FC0000
0FE00001F03E00
07F00000007C00
03F8000001FC00
01FE000003F800
00FF80000FF000
007FF0007FC000
001FFFFFFF8000
000FFFFFFE0000
0003FFFFFC0000
00007FFFE00000
000007FF000000
ENDCHAR
STARTCHAR A
ENCODING 65
SWIDTH 667 0
DWIDTH 48 0
BBX 44 51 2 0
BITMAP
00000E000000
00001F800000
00007FC00000
0000FFC00000
0000FFE00000
0001FFF00000
0003FFF80000
0003FBF80000
0007F1FC0000
000FF1FC0000
000FE0FE0000
001FC07F0000
001FC07F0000
003F803F8000
003F803F8000
007F001FC000
007F001FC000
00FF000FE000
00FE0007E000
00FE0007F000
01FC0003F000
01FFC003F000
03FFFC03F800
03FFFF81F800
03FFFFE1FC00
07FFFFF0FC00
07FFFFFCFC00
07E01FFEFE00
0FE003FFFE00
0FE0007FFE00
0FC0001FFF00
1FC0000FFF00
1FC00003FF00
1F800001FF80
1F800000FF80
3F800000FF80
3F8000007FC0
3F0000003FC0
3F0000003FC0
7F0000001FC0
7F0000001FE0
7F0000001FE0
7E0000000FE0
7E0000000FE0
7E0000000FE0
FE0000000FE0
FE00000007F0
FE00000007F0
FE00000007F0
7C00000003E0
7C00000003E0
ENDCHAR
STARTCHAR B
ENCODING 66
SWIDTH 611 0
DWIDTH 44 0
BBX 37 50 5 0
BITMAP
7FFFFFE000
FFFFFFFC00
FFFFFFFE00
FFFFFFFF00
FFFFFFFF80
FFFFFFFF80
FE00007F80
FE00003FC0
FE00001FC0
FE00001FC0
FE00001FC0
FE00001FC0
FE00001F80
FFE0001F80
FFFF803F80
FFFFF07F00
FFFFFEFF00
FFFFFFFE00
FFFFFFFC00
FE1FFFF800
FE00FFF800
FE001FFC00
FE0007FF00
FE0001FF00
FE00007F80
FE00003FC0
FE00001FE0
FE00000FE0
FE00000FF0
FE000007F0
FE000007F0
FE000003F0
FE000003F8
FE000003F8
FE000003F8
FE000003F8
FE000003F8
FE000003F8
FE000003F8
FE000007F8
FE000007F0
FE00000FF0
FE00001FF0
FE0000FFE0
FFFFFFFFC0
FFFFFFFF80
FFFFFFFF80
FFFFFFFE00
FFFFFFFC00
3FFFFFE000
ENDCHAR
STARTCHAR C
ENCODING 67
SWIDTH 611 0
DWIDTH 44 0
BBX 39 51 3 -1
BITMAP
0003FFFFF0
001FFFFFF8
007FFFFFFC
01FFFFFFFC
03FFFFFFF8
07FFFFFFF0
0FFF800000
0FFC000000
1FF0000000
3FE0000000
3FC0000000
7F80000000
7F80000000
7F00000000
FF00000000
FF00000000
FE00000000
FE00000000
FE00000000
FE00000000
FE00000000
FE00000000
FE00000000
FE00000000
FE00000000
FE00000000
7F00000000
7F00000000
7F00000000
7F80000000
3F80000000
3F80000000
3FC0000000
1FE0000000
1FE0000000
0FF0000000
07F8000000
07FC000000
03FE000000
01FF000000
01FFC00000
00FFF00000
007FFC0000
001FFF8000
000FFFF800
0007FFFFFC
0001FFFFFE
0000FFFFFE
00001FFFFE
000007FFFE
0000007FF8
ENDCHAR
STARTCHAR D
ENCODING 68
SWIDTH 667 0
DWIDTH 48 0
BBX 40 51 5 0
BITMAP
3FF8000000
7FFFC00000
FFFFF80000
FFFFFE0000
FFFFFF8000
FFFFFFE000
FE3FFFF000
FE00FFF800
FE001FFE00
FE0007FF00
FE0003FF80
FE0000FF80
FE00007FC0
FE00003FE0
FE00001FF0
FE00000FF0
FE000007F8
FE000003F8
FE000003FC
FE000001FC
FE000001FC
FE000000FE
FE000000FE
FE000000FE
FE0000007E
FE0000007F
FE0000007F
FE0000007F
FE0000007F
FE0000007F
FE0000007F
FE0000007F
FE0000007F
FE0000007F
FE0000007F
FE0000007F
FE000000FE
FE000000FE
FE000000FE
FE000001FC
FE000001FC
FE000003FC
FE000007F8
FE00001FF0
FE0000FFF0
FFFFFFFFE0
FFFFFFFFC0
FFFFFFFF00
FFFFFFFE00
FFFFFFF800
7FFFFF8000
ENDCHAR
STARTCHAR E
ENCODING 69
SWIDTH 556 0
DWIDTH 40 0
BBX 32 50 5 0
BITMAP
7FFFFFFE
7FFFFFFF
FFFFFFFF
FFFFFFFF
FFFFFFFF
FFFFFFFE
FE000000
FE000000
FE000000
FE000000
FE000000
FE000000
FFFFFFFC
FFFFFFFE
FFFFFFFF
FFFFFFFF
FFFFFFFE
FFFFFFFC
FE000000
FE000000
FE000000
FE000000
FE000000
FE000000
FE000000
FE000000
FE000000
FE000000
FE000000
FE000000
FE000000
FE000000
FE000000
FE000000
FE000000
FE000000
FE000000
FE000000
FE000000
FE000000
FE000000
FE000000
FE000000
FE000000
FFFFFFFE
FFFFFFFF
FFFFFFFF
FFFFFFFF
7FFFFFFF
7FFFFFFE
ENDCHAR
STARTCHAR F
ENCODING 70
SWIDTH 500 0
DWIDTH 36 0
BBX 31 50 5 0
BITMAP
3FFFFFF8
7FFFFFFC
7FFFFFFE
FFFFFFFE
FFFFFFFC
FFFFFFF8
FE000000
FE000000
FE000000
FE000000
FE000000
FE000000
FFFFFFF0
FFFFFFF8
FFFFFFF8
FFFFFFF8
FFFFFFF8
FFFFFFF0
FE000000
FE000000
FE000000
FE000000
FE000000
FE000000
FE000000
FE000000
FE000000
FE000000
FE000000
FE000000
FE000000
FE000000
FE000000
FE000000
FE000000
FE000000
FE000000
FE000000
FE000000
FE000000
FE000000
FE000000
FE000000
FE000000
FE000000
FE000000
FE000000
7E000000
7C000000
38000000
ENDCHAR
STARTCHAR G
ENCODING 71
SWIDTH 667 0
DWIDTH 48 0
BBX 41 51 3 -1
BITMAP
0003FFFFFC00
003FFFFFFE00
00FFFFFFFF00
01FFFFFFFE00
03FFFFFFFE00
07FFFFFFFC00
0FFE00000000
1FF800000000
3FE000000000
3FC000000000
7F8000000000
7F8000000000
7F0007FFFE00
FF000FFFFF00
FE000FFFFF80
FE000FFFFF80
FE000FFFFF80
FE0003FFFF80
FE0000001F80
FE0000001F80
FE0000001F80
FE0000001F80
FE0000001F80
FE0000001F80
FE0000001F80
FE0000001F80
FE0000001F80
FF0000001F80
7F0000001F80
7F0000001F80
7F8000001F80
3F8000001F80
3FC000001F80
3FC000001F80
1FE000001F80
1FF000001F80
0FF800001F80
07FC00001F80
07FE00001F80
03FF00001F80
01FFC0001F80
00FFE0001F80
007FF8001F80
003FFF001F80
000FFFF01F80
0007FFFFFF80
0001FFFFFF80
00007FFFFF80
00001FFFFF80
000003FFFF00
0000001FFC00
ENDCHAR
STARTCHAR H
ENCODING 72
SWIDTH 611 0
DWIDTH 44 0
BBX 34 50 5 0
BITMAP
3800000700
7C00000F80
FE00001F80
FE00001FC0
FE00001FC0
FE00001FC0
FE00001FC0
FE00001FC0
FE00001FC0
FE00001FC0
FE00001FC0
FE00001FC0
FE00001FC0
FFFFFFFFC0
FFFFFFFFC0
FFFFFFFFC0
FFFFFFFFC0
FFFFFFFFC0
FE00001FC0
FE00001FC0
FE00001FC0
FE00001FC0
FE00001FC0
FE00001FC0
FE00001FC0
FE00001FC0
FE00001FC0
FE00001FC0
FE00001FC0
FE00001FC0
FE00001FC0
FE00001FC0
FE00001FC0
FE00001FC0
FE00001FC0
FE00001FC0
FE00001FC0
FE00001FC0
FE00001FC0
FE00001FC0
FE00001FC0
FE00001FC0
FE00001FC0
FE00001FC0
FE00001FC0
FE00001FC0
FE00001F80
FE00001F80
7C00000F80
3800000700
ENDCHAR
STARTCHAR I
ENCODING 73
SWIDTH 222 0
DWIDTH 16 0
BBX 6 50 5 0
BITMAP
78
FC
FC
FC
FC
FC
FC
FC
FC
FC
FC
FC
FC
FC
FC
FC
FC
FC
FC
FC
FC
FC
FC
FC
FC
FC
FC
FC
FC
FC
FC
FC
FC
FC
FC
FC
FC
FC
FC
FC
FC
FC
FC
FC
FC
FC
FC
FC
FC
78
ENDCHAR
STARTCHAR J
ENCODING 74
SWIDTH 444 0
DWIDTH 32 0
BBX 28 51 -2 -1
BITMAP
000001E0
000001F0
000003F0
000003F0
000003F0
000003F0
000003F0
000003F0
000003F0
000003F0
000003F0
000003F0
000003F0
000003F0
000003F0
000003F0
000003F0
000003F0
000003F0
000003F0
000003F0
000003F0
000003F0
000003F0
000003F0
000003F0
000003F0
000003F0
000003F0
000003F0
000003F0
000003F0
000003F0
000003F0
000003F0
000003F0
000003F0
000003F0
000003F0
000007F0
000007F0
00000FF0
30001FE0
FE003FE0
FFF1FFC0
FFFFFFC0
FFFFFF80
7FFFFF00
3FFFFC00
0FFFF000
01FF8000
ENDCHAR
STARTCHAR K
ENCODING 75
SWIDTH 611 0
DWIDTH 44 0
BBX 37 50 5 0
BITMAP
3800000700
7C00000F80
FE00000FC0
FE00001FC0
FE00001FC0
FE00003F80
FE00003F80
FE00007F80
FE00007F00
FE0000FE00
FE0001FE00
FE0007FC00
FE000FF800
FFF03FF000
FFFFFFE000
FFFFFF8000
FFFFFF0000
FFFFFC0000
FEFFFF0000
FE07FF8000
FE01FFC000
FE007FE000
FE001FF000
FE000FF800
FE0007F800
FE0003FC00
FE0001FE00
FE0000FE00
FE0000FF00
FE00007F00
FE00003F80
FE00003F80
FE00001FC0
FE00001FC0
FE00000FE0
FE00000FE0
FE00000FE0
FE000007F0
FE000007F0
FE000007F0
FE000003F8
FE000003F8
FE000003F8
FE000003F8
FE000003F8
FE000001F8
FE000001F8
FE000001F8
7C000001F8
38000000F0
ENDCHAR
STARTCHAR L
ENCODING 76
SWIDTH 444 0
DWIDTH 32 0
BBX 26 50 6 0
BITMAP
78000000
FC000000
FC000000
FC000000
FC000000
FC000000
FC000000
FC000000
FC000000
FC000000
FC000000
FC000000
FC000000
FC000000
FC000000
FC000000
FC000000
FC000000
FC000000
FC000000
FC000000
FC000000
FC000000
FC000000
FC000000
FC000000
FC000000
FC000000
FC000000
FC000000
FC000000
FC000000
FC000000
FC000000
FC000000
FC000000
FC000000
FC000000
FC000000
FC000000
FC000000
FC000000
FC000000
FC000000
FFFFFF80
FFFFFFC0
FFFFFFC0
FFFFFFC0
FFFFFFC0
7FFFFF80
ENDCHAR
STARTCHAR M
ENCODING 77
SWIDTH 722 0
DWIDTH 52 0
BBX 42 50 5 0
BITMAP
038000007000
07C00000F800
0FE00001FC00
0FF00003FC00
0FF00003FC00
1FF80007FE00
1FF80007FE00
1FFC000FFE00
1FFC000FFE00
1FFE001FFE00
3FFE001FFE00
3F7F003FBF00
3F7F003FBF00
3F3F807F3F00
3F3F807F3F00
3F1FC0FE3F00
3E1FC1FE3F00
3E0FE1FC1F00
7E0FF3FC1F00
7E07F7F81F80
7E03FFF01F80
7E03FFF01F80
7E01FFE01F80
7E01FFC01F80
7E00FFC01F80
7C007F801F80
7C003F001F80
7C001E000F80
FC0000000F80
FC0000000FC0
FC0000000FC0
FC0000000FC0
FC0000000FC0
FC0000000FC0
FC0000000FC0
FC0000000FC0
FC0000000FC0
FC0000000FC0
FC0000000FC0
FC0000000FC0
FC0000000FC0
FC0000000FC0
FC0000000FC0
FC0000000FC0
FC0000000FC0
FC0000000FC0
FC0000000FC0
FC0000000FC0
F80000000FC0
780000000780
ENDCHAR
STARTCHAR N
ENCODING 78
SWIDTH 611 0
DWIDTH 44 0
BBX 34 50 5 0
BITMAP
3C00000780
7E00000F80
FF00000FC0
FF80000FC0
FFC0000FC0
FFE0000FC0
FFF0000FC0
FFF8000FC0
FFFC000FC0
FDFE000FC0
FCFF000FC0
FCFF800FC0
FC7FE00FC0
FC3FF00FC0
FC1FFC0FC0
FC0FFF8FC0
FC03FFFFC0
FC01FFFFC0
FC007FFFC0
FC001FFFC0
FC0003FFC0
FC00001FC0
FC00000FC0
FC00000FC0
FC00000FC0
FC00000FC0
FC00000FC0
FC00000FC0
FC00000FC0
FC00000FC0
FC00000FC0
FC00000FC0
FC00000FC0
FC00000FC0
FC00000FC0
FC00000FC0
FC00000FC0
FC00000FC0
FC00000FC0
FC00000FC0
FC00000FC0
FC00000FC0
FC00000FC0
FC00000FC0
FC00000FC0
FC00000FC0
FC00000FC0
FC00000FC0
FC00000F80
7800000780
ENDCHAR
STARTCHAR O
ENCODING 79
SWIDTH 722 0
DWIDTH 52 0
BBX 46 52 3 -1
BITMAP
00003FE00000
0001FFFE0000
0007FFFF8000
001FFFFFE000
003FFFFFF000
007FFFFFF800
00FFE01FFC00
01FF8007FE00
03FE0001FF00
07FC0000FF80
0FF800007F80
0FF000003FC0
1FE000001FE0
1FC000000FE0
3FC000000FF0
3F80000007F0
7F80000007F0
7F00000007F8
7F00000003F8
7F00000003F8
FF00000003FC
FE00000001FC
FE00000001FC
FE00000001FC
FE00000001FC
FE00000001FC
FE00000001FC
FE00000001FC
FE00000001FC
FE00000001FC
FE00000001FC
FF00000003FC
7F00000003F8
7F00000003F8
7F00000007F8
7F80000007F8
3F80000007F0
3FC000000FF0
1FC000000FE0
1FE000001FE0
0FF000003FC0
0FF800007FC0
07FC0000FF80
03FE0001FF00
01FF0007FE00
01FFE01FFC00
00FFFFFFF800
003FFFFFF000
001FFFFFE000
0007FFFF8000
0001FFFE0000
00003FF00000
ENDCHAR
STARTCHAR P
ENCODING 80
SWIDTH 556 0
DWIDTH 40 0
BBX 34 50 6 0
BITMAP
7FFFFFE000
FFFFFFFC00
FFFFFFFE00
FFFFFFFF00
FFFFFFFF80
FFFFFFFF80
FC00007FC0
FC00003FC0
FC00001FC0
FC00001FC0
FC00001FC0
FC00003FC0
FC00003F80
FC00007F80
FC0000FF00
FC0003FF00
FC000FFE00
FC007FFC00
FC03FFF800
FC1FFFE000
FCFFFFC000
FFFFFF0000
FFFFFC0000
FFFFE00000
FFFF800000
FFFC000000
FFC0000000
FE00000000
FC00000000
FC00000000
FC00000000
FC00000000
FC00000000
FC00000000
FC00000000
FC00000000
FC00000000
FC00000000
FC00000000
FC00000000
FC00000000
FC00000000
FC00000000
FC00000000
FC00000000
FC00000000
FC00000000
FC00000000
FC00000000
7800000000
ENDCHAR
STARTCHAR Q
ENCODING 81
SWIDTH 722 0
DWIDTH 52 0
BBX 47 59 3 -8
BITMAP
00003FE00000
0001FFFE0000
0007FFFF8000
001FFFFFC000
003FFFFFF000
007FFFFFF800
00FFE01FFC00
01FF8007FE00
03FE0001FF00
07FC0000FF80
0FF800007F80
0FF000003FC0
1FE000001FE0
1FC000000FE0
3FC000000FF0
3F80000007F0
7F80000007F0
7F00000003F8
7F00000003F8
7F00000003F8
FF00000003F8
FE00000001FC
FE00000001FC
FE00000001FC
FE00000001FC
FE00000001FC
FE00000001FC
FE00000001FC
FE00000001FC
FE00000001FC
FE00000001FC
FF00000003F8
7F00000003F8
7F01FC0003F8
7F07FF0007F8
7F8FFF8007F0
3F8FFFC007F0
3FCFFFE00FF0
1FCFFFF00FE0
1FE00FF01FE0
0FF003F83FC0
0FF003FC7FC0
07F801FEFF80
03FE00FFFF00
03FF007FFE00
01FFE03FFC00
00FFFFFFF800
003FFFFFF000
001FFFFFE000
0007FFFFE000
0001FFFFF000
00003FF7F800
00000007FC00
00000003FFF8
00000001FFFE
00000000FFFE
000000007FFE
000000001FFC
0000000003F8
ENDCHAR
STARTCHAR R
ENCODING 82
SWIDTH 667 0
DWIDTH 48 0
BBX 41 50 5 0
BITMAP
3FFFFFFC0000
7FFFFFFF0000
FFFFFFFFC000
FFFFFFFFE000
FFFFFFFFE000
FFFFFFFFF000
FE00000FF000
FE000007F800
FE000003F800
FE000003F800
FE000003F800
FE000003F800
FFF80007F000
FFFFC007F000
FFFFF00FF000
FFFFFC1FE000
FFFFFF7FC000
FFFFFFFF8000
FE7FFFFF0000
FE01FFFE0000
FE003FFC0000
FE000FFE0000
FE0003FE0000
FE0000FF0000
FE00007F8000
FE00003FC000
FE00001FC000
FE00001FE000
FE00000FE000
FE000007F000
FE000007F000
FE000003F800
FE000003F800
FE000001FC00
FE000001FC00
FE000000FE00
FE000000FE00
FE000000FE00
FE0000007E00
FE0000007F00
FE0000007F00
FE0000007F00
FE0000003F00
FE0000003F00
FE0000003F80
FE0000003F80
FE0000003F80
7E0000001F00
7C0000001F00
380000000E00
ENDCHAR
STARTCHAR S
ENCODING 83
SWIDTH 611 0
DWIDTH 44 0
BBX 40 50 2 0
BITMAP
00FFFFFF00
07FFFFFF80
0FFFFFFF80
1FFFFFFF80
3FFFFFFF80
3FFFFFFF00
7FC0000000
7F00000000
7F00000000
7E00000000
7E00000000
7F00000000
7F80000000
7FE0000000
3FFF800000
3FFFFF0000
1FFFFFF800
0FFFFFFE00
03FFFFFF80
007FFFFFE0
0003FFFFF0
000007FFF8
0000003FF8
0000000FFC
00000003FC
00000001FE
00000001FE
00000000FE
00000000FE
00000000FE
000000007F
000000007F
000000007F
000000007E
00000000FE
00000000FE
00000000FE
00000000FE
00000001FC
00000003FC
00000007F8
0000000FF8
0000003FF0
000001FFE0
3FFFFFFFC0
7FFFFFFF80
FFFFFFFF00
FFFFFFFC00
7FFFFFF000
3FFFFF8000
ENDCHAR
STARTCHAR T
ENCODING 84
SWIDTH 500 0
DWIDTH 36 0
BBX 36 50 0 0
BITMAP
3FFFFFFFC0
7FFFFFFFE0
FFFFFFFFF0
FFFFFFFFF0
7FFFFFFFE0
3FFFFFFFC0
0001F80000
0001F80000
0001F80000
0001F80000
0001F80000
0001F80000
0001F80000
0001F80000
0001F80000
0001F80000
0001F80000
0001F80000
0001F80000
0001F80000
0001F80000
0001F80000
0001F80000
0001F80000
0001F80000
0001F80000
0001F80000
0001F80000
0001F80000
0001F80000
0001F80000
0001F80000
0001F80000
0001F80000
0001F80000
0001F80000
0001F80000
0001F80000
0001F80000
0001F80000
0001F80000
0001F80000
0001F80000
0001F80000
0001F80000
0001F80000
0001F80000
0001F80000
0001F80000
0000F00000
ENDCHAR
STARTCHAR U
ENCODING 85
SWIDTH 611 0
DWIDTH 44 0
BBX 38 51 3 -1
BITMAP
0700000380
0F800007C0
0FC0000FC0
1F80000FE0
1F80000FE0
1F800007E0
1F800007E0
1F800007E0
1F800007E0
1F800007E0
3F800007E0
3F000007F0
3F000003F0
3F000003F0
3F000003F0
3F000003F0
3F000003F0
3F000003F0
7E000003F8
7E000001F8
7E000001F8
7E000001F8
7E000001F8
7E000001F8
7E000001F8
FE000001F8
FC000001FC
FC000000FC
FC000000FC
FC000000FC
FC000000FC
FC000000FC
FC000000FC
FC000000FC
FC000000FC
FC000000FC
FE000001FC
FE000001FC
FE000003FC
FF000003F8
7F800007F8
7FC0000FF8
3FE0001FF0
1FF8007FE0
1FFF03FFE0
0FFFFFFFC0
07FFFFFF00
01FFFFFE00
00FFFFF800
001FFFE000
0003FF0000
ENDCHAR
STARTCHAR V
ENCODING 86
SWIDTH 611 0
DWIDTH 44 0
BBX 40 51 2 -1
BITMAP
780000001E
FC0000003F
FC0000003F
FC0000003F
FC0000007F
FE0000007F
FE0000007F
FE0000007F
FE0000007F
7E0000007E
7E000000FE
7F000000FE
7F000000FE
7F000000FC
3F000000FC
3F000001FC
3F800001FC
3F800001F8
1F800001F8
1F800003F8
1FC00003F8
0FC00003F0
0FC00003F0
0FE00007F0
07E00007E0
07E00007E0
07E0000FE0
03F0000FC0
03F0000FC0
03F8001FC0
01F8001F80
01F8001F80
01FC003F00
00FC003F00
00FE007F00
007E007E00
007F00FE00
003F00FC00
003F01FC00
001F81F800
001FC3F800
000FC3F000
000FE7F000
0007EFE000
0007FFE000
0003FFC000
0001FF8000
0001FF8000
0000FF0000
00007E0000
00003C0000
ENDCHAR
STARTCHAR W
ENCODING 87
SWIDTH 833 0
DWIDTH 60 0
BBX 54 51 3 -1
BITMAP
78000078000078
FC0000FC0000F8
FC0000FC0000FC
FC0001FC0000FC
FC0001FC0000FC
FC0001FE0000FC
FC0001FE0000FC
FC0001FE0000FC
FC0001FE0000FC
FC0001FE0000FC
FC0001FE0000FC
FC0001FE0000FC
FC0001FE0001FC
FE0001FE0001FC
FE0003FE0001FC
FE0003FF0001FC
FE0003FF0001F8
7E0003FF0001F8
7E0003FF0001F8
7E0003FF0001F8
7E0007FF0003F8
7F0007FF8003F8
7F0007FF8003F0
3F0007FF8003F0
3F0007FF8003F0
3F000FCFC007F0
3F800FCFC007F0
1F800FCFC007E0
1F800FCFC007E0
1F801F8FC00FE0
1FC01F87E00FE0
0FC01F87E00FC0
0FC01F87E00FC0
0FE03F07E01FC0
0FE03F03F01F80
07E03F03F01F80
07F07E03F03F80
07F07E01F83F80
03F07E01F83F00
03F8FC01FC7F00
03F8FC00FC7E00
01FDFC00FCFE00
01FDF8007EFE00
00FFF8007FFC00
00FFF0007FFC00
007FF0003FF800
007FE0001FF800
003FE0001FF000
003FC0000FF000
001F800007E000
000F0000038000
ENDCHAR
STARTCHAR X
ENCODING 88
SWIDTH 611 0
DWIDTH 44 0
BBX 40 50 2 0
BITMAP
0F000000F0
1F800001F8
1F800003F8
1FC00003F8
1FE00007F8
1FE0000FF8
0FF0000FF0
0FF8001FE0
07FC003FE0
03FC007FC0
01FE007F80
00FF00FF00
007F83FE00
003FE7FC00
001FFFF800
000FFFF000
0007FFE000
0003FFC000
0001FF8000
0003FFC000
0007FFE000
000FFFF000
001FFFF800
003FC7FC00
007F81FE00
00FF00FF00
01FE007F00
01FC003F80
03FC003FC0
07F8001FC0
07F0000FE0
0FF0000FE0
0FE00007F0
1FE00007F0
1FC00003F8
1FC00003F8
3F800001FC
3F800001FC
7F800001FC
7F000000FE
7F000000FE
7F000000FE
FF000000FE
FE0000007F
FE0000007F
FE0000007F
FE0000007F
FC0000003F
FC0000003F
780000001E
ENDCHAR
STARTCHAR Y
ENCODING 89
SWIDTH 556 0
DWIDTH 40 0
BBX 36 50 2 0
BITMAP
78000001E0
FC000003F0
FC000003F0
FE000007F0
FE000007F0
FE000007F0
7F00000FE0
7F00000FE0
7F00000FE0
3F80001FC0
3F80001FC0
1FC0003F80
1FE0007F80
0FE0007F00
0FF000FF00
07F801FE00
03F801FC00
03FC03FC00
01FE07F800
00FF0FF000
00FFFFF000
007FFFE000
003FFFC000
001FFF8000
0007FF0000
0003FC0000
0001F80000
0001F80000
0001F80000
0001F80000
0001F80000
0001F80000
0001F80000
0001F80000
0001F80000
0001F80000
0001F80000
0001F80000
0001F80000
0001F80000
0001F80000
0001F80000
0001F80000
0001F80000
0001F80000
0001F80000
0001F80000
0001F80000
0001F80000
0000F00000
ENDCHAR
STARTCHAR Z
ENCODING 90
SWIDTH 500 0
DWIDTH 36 0
BBX 32 50 2 0
BITMAP
1FFFFFF8
3FFFFFFC
3FFFFFFC
3FFFFFFE
3FFFFFFE
1FFFFFFE
000000FE
000000FE
000000FC
000000FC
000001FC
000001FC
000003FC
000003F8
000007F8
000007F0
00000FF0
00001FE0
00003FE0
00007FC0
0000FF80
0001FF00
0003FE00
0007FE00
000FFC00
000FF800
001FF000
003FE000
007FC000
00FF8000
01FF0000
03FE0000
07FC0000
0FF80000
0FF00000
1FE00000
3FC00000
3FC00000
3F800000
7F000000
7F000000
7E000000
FE000000
FE000000
FFFFFFFC
FFFFFFFE
FFFFFFFF
7FFFFFFF
7FFFFFFE
3FFFFFFC
ENDCHAR
STARTCHAR bracketleft
ENCODING 91
SWIDTH 389 0
DWIDTH 28 0
BBX 17 67 6 -15
BITMAP
7FFF00
7FFF80
FFFF80
FFFF00
FE0000
FC0000
FC0000
FC0000
FC0000
FC0000
FC0000
FC0000
FC0000
FC0000
FC0000
FC0000
FC0000
FC0000
FC0000
FC0000
FC0000
FC0000
FC0000
FC0000
FC0000
FC0000
FC0000
FC0000
FC0000
FC0000
FC0000
FC0000
FC0000
FC0000
FC0000
FC0000
FC0000
FC0000
FC0000
FC0000
FC0000
FC0000
FC0000
FC0000
FC0000
FC0000
FC0000
FC0000
FC0000
FC0000
FC0000
FC0000
FC0000
FC0000
FC0000
FC0000
FC0000
FC0000
FC0000
FC0000
FC0000
FC0000
FE0000
FFFF00
FFFF80
7FFF80
7FFF00
ENDCHAR
STARTCHAR backslash
ENCODING 92
SWIDTH 278 0
DWIDTH 20 0
BBX 24 52 -2 -1
BITMAP
700000
F80000
F80000
FC0000
FC0000
FE0000
7E0000
7E0000
3F0000
3F0000
3F8000
1F8000
1FC000
0FC000
0FC000
07E000
07E000
07F000
03F000
03F000
01F800
01F800
01FC00
00FC00
00FE00
007E00
007E00
007F00
003F00
003F80
001F80
001F80
000FC0
000FC0
000FE0
0007E0
0007E0
0003F0
0003F0
0003F8
0001F8
0001FC
0000FC
0000FC
00007E
00007E
00007F
00003F
00003F
00001F
00001F
00000E
ENDCHAR
STARTCHAR bracketright
ENCODING 93
SWIDTH 389 0
DWIDTH 28 0
BBX 17 67 5 -15
BITMAP
7FFF00
FFFF00
FFFF80
7FFF80
003F80
001F80
001F80
001F80
001F80
001F80
001F80
001F80
001F80
001F80
001F80
001F80
001F80
001F80
001F80
001F80
001F80
001F80
001F80
001F80
001F80
001F80
001F80
001F80
001F80
001F80
001F80
001F80
001F80
001F80
001F80
001F80
001F80
001F80
001F80
001F80
001F80
001F80
001F80
001F80
001F80
001F80
001F80
001F80
001F80
001F80
001F80
001F80
001F80
001F80
001F80
001F80
001F80
001F80
001F80
001F80
001F80
001F80
003F80
7FFF80
FFFF80
FFFF00
7FFF00
ENDCHAR
STARTCHAR asciicircum
ENCODING 94
SWIDTH 600 0
DWIDTH 43 0
BBX 35 30 4 20
BITMAP
0001F80000
0003F80000
0003FC0000
0007FC0000
0007FE0000
000FFE0000
000FBF0000
001FBF0000
001F1F8000
003F1F8000
003E0FC000
007E0FC000
007C07E000
00FC07E000
00FC03F000
01F803F000
01F801F000
03F001F800
03F001F800
07E000FC00
07E000FC00
0FC0007E00
0FC0007E00
1F80003F00
1F80003F00
3F00001F80
3F00001F80
7E00000FC0
7E00000FC0
FC000007E0
ENDCHAR
STARTCHAR underscore
ENCODING 95
SWIDTH 500 0
DWIDTH 36 0
BBX 36 4 0 -9
BITMAP
FFFFFFFFF0
FFFFFFFFF0
FFFFFFFFF0
FFFFFFFFF0
ENDCHAR
STARTCHAR grave
ENCODING 96
SWIDTH 222 0
DWIDTH 16 0
BBX 20 10 -2 41
BITMAP
7C0000
7F0000
7FE000
FFF800
FFFF00
3FFFC0
07FFF0
007FF0
000FF0
0000E0
ENDCHAR
STARTCHAR a
ENCODING 97
SWIDTH 500 0
DWIDTH 36 0
BBX 31 38 1 -1
BITMAP
0FFFFE00
1FFFFFC0
1FFFFFE0
1FFFFFF0
1FFFFFF8
0FFFFFF8
000003FC
000000FC
000000FC
000000FC
000000FE
000000FE
00001FFE
0007FFFE
007FFFFE
01FFFFFE
07FFFFFE
0FFFC0FE
1FFC00FE
3FE000FE
7FC000FE
7F0000FE
7F0000FE
FE0000FE
FE0000FE
FE0000FE
FC0000FE
FC0000FE
FE0000FE
FE0001FE
7F0003FE
7F8007FE
3FE01FFE
3FFFFFFE
1FFFFF7E
0FFFFE7C
03FFF838
007FC000
ENDCHAR
STARTCHAR b
ENCODING 98
SWIDTH 556 0
DWIDTH 40 0
BBX 33 50 4 0
BITMAP
3800000000
7C00000000
7E00000000
FE00000000
FE00000000
FE00000000
FE00000000
FE00000000
FE00000000
FE00000000
FE00000000
FE00000000
FFF8000000
FFFFC00000
FFFFF80000
FFFFFE0000
FFFFFF8000
FFFFFFC000
FE0FFFE000
FE00FFF000
FE003FF800
FE000FFC00
FE0003FC00
FE0001FE00
FE0000FE00
FE0000FF00
FE00007F00
FE00007F00
FE00003F80
FE00003F80
FE00003F80
FE00001F80
FE00001F80
FE00001F80
FE00001F80
FE00001F80
FE00001F80
FE00003F80
FE00003F80
FE00003F80
FE00007F00
FE0000FF00
FE0001FF00
FE000FFE00
FFFFFFFC00
FFFFFFF800
FFFFFFF000
FFFFFFE000
7FFFFF8000
3FFFF80000
ENDCHAR
STARTCHAR c
ENCODING 99
SWIDTH 500 0
DWIDTH 36 0
BBX 32 37 3 0
BITMAP
001FFFF8
00FFFFFC
03FFFFFE
07FFFFFE
0FFFFFFC
1FFFE000
3FF00000
3FC00000
7F800000
7F000000
FF000000
FE000000
FE000000
FE000000
FE000000
FE000000
FE000000
FE000000
FE000000
FE000000
FE000000
7E000000
7F000000
7F000000
3F800000
3FC00000
1FE00000
1FF00000
0FF80000
07FE0000
03FF8000
01FFFFFE
00FFFFFF
007FFFFF
001FFFFF
0007FFFF
0000FFFE
ENDCHAR
STARTCHAR d
ENCODING 100
SWIDTH 556 0
DWIDTH 40 0
BBX 32 50 3 0
BITMAP
0000001E
0000001F
0000003F
0000003F
0000003F
0000003F
0000003F
0000003F
0000003F
0000003F
0000003F
0000003F
00001FFF
0001FFFF
000FFFFF
003FFFFF
00FFFFFF
01FFFFFF
03FFF83F
07FF803F
0FFE003F
1FF8003F
1FE0003F
3FC0003F
7F80003F
7F00003F
7F00003F
FE00003F
FE00003F
FE00003F
FC00003F
FC00003F
FC00003F
FC00003F
FC00003F
FC00003F
FC00003F
FE00003F
FE00003F
FE00003F
FF00003F
7F80003F
7FC0003F
3FF0003F
1FFFFFFF
0FFFFFFF
07FFFFFF
03FFFFFF
00FFFFFF
000FFFFE
ENDCHAR
STARTCHAR e
ENCODING 101
SWIDTH 556 0
DWIDTH 40 0
BBX 34 38 3 0
BITMAP
0003FC0000
003FFF8000
00FFFFE000
01FFFFF800
03FFFFFC00
07FFFFFE00
0FF801FE00
1FE000FF00
3FC0007F80
3F80003F80
3F80001F80
7F00001FC0
7F00000FC0
7E00000FC0
FE00000FC0
FFFFFFFFC0
FFFFFFFFC0
FFFFFFFFC0
FFFFFFFFC0
FFFFFFFF80
FE00000000
FE00000000
FE00000000
FE00000000
FE00000000
7E00000000
7F00000000
7F00000000
3F80000000
3FC0000000
1FE0000000
0FF8000000
0FFF800000
07FFFFFFC0
01FFFFFFC0
00FFFFFFC0
003FFFFFC0
0007FFFF80
ENDCHAR
STARTCHAR f
ENCODING 102
SWIDTH 333 0
DWIDTH 24 0
BBX 25 50 2 0
BITMAP
000FFF00
003FFF80
007FFF80
00FFFF80
01FFFF80
01FFFE00
03FC0000
03F80000
03F80000
03F00000
03F00000
03F00000
3FFFF800
7FFFFC00
FFFFFC00
FFFFFC00
7FFFFC00
3FFFF800
03F00000
03F00000
03F00000
03F00000
03F00000
03F00000
03F00000
03F00000
03F00000
03F00000
03F00000
03F00000
03F00000
03F00000
03F00000
03F00000
03F00000
03F00000
03F00000
03F00000
03F00000
03F00000
03F00000
03F00000
03F00000
03F00000
03F00000
03F00000
03F00000
03F00000
03F00000
01E00000
ENDCHAR
STARTCHAR g
ENCODING 103
SWIDTH 556 0
DWIDTH 40 0
BBX 38 53 2 -15
BITMAP
00001FFFC0
0001FFFFF0
000FFFFFF0
003FFFFFF0
007FFFFFE0
01FFFE3FC0
03FF803F00
07FE003F00
0FF8003F00
0FF0003F00
1FE0003F00
1FC0003F00
3F80003F00
3F80003F00
7F00003F00
7F00003F00
7E00003F00
7E00003F00
7E00003F00
7E00003F00
7E00003F00
7E00003F00
7E00003F00
7E00003F00
7E00003F00
7E00003F00
7F00003F00
7F00003F00
3F80003F00
3FC0003F00
1FE0003F00
0FFC003F80
07FFFFFFC0
03FFFFFFE0
01FFFFFFF0
007FFFFFF8
000FFFFFF8
00000003F8
00000001FC
00000000FC
00000000FC
00000000FC
00000000FC
00000001F8
20000003F8
FE00000FF0
FFE0003FF0
FFFFDFFFE0
FFFFFFFFC0
7FFFFFFF00
1FFFFFFC00
03FFFFF000
001FFE0000
ENDCHAR
STARTCHAR h
ENCODING 104
SWIDTH 556 0
DWIDTH 40 0
BBX 30 50 5 0
BITMAP
78000000
FC000000
FC000000
FC000000
FC000000
FC000000
FC000000
FC000000
FC000000
FC000000
FC000000
FC000000
FC07F800
FC3FFF00
FCFFFF80
FDFFFFC0
FFFFFFE0
FFFFFFF0
FFF01FF8
FFE007F8
FF8003F8
FF0001FC
FF0001FC
FE0001FC
FE0000FC
FC0000FC
FC0000FC
FC0000FC
FC0000FC
FC0000FC
FC0000FC
FC0000FC
FC0000FC
FC0000FC
FC0000FC
FC0000FC
FC0000FC
FC0000FC
FC0000FC
FC0000FC
FC0000FC
FC0000FC
FC0000FC
FC0000FC
FC0000FC
FC0000FC
FC0000FC
FC0000FC
FC0000FC
78000078
ENDCHAR
STARTCHAR i
ENCODING 105
SWIDTH 222 0
DWIDTH 16 0
BBX 6 49 5 0
BITMAP
78
FC
FC
FC
FC
FC
FC
78
00
00
00
00
78
FC
FC
FC
FC
FC
FC
FC
FC
FC
FC
FC
FC
FC
FC
FC
FC
FC
FC
FC
FC
FC
FC
FC
FC
FC
FC
FC
FC
FC
FC
FC
FC
FC
FC
FC
78
ENDCHAR
STARTCHAR j
ENCODING 106
SWIDTH 222 0
DWIDTH 16 0
BBX 23 64 -12 -15
BITMAP
00003C
00007E
00007E
00007E
00007E
00007E
00007E
00003C
000000
000000
000000
000000
00003C
00007E
00007E
00007E
00007E
00007E
00007E
00007E
00007E
00007E
00007E
00007E
00007E
00007E
00007E
00007E
00007E
00007E
00007E
00007E
00007E
00007E
00007E
00007E
00007E
00007E
00007E
00007E
00007E
00007E
00007E
00007E
00007E
00007E
00007E
00007E
00007E
00007E
00007E
0000FE
0000FE
0000FE
0000FE
0001FC
0003FC
0007FC
7F7FF8
FFFFF0
FFFFE0
FFFFC0
7FFF80
1FFC00
ENDCHAR
STARTCHAR k
ENCODING 107
SWIDTH 500 0
DWIDTH 36 0
BBX 30 50 5 0
BITMAP
78000000
FC000000
FC000000
FC000000
FC000000
FC000000
FC000000
FC000000
FC000000
FC000000
FC000000
FC000000
FC0001C0
FC0003E0
FC0007E0
FC0007E0
FC000FE0
FC001FE0
FC001FC0
FC003FC0
FC00FF80
FC01FF00
FC07FE00
FCFFFC00
FFFFF000
FFFFC000
FFFFE000
FFFFF800
FCFFFC00
FC0FFE00
FC01FF00
FC007F80
FC003FC0
FC001FC0
FC000FE0
FC000FF0
FC0007F0
FC0007F0
FC0003F8
FC0003F8
FC0003F8
FC0001F8
FC0001FC
FC0001FC
FC0001FC
FC0000FC
FC0000FC
FC0000FC
FC0000FC
78000078
ENDCHAR
STARTCHAR l
ENCODING 108
SWIDTH 222 0
DWIDTH 16 0
BBX 6 50 5 0
BITMAP
78
FC
FC
FC
FC
FC
FC
FC
FC
FC
FC
FC
FC
FC
FC
FC
FC
FC
FC
FC
FC
FC
FC
FC
FC
FC
FC
FC
FC
FC
FC
FC
FC
FC
FC
FC
FC
FC
FC
FC
FC
FC
FC
FC
FC
FC
FC
FC
FC
78
ENDCHAR
STARTCHAR m
ENCODING 109
SWIDTH 889 0
DWIDTH 64 0
BBX 54 38 5 0
BITMAP
0007F80007F800
703FFE003FFF00
F8FFFF80FFFF80
F9FFFFC1FFFFC0
FBFFFFE3FFFFE0
FBFFFFF7FFFFF0
FFF01FFFF81FF8
FFC007FFE007F8
FF8003FF8003FC
FF0003FF0001FC
FF0001FF0001FC
FE0001FE0001FC
FE0001FE0000FC
FC0000FC0000FC
FC0000FC0000FC
FC0000FC0000FC
FC0000FC0000FC
FC0000FC0000FC
FC0000FC0000FC
FC0000FC0000FC
FC0000FC0000FC
FC0000FC0000FC
FC0000FC0000FC
FC0000FC0000FC
FC0000FC0000FC
FC0000FC0000FC
FC0000FC0000FC
FC0000FC0000FC
FC0000FC0000FC
FC0000FC0000FC
FC0000FC0000FC
FC0000FC0000FC
FC0000FC0000FC
FC0000FC0000FC
FC0000FC0000FC
FC0000FC0000FC
F80000FC0000FC
78000078000078
ENDCHAR
STARTCHAR n
ENCODING 110
SWIDTH 556 0
DWIDTH 40 0
BBX 30 38 5 0
BITMAP
0007F800
703FFF00
F8FFFF80
F9FFFFC0
FBFFFFE0
FBFFFFF0
FFF01FF8
FFE007F8
FF8003F8
FF0001FC
FF0001FC
FE0001FC
FE0000FC
FC0000FC
FC0000FC
FC0000FC
FC0000FC
FC0000FC
FC0000FC
FC0000FC
FC0000FC
FC0000FC
FC0000FC
FC0000FC
FC0000FC
FC0000FC
FC0000FC
FC0000FC
FC0000FC
FC0000FC
FC0000FC
FC0000FC
FC0000FC
FC0000FC
FC0000FC
FC0000FC
FC0000FC
78000078
ENDCHAR
STARTCHAR o
ENCODING 111
SWIDTH 556 0
DWIDTH 40 0
BBX 34 39 3 -1
BITMAP
0007F80000
003FFF0000
00FFFF8000
01FFFFE000
03FFFFF000
07FFFFF800
0FF807FC00
1FE001FE00
1FC000FE00
3F80007F00
3F00007F00
7F00003F80
7E00001F80
FE00001F80
FE00001FC0
FC00001FC0
FC00000FC0
FC00000FC0
FC00000FC0
FC00000FC0
FC00000FC0
FC00000FC0
FC00000FC0
FC00001FC0
FE00001FC0
FE00001FC0
7E00001F80
7F00003F80
7F00007F00
3F80007F00
3FC000FE00
1FE001FE00
0FF807FC00
07FFFFF800
03FFFFF000
01FFFFE000
00FFFFC000
003FFF0000
0007F80000
ENDCHAR
STARTCHAR p
ENCODING 112
SWIDTH 556 0
DWIDTH 40 0
BBX 33 52 4 -14
BITMAP
3FFE000000
7FFFE00000
FFFFF80000
FFFFFE0000
FFFFFF8000
FFFFFFC000
FE01FFE000
FE003FF000
FE000FF800
FE0007FC00
FE0003FC00
FE0001FE00
FE0000FE00
FE00007F00
FE00007F00
FE00003F80
FE00003F80
FE00003F80
FE00003F80
FE00001F80
FE00001F80
FE00001F80
FE00001F80
FE00001F80
FE00003F80
FE00003F80
FE00003F80
FE00007F00
FE00007F00
FE0000FF00
FE0003FE00
FE000FFC00
FFFFFFFC00
FFFFFFF800
FFFFFFF000
FFFFFFC000
FFFFFF0000
FFFFF80000
FE00000000
FE00000000
FE00000000
FE00000000
FE00000000
FE00000000
FE00000000
FE00000000
FE00000000
FE00000000
FE00000000
FE00000000
7C00000000
3800000000
ENDCHAR
STARTCHAR q
ENCODING 113
SWIDTH 556 0
DWIDTH 40 0
BBX 33 52 3 -14
BITMAP
00003FFE00
0003FFFF00
000FFFFF80
003FFFFF80
00FFFFFF80
01FFFFFF80
03FFC03F80
07FE003F80
0FF8003F80
1FF0003F80
1FE0003F80
3FC0003F80
7F80003F80
7F00003F80
7F00003F80
FE00003F80
FE00003F80
FE00003F80
FC00003F80
FC00003F80
FC00003F80
FC00003F80
FC00003F80
FC00003F80
FE00003F80
FE00003F80
FE00003F80
7F00003F80
7F00003F80
7F80003F80
3FE0003F80
1FF8003F80
1FFFFFFF80
0FFFFFFF80
07FFFFFF80
01FFFFFF80
007FFFFF80
000FFFFF80
0000003F80
0000003F80
0000003F80
0000003F80
0000003F80
0000003F80
0000003F80
0000003F80
0000003F80
0000003F80
0000003F80
0000003F80
0000001F00
0000000E00
ENDCHAR
STARTCHAR r
ENCODING 114
SWIDTH 333 0
DWIDTH 24 0
BBX 19 38 5 0
BITMAP
000FC0
783FE0
FCFFE0
FCFFE0
FDFFE0
FDFFC0
FFF000
FFC000
FF8000
FF0000
FE0000
FE0000
FC0000
FC0000
FC0000
FC0000
FC0000
FC0000
FC0000
FC0000
FC0000
FC0000
FC0000
FC0000
FC0000
FC0000
FC0000
FC0000
FC0000
FC0000
FC0000
FC0000
FC0000
FC0000
FC0000
FC0000
FC0000
780000
ENDCHAR
STARTCHAR s
ENCODING 115
SWIDTH 500 0
DWIDTH 36 0
BBX 32 37 2 0
BITMAP
01FFFFE0
07FFFFF0
1FFFFFF8
1FFFFFF8
3FFFFFF0
7FFFFFE0
7F000000
7E000000
7E000000
7F000000
7FC00000
7FFF0000
3FFFF800
1FFFFFC0
0FFFFFF0
03FFFFF8
003FFFFC
0000FFFC
000007FE
000000FE
0000007E
0000007F
0000003F
0000003F
0000003F
0000003F
0000003F
0000007E
0000007E
000000FE
000003FC
3FFFFFFC
FFFFFFF8
FFFFFFF0
FFFFFFE0
FFFFFFC0
7FFFFE00
ENDCHAR
STARTCHAR t
ENCODING 116
SWIDTH 333 0
DWIDTH 24 0
BBX 21 49 3 -1
BITMAP
038000
07E000
07E000
07E000
07E000
07E000
07E000
07E000
07E000
07E000
7FFFE0
FFFFF0
FFFFF0
FFFFF0
FFFFF0
7FFFE0
07E000
07E000
07E000
07E000
07E000
07E000
07E000
07E000
07E000
07E000
07E000
07E000
07E000
07E000
07E000
07E000
07E000
07E000
07E000
07E000
07E000
07E000
07E000
07E000
07E000
07F000
07F800
07FFF0
07FFF8
03FFF8
01FFF8
00FFF8
003FF0
ENDCHAR
STARTCHAR u
ENCODING 117
SWIDTH 556 0
DWIDTH 40 0
BBX 30 38 5 -1
BITMAP
78000078
FC0000FC
FC0000FC
FC0000FC
FC0000FC
FC0000FC
FC0000FC
FC0000FC
FC0000FC
FC0000FC
FC0000FC
FC0000FC
FC0000FC
FC0000FC
FC0000FC
FC0000FC
FC0000FC
FC0000FC
FC0000FC
FC0000FC
FC0000FC
FC0000FC
FC0000FC
FC0000FC
FC0000FC
FC0001FC
FE0001FC
FE0003FC
FE0003FC
FF0007FC
7F800FFC
7FE03FFC
3FFFFF7C
1FFFFF7C
0FFFFE7C
07FFFC7C
03FFF038
007F8000
ENDCHAR
STARTCHAR v
ENCODING 118
SWIDTH 500 0
DWIDTH 36 0
BBX 32 38 2 -1
BITMAP
7000000E
F800001F
F800001F
F800001F
FC00003F
FC00003F
FC00003F
FC00003F
FC00003F
FE00007F
7E00007E
7E00007E
7E00007E
7F0000FE
3F0000FC
3F0000FC
3F8001FC
1F8001F8
1F8001F8
1FC003F0
0FC003F0
0FE007F0
07E007E0
07F00FE0
03F00FC0
03F81FC0
03F81F80
01FC3F80
00FC7F00
00FE7F00
007FFE00
007FFE00
003FFC00
003FFC00
001FF800
000FF000
0007E000
0003C000
ENDCHAR
STARTCHAR w
ENCODING 119
SWIDTH 722 0
DWIDTH 52 0
BBX 48 38 2 -1
BITMAP
380003C0001C
7C0003C0003E
7C0007E0003E
FC0007E0003E
FC0007E0003F
FC0007E0003F
FC0007E0003F
FC0007E0003F
FC000FF0003F
FC000FF0003F
FC000FF0007E
7E000FF0007E
7E001FF8007E
7E001FF8007E
7E001FF8007E
7E001FF8007E
7E003FFC007E
7E003EFC00FC
3F003E7C00FC
3F007E7E00FC
3F007E7E00FC
3F007E7E00FC
1F80FC3F01F8
1F80FC3F01F8
1F80FC3F01F8
1FC1F81F83F8
0FC1F81F83F0
0FC3F81FC3F0
0FE3F00FC7E0
07E7F00FE7E0
07F7E007EFE0
03FFE007FFC0
03FFC003FFC0
01FFC003FF80
01FF8001FF80
00FF0000FF00
007E00007E00
003C00003C00
ENDCHAR
STARTCHAR x
ENCODING 120
SWIDTH 500 0
DWIDTH 36 0
BBX 32 37 2 0
BITMAP
1C000038
3E00007C
3E0000FC
3F0000FC
3F0000FC
3F0000FC
3F8001FC
3F8001FC
1FC003F8
1FE007F8
0FF00FF0
07F81FE0
07FE3FE0
03FFFFC0
01FFFF80
00FFFE00
003FFC00
003FFC00
00FFFF00
01FFFF80
03FE7FC0
07F81FE0
0FF00FF0
1FE007F8
3FC003F8
3F8001FC
7F8001FE
7F0000FE
7F0000FE
FE00007F
FE00007F
FE00007F
FC00003F
FC00003F
FC00003F
FC00003F
7800001E
ENDCHAR
STARTCHAR y
ENCODING 121
SWIDTH 500 0
DWIDTH 36 0
BBX 33 51 2 -14
BITMAP
7800000F00
F800001F80
FC00001F80
FC00001F80
FC00001F80
FE00003F80
FE00003F80
FE00003F80
FE00003F80
7E00003F00
7F00007F00
7F00007F00
7F00007F00
3F00007E00
3F8000FE00
3F8000FE00
1F8000FC00
1FC001FC00
1FC001FC00
0FC001F800
0FE003F800
07E003F000
07F007F000
03F007E000
03F80FE000
01F80FC000
01FC1FC000
00FC1F8000
00FE3F8000
007F7F0000
007FFF0000
003FFE0000
001FFC0000
001FFC0000
000FF80000
0007F00000
000FF00000
000FE00000
001FE00000
003FC00000
003F800000
007F800000
00FF000000
01FE000000
01FE000000
03FC000000
07F8000000
07F0000000
07F0000000
03E0000000
01C0000000
ENDCHAR
STARTCHAR z
ENCODING 122
SWIDTH 444 0
DWIDTH 32 0
BBX 29 37 1 0
BITMAP
0FFFFFE0
1FFFFFF0
1FFFFFF8
1FFFFFF8
1FFFFFF8
0FFFFFF8
000001F8
000003F0
000007F0
00000FF0
00001FE0
00003FC0
00007FC0
0000FF80
0003FF00
0007FC00
000FF800
001FF000
003FE000
007FC000
00FF8000
01FF0000
07FE0000
07F80000
0FF00000
1FE00000
3FC00000
3F800000
7F000000
7F000000
7E000000
FFFFFFF0
FFFFFFF8
FFFFFFF8
7FFFFFF8
7FFFFFF8
3FFFFFF0
ENDCHAR
STARTCHAR braceleft
ENCODING 123
SWIDTH 389 0
DWIDTH 28 0
BBX 22 68 3 -15
BITMAP
001FF8
007FFC
00FFFC
01FFFC
01FE00
01F800
03F800
03F000
03F000
03F000
03F000
03F000
03F000
03F000
03F000
03F000
03F000
03F000
03F000
03F000
03F000
03F000
03F000
03F000
03F000
03F000
03F000
07F000
07E000
0FE000
1FC000
FF8000
FF0000
FC0000
FF0000
FF8000
3FC000
0FE000
0FE000
07F000
07F000
03F000
03F000
03F000
03F000
03F000
03F000
03F000
03F000
03F000
03F000
03F000
03F000
03F000
03F000
03F000
03F000
03F000
03F000
03F000
03F000
03F800
01F800
01FE00
01FFFC
00FFFC
007FFC
001FF8
ENDCHAR
STARTCHAR bar
ENCODING 124
SWIDTH 222 0
DWIDTH 16 0
BBX 6 72 5 -18
BITMAP
FC
FC
FC
FC
FC
FC
FC
FC
FC
FC
FC
FC
FC
FC
FC
FC
FC
FC
FC
FC
FC
FC
FC
FC
FC
FC
FC
FC
FC
FC
FC
FC
FC
FC
FC
FC
FC
FC
FC
FC
FC
FC
FC
FC
FC
FC
FC
FC
FC
FC
FC
FC
FC
FC
FC
FC
FC
FC
FC
FC
FC
FC
FC
FC
FC
FC
FC
FC
FC
FC
FC
FC
ENDCHAR
STARTCHAR braceright
ENCODING 125
SWIDTH 389 0
DWIDTH 28 0
BBX 22 68 3 -15
BITMAP
7FE000
FFF800
FFFC00
FFFC00
01FE00
007E00
007F00
003F00
003F00
003F00
003F00
003F00
003F00
003F00
003F00
003F00
003F00
003F00
003F00
003F00
003F00
003F00
003F00
003F00
003F00
003F00
003F00
003F80
001F80
001FC0
000FE0
000FFC
0003FC
0000FC
0003FC
0007FC
000FF0
001FC0
001FC0
003F80
003F00
003F00
003F00
003F00
003F00
003F00
003F00
003F00
003F00
003F00
003F00
003F00
003F00
003F00
003F00
003F00
003F00
003F00
003F00
003F00
003F00
007F00
007E00
01FE00
FFFC00
FFFC00
FFF800
7FE000
ENDCHAR
STARTCHAR asciitilde
ENCODING 126
SWIDTH 600 0
DWIDTH 43 0
BBX 33 10 5 13
BITMAP
07FC000200
1FFF000700
3FFFC00F00
7FFFF01F80
7FFFFFFF80
FC0FFFFF00
F801FFFE00
70007FFC00
20001FF800
200007E000
ENDCHAR
STARTCHAR uni00A0
ENCODING 160
SWIDTH 305 0
DWIDTH 22 0
BBX 1 1 0 0
BITMAP
00
ENDCHAR
STARTCHAR exclamdown
ENCODING 161
SWIDTH 278 0
DWIDTH 20 0
BBX 8 50 6 -14
BITMAP
3C
7E
7E
FF
FE
7E
7E
3C
00
00
00
00
00
18
3C
7E
7E
7E
7E
7E
7E
7E
7E
7E
7E
7E
7E
7E
7E
7E
7E
7E
7E
7E
7E
7E
7E
7E
7E
7E
FE
FE
FF
FF
FF
FF
FF
7E
7E
3C
ENDCHAR
STARTCHAR cent
ENCODING 162
SWIDTH 611 0
DWIDTH 44 0
BBX 28 54 7 -1
BITMAP
00008000
0003E000
0003F000
0003F000
0003F000
0003F000
0003F000
0003F000
0003F000
0003F000
0003F000
007FFFE0
03FFFFE0
07FFFFE0
0FFFFFE0
1FFFFFC0
3FE3F000
7F83F000
7F03F000
FE03F000
FE03F000
FC03F000
FC03F000
FC03F000
FC03F000
FC03F000
FC03F000
FC03F000
FE03F000
FE03F000
7F03F000
7F03F000
3F83F000
3FC3F000
1FE3F000
0FFBF000
0FFFF000
03FFFFE0
01FFFFF0
00FFFFF0
003FFFF0
0007FFE0
0003F000
0003F000
0003F000
0003F000
0003F000
0003F000
0003F000
0003F000
0003F000
0003F000
0003E000
0001C000
ENDCHAR
STARTCHAR sterling
ENCODING 163
SWIDTH 611 0
DWIDTH 44 0
BBX 40 52 0 -1
BITMAP
0000007FC0
000003FFF8
00000FFFFE
00003FFFFF
00007FFFFF
0000FFFFFF
0000FF807E
0001FE0004
0001FC0000
0003F80000
0003F00000
0003F00000
0007F00000
0007F00000
0007F00000
0007F00000
0007F00000
0007F00000
0007F00000
0007F00000
00FFFFFFE0
01FFFFFFF0
01FFFFFFF0
01FFFFFFF0
01FFFFFFF0
00FFFFFFC0
0007F00000
0007F00000
0007F00000
0007F00000
0007F00000
0007F00000
0007F00000
0007F00000
0007F00000
0007F00000
0007F00000
0007E00000
0007E00000
0007E00000
0007E00000
0007E00000
000FE00000
001FC00000
007FC00000
03FFFE0030
1FFFFFFFF8
FFFFFFFFFC
FFFFFFFFFC
FFFFFFFFF8
FF80FFFFF0
780001FF80
ENDCHAR
STARTCHAR currency
ENCODING 164
SWIDTH 611 0
DWIDTH 44 0
BBX 36 36 4 7
BITMAP
3003FC00C0
781FFF81E0
FC7FFFE3F0
FFFFFFF7F0
7FFFFFFFE0
3FFFFFFFC0
1FF801FF80
0FE000FF00
1FC0003F80
3F80001FC0
3F00000FC0
7F00000FE0
7E000007E0
7E000007E0
FC000007F0
FC000003F0
FC000003F0
FC000003F0
FC000003F0
FC000003F0
FC000003F0
FE000007E0
7E000007E0
7E00000FE0
7F00000FE0
3F80001FC0
3FC0003F80
1FE0007F80
0FF000FF00
1FFE07FF80
3FFFFFFFC0
7FFFFFFFE0
FEFFFFF7F0
7C3FFFC3E0
380FFF01C0
1000000080
ENDCHAR
STARTCHAR yen
ENCODING 165
SWIDTH 611 0
DWIDTH 44 0
BBX 38 51 3 0
BITMAP
3C000000F0
7E000001F8
7E000001F8
7F000003F8
7F000003F8
7F000003F8
3F800007F0
3F800007F0
3F800007F0
1FC0000FE0
1FC0000FE0
0FE0001FC0
0FE0003FC0
07F0003F80
07F8007F80
03F8007F00
3FFC00FFF0
FFFE01FFF8
FFFF03FFFC
FFFF87FFFC
FFFFDFFFF8
7FFFFFFFF8
001FFFE000
000FFFC000
0007FF8000
0003FF0000
0001FE0000
0000FC0000
1FFFFFFFE0
3FFFFFFFF0
3FFFFFFFF0
3FFFFFFFF0
3FFFFFFFF0
1FFFFFFFE0
0000FC0000
0000FC0000
0000FC0000
0000FC0000
0000FC0000
0000FC0000
0000FC0000
0000FC0000
0000FC0000
0000FC0000
0000FC0000
0000FC0000
0000FC0000
0000FC0000
0000FC0000
0000FC0000
0000780000
ENDCHAR
STARTCHAR brokenbar
ENCODING 166
SWIDTH 222 0
DWIDTH 16 0
BBX 6 61 5 -12
BITMAP
FC
FC
FC
FC
FC
FC
FC
FC
FC
FC
FC
FC
FC
FC
FC
FC
FC
FC
FC
FC
FC
FC
FC
FC
FC
00
00
00
00
00
00
00
00
00
00
00
FC
FC
FC
FC
FC
FC
FC
FC
FC
FC
FC
FC
FC
FC
FC
FC
FC
FC
FC
FC
FC
FC
FC
FC
FC
ENDCHAR
STARTCHAR section
ENCODING 167
SWIDTH 500 0
DWIDTH 36 0
BBX 30 50 3 0
BITMAP
01FFFF80
07FFFFC0
0FFFFFC0
1FFFFFC0
3FFFFFC0
3FFFFF80
3F800000
7F000000
7E000000
7E000000
7F000000
3FE00000
3FF80000
3FFF0000
3FFFE000
7FFFFC00
7FFFFF00
FFFFFFC0
FC3FFFE0
FC0FFFF0
FC01FFF8
FC003FF8
FF0007FC
FFE001FC
7FFC00FC
7FFF00FC
3FFFE0FC
1FFFFCFC
03FFFEFC
00FFFFFC
001FFFFC
0003FFF8
00007FF8
00000FF0
000007F0
000003F0
000003F8
000001F8
000001F8
000001F8
000003F0
000003F0
000007F0
00001FF0
7FFFFFE0
FFFFFFC0
FFFFFFC0
FFFFFF00
FFFFFE00
7FFFF800
ENDCHAR
STARTCHAR dieresis
ENCODING 168
SWIDTH 222 0
DWIDTH 16 0
BBX 24 8 -4 42
BITMAP
3C003C
7E007E
7F00FE
FF00FF
FF00FF
7F00FE
7E007E
3C003C
ENDCHAR
STARTCHAR copyright
ENCODING 169
SWIDTH 800 0
DWIDTH 58 0
BBX 50 52 4 -1
BITMAP
00000FFC000000
0000FFFF800000
0003FFFFE00000
000FFFFFF80000
001FFFFFFE0000
007FE003FF0000
00FF00007F8000
01FE00001FC000
03F8000007E000
07F0000003F000
07E007F801F800
0FC01FFF00FC00
1F807FFF80FC00
1F00FFFFC07E00
3F01FFFFE03E00
3E03FC07F03F00
7E07F001F81F00
7E0FE000F81F80
7C0FC000FC1F80
FC0FC0007C0F80
FC1F80007C0F80
F81F8000000FC0
F81F8000000FC0
F81F8000000FC0
F81F0000000FC0
F81F0000000FC0
F81F00000007C0
F81F0000000FC0
F81F8000000FC0
F81F8000000FC0
F81F8000000FC0
FC1F80007C0F80
FC0FC0007C0F80
7C0FC000F81F80
7C0FE000F81F80
7E07F001F01F00
3E03FC07F03F00
3F01FFFFE03E00
1F00FFFFC07E00
1F807FFF807C00
0FC01FFF00FC00
0FE007F801F800
07F0000003F000
03F8000007E000
01FC00001FE000
00FF00007FC000
007FE003FF0000
001FFFFFFE0000
000FFFFFF80000
0003FFFFF00000
0000FFFF800000
00000FFC000000
ENDCHAR
STARTCHAR ordfeminine
ENCODING 170
SWIDTH 300 0
DWIDTH 22 0
BBX 20 23 0 28
BITMAP
3FFF00
3FFFC0
3FFFE0
1FFFE0
0001F0
0000F0
0000F0
003FF0
07FFF0
1FFFF0
3FF8F0
7F00F0
FC00F0
F800F0
F000F0
F000F0
F001F0
F801F0
F803F0
7F1FF0
7FFFF0
1FFEF0
07F060
ENDCHAR
STARTCHAR guillemotleft
ENCODING 171
SWIDTH 444 0
DWIDTH 32 0
BBX 24 28 3 4
BITMAP
01C00E
03E01F
03E01F
07E03F
07E07E
0FC07E
1FC0FC
1F80FC
3F81F8
3F01F8
7F03F0
7E03F0
FE07E0
FC0FE0
FE07E0
FE07F0
7E03F0
3F03F8
3F01F8
1F81FC
1F80FC
0FC07E
0FC07E
07E03F
07E03F
03E01F
03E01F
00C00C
ENDCHAR
STARTCHAR logicalnot
ENCODING 172
SWIDTH 600 0
DWIDTH 43 0
BBX 37 20 3 8
BITMAP
FFFFFFFFF8
FFFFFFFFF8
FFFFFFFFF8
FFFFFFFFF8
FFFFFFFFF8
FFFFFFFFF8
00000001F8
00000001F8
00000001F8
00000001F8
00000001F8
00000001F8
00000001F8
00000001F8
00000001F8
00000001F8
00000001F8
00000001F8
00000001F8
00000001F8
ENDCHAR
STARTCHAR uni00AD
ENCODING 173
SWIDTH 333 0
DWIDTH 24 0
BBX 18 5 3 16
BITMAP
7FFF80
FFFF80
FFFFC0
FFFFC0
7FFF80
ENDCHAR
STARTCHAR registered
ENCODING 174
SWIDTH 800 0
DWIDTH 58 0
BBX 50 52 4 -1
BITMAP
00000FFC000000
0000FFFF800000
0003FFFFE00000
000FFFFFF80000
001FFFFFFE0000
007FE003FF0000
00FF00007F8000
01FE00001FC000
03F8000007E000
07F0000003F000
07E0000001F800
0FC3FFFE00FC00
1F83FFFF80FC00
1F03FFFFE07E00
3F03FFFFF03E00
3E03F007F03F00
7E03F001F81F00
7E03F000F81F80
7C03F000F81F80
FC03F000F80F80
FC03F000F80F80
F803F001F80FC0
F803F001F00FC0
F803F007F00FC0
F803FFFFE00FC0
F803FFFFE00FC0
F803FFFF8007C0
F803FFFE000FC0
F803F078000FC0
F803F07C000FC0
F803F03E000FC0
FC03F03E000F80
FC03F01F000F80
7C03F00F801F80
7C03F00F801F80
7E03F007C01F00
3E03F007E03F00
3F03F003E03E00
1F03F001F07E00
1F83F001F07C00
0FC3F000F8FC00
0FE0000001F800
07F0000003F000
03F8000007F000
01FC00001FE000
00FF00007FC000
007FE003FF0000
003FFFFFFE0000
000FFFFFF80000
0003FFFFF00000
0000FFFF800000
00000FFC000000
ENDCHAR
STARTCHAR macron
ENCODING 175
SWIDTH 222 0
DWIDTH 16 0
BBX 20 5 -2 44
BITMAP
FFFFF0
FFFFF0
FFFFF0
FFFFF0
FFFFF0
ENDCHAR
STARTCHAR degree
ENCODING 176
SWIDTH 400 0
DWIDTH 29 0
BBX 21 21 4 30
BITMAP
01FC00
07FF00
0FFF80
1FFFC0
3F8FE0
7E03F0
7C01F0
F801F0
F800F8
F800F8
F800F8
F800F8
F800F8
F801F0
7C01F0
7E03F0
3F8FE0
1FFFC0
0FFF80
07FF00
01FC00
ENDCHAR
STARTCHAR plusminus
ENCODING 177
SWIDTH 600 0
DWIDTH 43 0
BBX 37 37 3 0
BITMAP
0000FC0000
0000FC0000
0000FC0000
0000FC0000
0000FC0000
0000FC0000
0000FC0000
0000FC0000
0000FC0000
FFFFFFFFF8
FFFFFFFFF8
FFFFFFFFF8
FFFFFFFFF8
FFFFFFFFF8
FFFFFFFFF8
0000FC0000
0000FC0000
0000FC0000
0000FC0000
0000FC0000
0000FC0000
0000FC0000
0000FC0000
0000FC0000
0000FC0000
0000000000
0000000000
0000000000
0000000000
0000000000
0000000000
FFFFFFFFF8
FFFFFFFFF8
FFFFFFFFF8
FFFFFFFFF8
FFFFFFFFF8
FFFFFFFFF8
ENDCHAR
STARTCHAR twosuperior
ENCODING 178
SWIDTH 366 0
DWIDTH 26 0
BBX 23 30 1 20
BITMAP
3FFF80
7FFFE0
7FFFF0
3FFFF8
0007F8
0000FC
0000FC
00007C
00007C
0000FC
0000F8
0001F8
0007F0
000FE0
003FC0
007F80
01FE00
07FC00
0FF000
1FC000
3F0000
7E0000
7C0000
780000
F80000
F80000
FFFFFC
FFFFFE
7FFFFE
7FFFFC
ENDCHAR
STARTCHAR threesuperior
ENCODING 179
SWIDTH 366 0
DWIDTH 26 0
BBX 23 30 1 20
BITMAP
7FFFE0
7FFFF0
7FFFF0
7FFFE0
000F80
003F00
00FE00
01F800
07F000
0FFE00
1FFFC0
0FFFE0
007FF0
0003F8
0000FC
00007E
00003E
00003E
00003E
00003E
00003E
00003E
00003E
00007E
0000FC
000FF8
7FFFF8
FFFFE0
FFFFC0
7FFE00
ENDCHAR
STARTCHAR acute
ENCODING 180
SWIDTH 222 0
DWIDTH 16 0
BBX 20 10 -2 41
BITMAP
0003C0
000FE0
007FE0
01FFF0
0FFFF0
3FFFC0
FFFE00
FFE000
FF0000
700000
ENDCHAR
STARTCHAR mu
ENCODING 181
SWIDTH 556 0
DWIDTH 40 0
BBX 30 52 5 -15
BITMAP
78000078
FC0000FC
FC0000FC
FC0000FC
FC0000FC
FC0000FC
FC0000FC
FC0000FC
FC0000FC
FC0000FC
FC0000FC
FC0000FC
FC0000FC
FC0000FC
FC0000FC
FC0000FC
FC0000FC
FC0000FC
FC0000FC
FC0000FC
FC0000FC
FC0000FC
FC0000FC
FC0000FC
FC0000FC
FC0001FC
FE0001FC
FE0003FC
FE0003FC
FF0007FC
FF800FFC
FFE03FFC
FFFFFF7C
FFFFFF7C
FFFFFE7C
FFFFFC7C
FDFFF038
FC7F8000
FC000000
FC000000
FC000000
FC000000
FC000000
FC000000
FC000000
FC000000
FC000000
FC000000
FC000000
FC000000
FC000000
78000000
ENDCHAR
STARTCHAR paragraph
ENCODING 182
SWIDTH 600 0
DWIDTH 43 0
BBX 33 50 3 0
BITMAP
001FFFFF80
00FFFFFF80
03FFFFFF80
0FFFFFFF80
1FFFFFFF80
3FFFF81F80
3FFFF81F80
7FFFF81F80
7FFFF81F80
7FFFF81F80
FFFFF81F80
FFFFF81F80
FFFFF81F80
FFFFF81F80
FFFFF81F80
FFFFF81F80
FFFFF81F80
7FFFF81F80
7FFFF81F80
3FFFF81F80
3FFFF81F80
1FFFF81F80
0FFFF81F80
07FFF81F80
03FFF81F80
00FFF81F80
000FF81F80
0001F81F80
0001F81F80
0001F81F80
0001F81F80
0001F81F80
0001F81F80
0001F81F80
0001F81F80
0001F81F80
0001F81F80
0001F81F80
0001F81F80
0001F81F80
0001F81F80
0001F81F80
0001F81F80
0001F81F80
0001F81F80
0001F81F80
0001F81F80
0001F81F80
0001F81F80
0001F81F80
ENDCHAR
STARTCHAR periodcentered
ENCODING 183
SWIDTH 305 0
DWIDTH 22 0
BBX 8 8 7 14
BITMAP
3C
7E
FF
FF
FF
FF
7E
3C
ENDCHAR
STARTCHAR cedilla
ENCODING 184
SWIDTH 222 0
DWIDTH 16 0
BBX 18 15 0 -14
BITMAP
01C000
03C000
038000
038000
038000
07FC00
07FF00
01FF80
001F80
000FC0
400FC0
F01F80
FFFF80
7FFE00
0FF800
ENDCHAR
STARTCHAR onesuperior
ENCODING 185
SWIDTH 366 0
DWIDTH 26 0
BBX 17 31 4 20
BITMAP
01C000
3FE000
FFE000
FFE000
7FE000
03E000
03E000
03E000
03E000
03E000
03E000
03E000
03E000
03E000
03E000
03E000
03E000
03E000
03E000
03E000
03E000
03E000
03E000
03E000
03E000
03E000
03E000
7FFF80
FFFF80
FFFF80
7FFF00
ENDCHAR
STARTCHAR ordmasculine
ENCODING 186
SWIDTH 334 0
DWIDTH 24 0
BBX 22 23 1 28
BITMAP
00FC00
07FF80
0FFFC0
1FFFE0
3F03F0
7E01F8
7C00F8
F8007C
F8007C
F0003C
F0003C
F0003C
F0003C
F0003C
F8007C
F8007C
7C00F8
7E01F8
3F03F0
1FFFE0
0FFFC0
07FF80
01FC00
ENDCHAR
STARTCHAR guillemotright
ENCODING 187
SWIDTH 444 0
DWIDTH 32 0
BBX 24 28 5 4
BITMAP
700380
F807C0
F807C0
FC07E0
7E07E0
7E03F0
3F03F0
3F01F8
1F81FC
1F80FC
0FC0FE
0FC07E
07E07F
07F03F
07E07F
0FE07E
0FC0FE
1FC0FC
1F80FC
3F81F8
3F01F8
7E03F0
7E03F0
FC07E0
FC07E0
F807C0
F807C0
200300
ENDCHAR
STARTCHAR onequarter
ENCODING 188
SWIDTH 916 0
DWIDTH 66 0
BBX 58 52 4 -1
BITMAP
01C00000001C0000
3FE00000003C0000
FFE00000007E0000
FFE00000007C0000
7FE0000000FC0000
03E0000001F80000
03E0000001F80000
03E0000003F00000
03E0000007E00000
03E0000007E00000
03E000000FC00000
03E000001F800000
03E000001F800000
03E000003F000000
03E000007E000000
03E000007E000000
03E00000FC000000
03E00001F8000000
03E00001F8000000
03E00003F0000000
03E00007E0000000
03E00007E003F000
03E0000FC00FF800
03E0001F801FF800
03E0001F803FF800
03E0003F007EF800
03E0007E00FCF800
7FFF807E01F8F800
FFFF80FC03F0F800
FFFF81F807E0F800
7FFF01F80FC0F800
000003F00F80F800
000007E01F80F800
000007E01F00F800
00000FC03E00F800
00001F803E00F800
00003F003C00F800
00003F007C00F800
00007E007C00F800
0000FC007C00F800
0000FC007FFFFF80
0001F8007FFFFFC0
0003F0007FFFFFC0
0003F0007FFFFF80
0007E0000000F800
000FC0000000F800
000FC0000000F800
001F80000000F800
001F00000000F800
003F00000000F800
001E000000007000
001C000000000000
ENDCHAR
STARTCHAR onehalf
ENCODING 189
SWIDTH 916 0
DWIDTH 66 0
BBX 57 52 4 -1
BITMAP
03C0000000700000
7FC0000000F80000
FFC0000000F80000
FFC0000001F80000
FFC0000003F00000
07C0000003F00000
07C0000007E00000
07C000000FC00000
07C000000FC00000
07C000001F800000
07C000003F000000
07C000003E000000
07C000007E000000
07C00000FC000000
07C00000F8000000
07C00001F8000000
07C00003F0000000
07C00003E0000000
07C00007E0000000
07C0000FC0000000
07C0000F80000000
07C0001F8FFFE000
07C0003F0FFFF800
07C0003E0FFFFC00
07C0007E0FFFFE00
07C000FC0000FF00
07C001F800003F00
FFFF01F800001F00
FFFF03F000001F00
FFFF07E000001F00
FFFF07E000001F00
00000FC000003F00
00001F8000007E00
00001F800000FE00
00003F000003FC00
00007E000007F800
00007E00001FF000
0000FC00003FC000
0001F80000FF0000
0001F80001FC0000
0003F00007F80000
0007E00007E00000
0007E0000FC00000
000FC0001F800000
001F80001F000000
001F80001F000000
003F00001F000000
007E00001FFFFF80
007E00001FFFFF80
007C00001FFFFF80
007800000FFFFF00
0030000000000000
ENDCHAR
STARTCHAR threequarters
ENCODING 190
SWIDTH 916 0
DWIDTH 66 0
BBX 60 52 3 -1
BITMAP
0000000000070000
7FFFE00000078000
FFFFE000000F8000
FFFFE000001F8000
7FFFC000001F8000
001F8000003F0000
003F0000007E0000
00FC0000007E0000
03F8000000FC0000
07E0000001F80000
1FFE000003F80000
1FFF800003F00000
1FFFE00007E00000
007FF0000FE00000
0003F8000FC00000
0000FC001F800000
00007C003F000000
00007C003F000000
00003E007E000000
00003E00FC000000
00003E00FC000000
00003E01F8007C00
00003E03F001FE00
00007C03F003FE00
00007C07E00FFE00
0001FC0FC01FFE00
000FF80FC03FBE00
FFFFF01F807E3E00
FFFFE03F00FC3E00
FFFF803F00F83E00
FFFE007E01F03E00
000000FC03F03E00
000000FC03E03E00
000001F807C03E00
000003F007C03E00
000003F00F803E00
000007E00F803E00
00000FC00F803E00
00000FC01F003E00
00001F801F003E00
00003F001FFFFFE0
00003F001FFFFFF0
00007E001FFFFFF0
0000FC000FFFFFF0
0000FC0000003E00
0001F80000003E00
0003F00000003E00
0003F00000003E00
0007E00000003E00
0007C00000003E00
0007C00000001C00
0003800000000000
ENDCHAR
STARTCHAR questiondown
ENCODING 191
SWIDTH 500 0
DWIDTH 36 0
BBX 31 50 4 -14
BITMAP
00007800
0000FC00
0000FC00
0001FC00
0001FC00
0000FC00
0000FC00
00007800
00000000
00000000
00000000
00000000
00007000
0000F800
0000F800
0000F800
0001F800
0001F800
0001F800
0003F800
0007F800
000FF000
001FF000
007FE000
00FFC000
01FF8000
03FF0000
07FC0000
0FF80000
1FF00000
3FE00000
7FC00000
7F800000
7F000000
FE000000
FE000000
FE000000
FE000000
FE000000
FE000000
FE000000
FE000000
7F000000
7FC00000
3FFFFFF8
3FFFFFFC
1FFFFFFE
0FFFFFFE
03FFFFFC
007FFFF8
ENDCHAR
STARTCHAR Agrave
ENCODING 192
SWIDTH 667 0
DWIDTH 48 0
BBX 44 63 2 0
BITMAP
0003C0000000
0007F0000000
0007FE000000
000FFF800000
000FFFF00000
0003FFFC0000
00007FFF0000
000007FF0000
000000FF0000
0000000E0000
000000000000
000000000000
00000E000000
00001F800000
00007FC00000
0000FFC00000
0000FFE00000
0001FFF00000
0003FFF80000
0003FBF80000
0007F1FC0000
000FF1FC0000
000FE0FE0000
001FC07F0000
001FC07F0000
003F803F8000
003F803F8000
007F001FC000
007F001FC000
00FF000FE000
00FE0007E000
00FE0007F000
01FC0003F000
01FFC003F000
03FFFC03F800
03FFFF81F800
03FFFFE1FC00
07FFFFF0FC00
07FFFFFCFC00
07E01FFEFE00
0FE003FFFE00
0FE0007FFE00
0FC0001FFF00
1FC0000FFF00
1FC00003FF00
1F800001FF80
1F800000FF80
3F800000FF80
3F8000007FC0
3F0000003FC0
3F0000003FC0
7F0000001FC0
7F0000001FE0
7F0000001FE0
7E0000000FE0
7E0000000FE0
7E0000000FE0
FE0000000FE0
FE00000007F0
FE00000007F0
FE00000007F0
7C00000003E0
7C00000003E0
ENDCHAR
STARTCHAR Aacute
ENCODING 193
SWIDTH 667 0
DWIDTH 48 0
BBX 44 63 2 0
BITMAP
0000003E0000
000000FE0000
000007FE0000
00001FFF0000
0000FFFF0000
0003FFFC0000
000FFFE00000
000FFE000000
000FF0000000
000700000000
000000000000
000000000000
00000E000000
00001F800000
00007FC00000
0000FFC00000
0000FFE00000
0001FFF00000
0003FFF80000
0003FBF80000
0007F1FC0000
000FF1FC0000
000FE0FE0000
001FC07F0000
001FC07F0000
003F803F8000
003F803F8000
007F001FC000
007F001FC000
00FF000FE000
00FE0007E000
00FE0007F000
01FC0003F000
01FFC003F000
03FFFC03F800
03FFFF81F800
03FFFFE1FC00
07FFFFF0FC00
07FFFFFCFC00
07E01FFEFE00
0FE003FFFE00
0FE0007FFE00
0FC0001FFF00
1FC0000FFF00
1FC00003FF00
1F800001FF80
1F800000FF80
3F800000FF80
3F8000007FC0
3F0000003FC0
3F0000003FC0
7F0000001FC0
7F0000001FE0
7F0000001FE0
7E0000000FE0
7E0000000FE0
7E0000000FE0
FE0000000FE0
FE00000007F0
FE00000007F0
FE00000007F0
7C00000003E0
7C00000003E0
ENDCHAR
STARTCHAR Acircumflex
ENCODING 194
SWIDTH 667 0
DWIDTH 48 0
BBX 44 64 2 0
BITMAP
00000F000000
00001FC00000
00003FC00000
00007FE00000
0000FFF00000
0001F9F80000
0003F8FC0000
0007F0FE0000
000FE07F0000
000FC03F8000
001F800F8000
000000000000
000000000000
00000E000000
00001F800000
00007FC00000
0000FFC00000
0000FFE00000
0001FFF00000
0003FFF80000
0003FBF80000
0007F1FC0000
000FF1FC0000
000FE0FE0000
001FC07F0000
001FC07F0000
003F803F8000
003F803F8000
007F001FC000
007F001FC000
00FF000FE000
00FE0007E000
00FE0007F000
01FC0003F000
01FFC003F000
03FFFC03F800
03FFFF81F800
03FFFFE1FC00
07FFFFF0FC00
07FFFFFCFC00
07E01FFEFE00
0FE003FFFE00
0FE0007FFE00
0FC0001FFF00
1FC0000FFF00
1FC00003FF00
1F800001FF80
1F800000FF80
3F800000FF80
3F8000007FC0
3F0000003FC0
3F0000003FC0
7F0000001FC0
7F0000001FE0
7F0000001FE0
7E0000000FE0
7E0000000FE0
7E0000000FE0
FE0000000FE0
FE00000007F0
FE00000007F0
FE00000007F0
7C00000003E0
7C00000003E0
ENDCHAR
STARTCHAR Atilde
ENCODING 195
SWIDTH 667 0
DWIDTH 48 0
BBX 44 63 2 0
BITMAP
00000000C000
0003E000C000
0007FE01C000
000FFFC3C000
001FFFFFC000
003FFFFF8000
003C1FFF8000
003803FF0000
0030007C0000
000000000000
000000000000
000000000000
00000E000000
00001F800000
00007FC00000
0000FFC00000
0000FFE00000
0001FFF00000
0003FFF80000
0003FBF80000
0007F1FC0000
000FF1FC0000
000FE0FE0000
001FC07F0000
001FC07F0000
003F803F8000
003F803F8000
007F001FC000
007F001FC000
00FF000FE000
00FE0007E000
00FE0007F000
01FC0003F000
01FFC003F000
03FFFC03F800
03FFFF81F800
03FFFFE1FC00
07FFFFF0FC00
07FFFFFCFC00
07E01FFEFE00
0FE003FFFE00
0FE0007FFE00
0FC0001FFF00
1FC0000FFF00
1FC00003FF00
1F800001FF80
1F800000FF80
3F800000FF80
3F8000007FC0
3F0000003FC0
3F0000003FC0
7F0000001FC0
7F0000001FE0
7F0000001FE0
7E0000000FE0
7E0000000FE0
7E0000000FE0
FE0000000FE0
FE00000007F0
FE00000007F0
FE00000007F0
7C00000003E0
7C00000003E0
ENDCHAR
STARTCHAR Adieresis
ENCODING 196
SWIDTH 667 0
DWIDTH 48 0
BBX 44 62 2 0
BITMAP
0007000F0000
001F801F8000
001FC03F8000
003FC03FC000
003FC03FC000
001FC03F8000
001F801F8000
000F000F0000
000000000000
000000000000
000000000000
00000E000000
00001F800000
00007FC00000
0000FFC00000
0000FFE00000
0001FFF00000
0003FFF80000
0003FBF80000
0007F1FC0000
000FF1FC0000
000FE0FE0000
001FC07F0000
001FC07F0000
003F803F8000
003F803F8000
007F001FC000
007F001FC000
00FF000FE000
00FE0007E000
00FE0007F000
01FC0003F000
01FFC003F000
03FFFC03F800
03FFFF81F800
03FFFFE1FC00
07FFFFF0FC00
07FFFFFCFC00
07E01FFEFE00
0FE003FFFE00
0FE0007FFE00
0FC0001FFF00
1FC0000FFF00
1FC00003FF00
1F800001FF80
1F800000FF80
3F800000FF80
3F8000007FC0
3F0000003FC0
3F0000003FC0
7F0000001FC0
7F0000001FE0
7F0000001FE0
7E0000000FE0
7E0000000FE0
7E0000000FE0
FE0000000FE0
FE00000007F0
FE00000007F0
FE00000007F0
7C00000003E0
7C00000003E0
ENDCHAR
STARTCHAR Aring
ENCODING 197
SWIDTH 667 0
DWIDTH 48 0
BBX 44 67 2 0
BITMAP
00001FC00000
00003FE00000
00007FF00000
0000F8F80000
0001E0380000
0001E03C0000
0001E03C0000
0001E03C0000
0001E03C0000
0001E0380000
0000F8F80000
00007FF00000
00003FE00000
00001FC00000
000000000000
000000000000
00000E000000
00001F800000
00007FC00000
0000FFC00000
0000FFE00000
0001FFF00000
0003FFF80000
0003FBF80000
0007F1FC0000
000FF1FC0000
000FE0FE0000
001FC07F0000
001FC07F0000
003F803F8000
003F803F8000
007F001FC000
007F001FC000
00FF000FE000
00FE0007E000
00FE0007F000
01FC0003F000
01FFC003F000
03FFFC03F800
03FFFF81F800
03FFFFE1FC00
07FFFFF0FC00
07FFFFFCFC00
07E01FFEFE00
0FE003FFFE00
0FE0007FFE00
0FC0001FFF00
1FC0000FFF00
1FC00003FF00
1F800001FF80
1F800000FF80
3F800000FF80
3F8000007FC0
3F0000003FC0
3F0000003FC0
7F0000001FC0
7F0000001FE0
7F0000001FE0
7E0000000FE0
7E0000000FE0
7E0000000FE0
FE0000000FE0
FE00000007F0
FE00000007F0
FE00000007F0
7C00000003E0
7C00000003E0
ENDCHAR
STARTCHAR AE
ENCODING 198
SWIDTH 944 0
DWIDTH 68 0
BBX 64 50 1 0
BITMAP
000000007FFFFFFE
00000001FFFFFFFF
00000007FFFFFFFF
0000001FFFFFFFFF
0000003FFFFFFFFF
000000FFFFFFFFFE
000001FFBF800000
000003FE3F800000
000007FC3F800000
00000FF83F800000
00001FE03F800000
00003FC03F800000
00007F803F800000
00007F003F80FFF8
0000FE003FFFFFFC
0001FC003FFFFFFE
0003FC01FFFFFFFE
0003F807FFFFFFFC
0007F03FFFFFFFF8
000FE0FFFFFE0000
000FC3FFFF800000
001FC7FFBF800000
003F9FFE3F800000
003F3FF03F800000
007F7FC03F800000
007EFF003F800000
00FDFC003F800000
00FFF8003F800000
01FFE0003F800000
03FFC0003F800000
03FF80003F800000
07FF00003F800000
07FE00003F800000
07FC00003F800000
0FF800003F800000
0FF000003F800000
1FE000003F800000
1FE000003F800000
3FC000003F800000
3F8000003F800000
3F8000003F800000
7F0000003F800000
7F0000003F800000
7E0000003F800000
FE0000003FFFFFFE
FE0000003FFFFFFF
FC0000003FFFFFFF
FC0000003FFFFFFF
F80000001FFFFFFF
700000001FFFFFFE
ENDCHAR
STARTCHAR Ccedilla
ENCODING 199
SWIDTH 611 0
DWIDTH 44 0
BBX 39 64 3 -14
BITMAP
0003FFFFF0
001FFFFFF8
007FFFFFFC
01FFFFFFFC
03FFFFFFF8
07FFFFFFF0
0FFF800000
0FFC000000
1FF0000000
3FE0000000
3FC0000000
7F80000000
7F80000000
7F00000000
FF00000000
FF00000000
FE00000000
FE00000000
FE00000000
FE00000000
FE00000000
FE00000000
FE00000000
FE00000000
FE00000000
FE00000000
7F00000000
7F00000000
7F00000000
7F80000000
3F80000000
3F80000000
3FC0000000
1FE0000000
1FE0000000
0FF0000000
07F8000000
07FC000000
03FE000000
01FF000000
01FFC00000
00FFF00000
007FFC0000
001FFF8000
000FFFF800
0007FFFFFC
0001FFFFFE
0000FFFFFE
00001FFFFE
000007FFFE
000003FFF8
0000078000
0000070000
0000070000
000007F800
00000FFE00
000003FF00
0000003F80
0000001F80
0000801F80
0001E03F00
0001FFFF00
00007FFE00
00000FF000
ENDCHAR
STARTCHAR Egrave
ENCODING 200
SWIDTH 556 0
DWIDTH 40 0
BBX 32 63 5 0
BITMAP
00800000
01F00000
03FE0000
03FF8000
03FFF000
03FFFE00
007FFF80
000FFF80
0000FF80
00001F80
00000100
00000000
00000000
7FFFFFFE
7FFFFFFF
FFFFFFFF
FFFFFFFF
FFFFFFFF
FFFFFFFE
FE000000
FE000000
FE000000
FE000000
FE000000
FE000000
FFFFFFFC
FFFFFFFE
FFFFFFFF
FFFFFFFF
FFFFFFFE
FFFFFFFC
FE000000
FE000000
FE000000
FE000000
FE000000
FE000000
FE000000
FE000000
FE000000
FE000000
FE000000
FE000000
FE000000
FE000000
FE000000
FE000000
FE000000
FE000000
FE000000
FE000000
FE000000
FE000000
FE000000
FE000000
FE000000
FE000000
FFFFFFFE
FFFFFFFF
FFFFFFFF
FFFFFFFF
7FFFFFFF
7FFFFFFE
ENDCHAR
STARTCHAR Eacute
ENCODING 201
SWIDTH 556 0
DWIDTH 40 0
BBX 32 63 5 0
BITMAP
00000200
00001F00
0000FF80
0007FF80
001FFF80
00FFFF80
03FFFC00
03FFE000
03FE0000
03F00000
01000000
00000000
00000000
7FFFFFFE
7FFFFFFF
FFFFFFFF
FFFFFFFF
FFFFFFFF
FFFFFFFE
FE000000
FE000000
FE000000
FE000000
FE000000
FE000000
FFFFFFFC
FFFFFFFE
FFFFFFFF
FFFFFFFF
FFFFFFFE
FFFFFFFC
FE000000
FE000000
FE000000
FE000000
FE000000
FE000000
FE000000
FE000000
FE000000
FE000000
FE000000
FE000000
FE000000
FE000000
FE000000
FE000000
FE000000
FE000000
FE000000
FE000000
FE000000
FE000000
FE000000
FE000000
FE000000
FE000000
FFFFFFFE
FFFFFFFF
FFFFFFFF
FFFFFFFF
7FFFFFFF
7FFFFFFE
ENDCHAR
STARTCHAR Ecircumflex
ENCODING 202
SWIDTH 556 0
DWIDTH 40 0
BBX 32 63 5 0
BITMAP
0007C000
000FE000
001FF000
003FF800
007EFC00
00FEFE00
01FC7F00
01F83F00
03F01F80
07E00FC0
07C007C0
00000000
00000000
7FFFFFFE
7FFFFFFF
FFFFFFFF
FFFFFFFF
FFFFFFFF
FFFFFFFE
FE000000
FE000000
FE000000
FE000000
FE000000
FE000000
FFFFFFFC
FFFFFFFE
FFFFFFFF
FFFFFFFF
FFFFFFFE
FFFFFFFC
FE000000
FE000000
FE000000
FE000000
FE000000
FE000000
FE000000
FE000000
FE000000
FE000000
FE000000
FE000000
FE000000
FE000000
FE000000
FE000000
FE000000
FE000000
FE000000
FE000000
FE000000
FE000000
FE000000
FE000000
FE000000
FE000000
FFFFFFFE
FFFFFFFF
FFFFFFFF
FFFFFFFF
7FFFFFFF
7FFFFFFE
ENDCHAR
STARTCHAR Edieresis
ENCODING 203
SWIDTH 556 0
DWIDTH 40 0
BBX 32 61 5 0
BITMAP
03C00780
07E00FC0
0FE00FE0
0FF01FE0
0FF01FE0
0FE00FE0
07E00FC0
03800780
00000000
00000000
00000000
7FFFFFFE
7FFFFFFF
FFFFFFFF
FFFFFFFF
FFFFFFFF
FFFFFFFE
FE000000
FE000000
FE000000
FE000000
FE000000
FE000000
FFFFFFFC
FFFFFFFE
FFFFFFFF
FFFFFFFF
FFFFFFFE
FFFFFFFC
FE000000
FE000000
FE000000
FE000000
FE000000
FE000000
FE000000
FE000000
FE000000
FE000000
FE000000
FE000000
FE000000
FE000000
FE000000
FE000000
FE000000
FE000000
FE000000
FE000000
FE000000
FE000000
FE000000
FE000000
FE000000
FE000000
FFFFFFFE
FFFFFFFF
FFFFFFFF
FFFFFFFF
7FFFFFFF
7FFFFFFE
ENDCHAR
STARTCHAR Igrave
ENCODING 204
SWIDTH 222 0
DWIDTH 16 0
BBX 20 62 -2 0
BITMAP
7C0000
7F8000
FFE000
FFFC00
7FFF80
3FFFE0
03FFF0
007FF0
0007E0
0000E0
000000
000000
00F000
01F800
01F800
01F800
01F800
01F800
01F800
01F800
01F800
01F800
01F800
01F800
01F800
01F800
01F800
01F800
01F800
01F800
01F800
01F800
01F800
01F800
01F800
01F800
01F800
01F800
01F800
01F800
01F800
01F800
01F800
01F800
01F800
01F800
01F800
01F800
01F800
01F800
01F800
01F800
01F800
01F800
01F800
01F800
01F800
01F800
01F800
01F800
01F800
00F000
ENDCHAR
STARTCHAR Iacute
ENCODING 205
SWIDTH 222 0
DWIDTH 16 0
BBX 20 62 -2 0
BITMAP
0003E0
001FE0
007FE0
03FFF0
1FFFE0
7FFFC0
FFFC00
FFE000
7E0000
700000
000000
000000
00F000
01F800
01F800
01F800
01F800
01F800
01F800
01F800
01F800
01F800
01F800
01F800
01F800
01F800
01F800
01F800
01F800
01F800
01F800
01F800
01F800
01F800
01F800
01F800
01F800
01F800
01F800
01F800
01F800
01F800
01F800
01F800
01F800
01F800
01F800
01F800
01F800
01F800
01F800
01F800
01F800
01F800
01F800
01F800
01F800
01F800
01F800
01F800
01F800
00F000
ENDCHAR
STARTCHAR Icircumflex
ENCODING 206
SWIDTH 222 0
DWIDTH 16 0
BBX 22 63 -3 0
BITMAP
00FC00
01FE00
01FF00
03FF00
07FF80
0FCFC0
1F87E0
3F83F0
7F03F8
FE01FC
F8007C
000000
000000
007800
00FC00
00FC00
00FC00
00FC00
00FC00
00FC00
00FC00
00FC00
00FC00
00FC00
00FC00
00FC00
00FC00
00FC00
00FC00
00FC00
00FC00
00FC00
00FC00
00FC00
00FC00
00FC00
00FC00
00FC00
00FC00
00FC00
00FC00
00FC00
00FC00
00FC00
00FC00
00FC00
00FC00
00FC00
00FC00
00FC00
00FC00
00FC00
00FC00
00FC00
00FC00
00FC00
00FC00
00FC00
00FC00
00FC00
00FC00
00FC00
007800
ENDCHAR
STARTCHAR Idieresis
ENCODING 207
SWIDTH 222 0
DWIDTH 16 0
BBX 24 61 -4 0
BITMAP
3C0038
7E007E
7F00FE
FF00FF
FF00FF
7F00FE
7E007E
3C003C
000000
000000
000000
003C00
007E00
007E00
007E00
007E00
007E00
007E00
007E00
007E00
007E00
007E00
007E00
007E00
007E00
007E00
007E00
007E00
007E00
007E00
007E00
007E00
007E00
007E00
007E00
007E00
007E00
007E00
007E00
007E00
007E00
007E00
007E00
007E00
007E00
007E00
007E00
007E00
007E00
007E00
007E00
007E00
007E00
007E00
007E00
007E00
007E00
007E00
007E00
007E00
003C00
ENDCHAR
STARTCHAR Eth
ENCODING 208
SWIDTH 667 0
DWIDTH 48 0
BBX 45 51 0 0
BITMAP
01FFC0000000
03FFFE000000
07FFFFC00000
07FFFFF00000
07FFFFFC0000
07FFFFFE0000
07F1FFFF8000
07F007FFC000
07F001FFE000
07F0003FF800
07F0001FFC00
07F00007FC00
07F00003FE00
07F00001FF00
07F00000FF80
07F000007F80
07F000003FC0
07F000003FC0
07F000001FE0
07F000000FE0
07F000000FE0
7FFFFF0007F0
FFFFFF8007F0
FFFFFF8007F0
FFFFFF8007F0
FFFFFF8003F8
7FFFFF0003F8
07F0000003F8
07F0000003F8
07F0000003F8
07F0000003F8
07F0000003F8
07F0000003F8
07F0000003F8
07F0000003F8
07F0000003F8
07F0000007F0
07F0000007F0
07F0000007F0
07F000000FE0
07F000000FE0
07F000001FE0
07F000003FC0
07F00000FF80
07F00007FF80
07FFFFFFFF00
07FFFFFFFE00
07FFFFFFF800
07FFFFFFF000
07FFFFFFC000
03FFFFFC0000
ENDCHAR
STARTCHAR Ntilde
ENCODING 209
SWIDTH 611 0
DWIDTH 44 0
BBX 34 63 5 0
BITMAP
0000000800
001C001800
007FC03800
00FFF87800
01FFFFF800
03FFFFF000
07FFFFF000
0783FFE000
07003F8000
0600000000
0000000000
0000000000
0000000000
3C00000780
7E00000F80
FF00000FC0
FF80000FC0
FFC0000FC0
FFE0000FC0
FFF0000FC0
FFF8000FC0
FFFC000FC0
FDFE000FC0
FCFF000FC0
FCFF800FC0
FC7FE00FC0
FC3FF00FC0
FC1FFC0FC0
FC0FFF8FC0
FC03FFFFC0
FC01FFFFC0
FC007FFFC0
FC001FFFC0
FC0003FFC0
FC00001FC0
FC00000FC0
FC00000FC0
FC00000FC0
FC00000FC0
FC00000FC0
FC00000FC0
FC00000FC0
FC00000FC0
FC00000FC0
FC00000FC0
FC00000FC0
FC00000FC0
FC00000FC0
FC00000FC0
FC00000FC0
FC00000FC0
FC00000FC0
FC00000FC0
FC00000FC0
FC00000FC0
FC00000FC0
FC00000FC0
FC00000FC0
FC00000FC0
FC00000FC0
FC00000FC0
FC00000F80
7800000780
ENDCHAR
STARTCHAR Ograve
ENCODING 210
SWIDTH 722 0
DWIDTH 52 0
BBX 46 64 3 -1
BITMAP
0003E0000000
0003F8000000
0003FF000000
0007FFC00000
0007FFF80000
0001FFFE0000
00003FFF8000
000003FF8000
0000007F8000
000000070000
000000000000
000000000000
00003FE00000
0001FFFE0000
0007FFFF8000
001FFFFFE000
003FFFFFF000
007FFFFFF800
00FFE01FFC00
01FF8007FE00
03FE0001FF00
07FC0000FF80
0FF800007F80
0FF000003FC0
1FE000001FE0
1FC000000FE0
3FC000000FF0
3F80000007F0
7F80000007F0
7F00000007F8
7F00000003F8
7F00000003F8
FF00000003FC
FE00000001FC
FE00000001FC
FE00000001FC
FE00000001FC
FE00000001FC
FE00000001FC
FE00000001FC
FE00000001FC
FE00000001FC
FE00000001FC
FF00000003FC
7F00000003F8
7F00000003F8
7F00000007F8
7F80000007F8
3F80000007F0
3FC000000FF0
1FC000000FE0
1FE000001FE0
0FF000003FC0
0FF800007FC0
07FC0000FF80
03FE0001FF00
01FF0007FE00
01FFE01FFC00
00FFFFFFF800
003FFFFFF000
001FFFFFE000
0007FFFF8000
0001FFFE0000
00003FF00000
ENDCHAR
STARTCHAR Oacute
ENCODING 211
SWIDTH 722 0
DWIDTH 52 0
BBX 46 64 3 -1
BITMAP
0000001E0000
0000007F0000
000003FF0000
00000FFF8000
00007FFF8000
0001FFFE0000
0007FFF00000
0007FF000000
0007F8000000
000380000000
000000000000
000000000000
00003FE00000
0001FFFE0000
0007FFFF8000
001FFFFFE000
003FFFFFF000
007FFFFFF800
00FFE01FFC00
01FF8007FE00
03FE0001FF00
07FC0000FF80
0FF800007F80
0FF000003FC0
1FE000001FE0
1FC000000FE0
3FC000000FF0
3F80000007F0
7F80000007F0
7F00000007F8
7F00000003F8
7F00000003F8
FF00000003FC
FE00000001FC
FE00000001FC
FE00000001FC
FE00000001FC
FE00000001FC
FE00000001FC
FE00000001FC
FE00000001FC
FE00000001FC
FE00000001FC
FF00000003FC
7F00000003F8
7F00000003F8
7F00000007F8
7F80000007F8
3F80000007F0
3FC000000FF0
1FC000000FE0
1FE000001FE0
0FF000003FC0
0FF800007FC0
07FC0000FF80
03FE0001FF00
01FF0007FE00
01FFE01FFC00
00FFFFFFF800
003FFFFFF000
001FFFFFE000
0007FFFF8000
0001FFFE0000
00003FF00000
ENDCHAR
STARTCHAR Ocircumflex
ENCODING 212
SWIDTH 722 0
DWIDTH 52 0
BBX 46 65 3 -1
BITMAP
000007800000
00000FC00000
00001FE00000
00003FF00000
00007FF80000
0000FCFC0000
0001F87E0000
0003F87F0000
0007F03F8000
000FE01FC000
000FC00FC000
000000000000
000000000000
00003FE00000
0001FFFE0000
0007FFFF8000
001FFFFFE000
003FFFFFF000
007FFFFFF800
00FFE01FFC00
01FF8007FE00
03FE0001FF00
07FC0000FF80
0FF800007F80
0FF000003FC0
1FE000001FE0
1FC000000FE0
3FC000000FF0
3F80000007F0
7F80000007F0
7F00000007F8
7F00000003F8
7F00000003F8
FF00000003FC
FE00000001FC
FE00000001FC
FE00000001FC
FE00000001FC
FE00000001FC
FE00000001FC
FE00000001FC
FE00000001FC
FE00000001FC
FE00000001FC
FF00000003FC
7F00000003F8
7F00000003F8
7F00000007F8
7F80000007F8
3F80000007F0
3FC000000FF0
1FC000000FE0
1FE000001FE0
0FF000003FC0
0FF800007FC0
07FC0000FF80
03FE0001FF00
01FF0007FE00
01FFE01FFC00
00FFFFFFF800
003FFFFFF000
001FFFFFE000
0007FFFF8000
0001FFFE0000
00003FF00000
ENDCHAR
STARTCHAR Otilde
ENCODING 213
SWIDTH 722 0
DWIDTH 52 0
BBX 46 64 3 -1
BITMAP
000000006000
0001F0006000
0003FF00E000
0007FFE1E000
000FFFFFE000
001FFFFFC000
001E0FFFC000
001C01FF8000
0018003E0000
000000000000
000000000000
000000000000
00003FE00000
0001FFFE0000
0007FFFF8000
001FFFFFE000
003FFFFFF000
007FFFFFF800
00FFE01FFC00
01FF8007FE00
03FE0001FF00
07FC0000FF80
0FF800007F80
0FF000003FC0
1FE000001FE0
1FC000000FE0
3FC000000FF0
3F80000007F0
7F80000007F0
7F00000007F8
7F00000003F8
7F00000003F8
FF00000003FC
FE00000001FC
FE00000001FC
FE00000001FC
FE00000001FC
FE00000001FC
FE00000001FC
FE00000001FC
FE00000001FC
FE00000001FC
FE00000001FC
FF00000003FC
7F00000003F8
7F00000003F8
7F00000007F8
7F80000007F8
3F80000007F0
3FC000000FF0
1FC000000FE0
1FE000001FE0
0FF000003FC0
0FF800007FC0
07FC0000FF80
03FE0001FF00
01FF0007FE00
01FFE01FFC00
00FFFFFFF800
003FFFFFF000
001FFFFFE000
0007FFFF8000
0001FFFE0000
00003FF00000
ENDCHAR
STARTCHAR Odieresis
ENCODING 214
SWIDTH 722 0
DWIDTH 52 0
BBX 46 63 3 -1
BITMAP
000780070000
000FC00FC000
000FE01FC000
001FE01FE000
001FE01FE000
000FE01FC000
000FC00FC000
000780078000
000000000000
000000000000
000000000000
00003FE00000
0001FFFE0000
0007FFFF8000
001FFFFFE000
003FFFFFF000
007FFFFFF800
00FFE01FFC00
01FF8007FE00
03FE0001FF00
07FC0000FF80
0FF800007F80
0FF000003FC0
1FE000001FE0
1FC000000FE0
3FC000000FF0
3F80000007F0
7F80000007F0
7F00000007F8
7F00000003F8
7F00000003F8
FF00000003FC
FE00000001FC
FE00000001FC
FE00000001FC
FE00000001FC
FE00000001FC
FE00000001FC
FE00000001FC
FE00000001FC
FE00000001FC
FE00000001FC
FF00000003FC
7F00000003F8
7F00000003F8
7F00000007F8
7F80000007F8
3F80000007F0
3FC000000FF0
1FC000000FE0
1FE000001FE0
0FF000003FC0
0FF800007FC0
07FC0000FF80
03FE0001FF00
01FF0007FE00
01FFE01FFC00
00FFFFFFF800
003FFFFFF000
001FFFFFE000
0007FFFF8000
0001FFFE0000
00003FF00000
ENDCHAR
STARTCHAR multiply
ENCODING 215
SWIDTH 600 0
DWIDTH 43 0
BBX 36 37 4 0
BITMAP
1000000100
3800000380
7C000007C0
FE00000FE0
FF00001FF0
7F80003FE0
3FC0007FC0
1FE000FF80
0FF001FF00
0FF803FE00
07FC07FC00
03FE0FF800
01FF1FF000
00FFBFE000
007FFFC000
003FFF8000
001FFF0000
000FFE0000
0007FC0000
000FFE0000
001FFF0000
003FFF8000
007FFFC000
00FFBFE000
01FF1FF000
03FE0FF800
03FC07FC00
07F803FE00
0FF001FF00
1FE000FF80
3FC0007FC0
7F80003FE0
FF00001FF0
FE00000FE0
7C000007C0
3800000380
1000000100
ENDCHAR
STARTCHAR Oslash
ENCODING 216
SWIDTH 722 0
DWIDTH 52 0
BBX 46 64 3 -8
BITMAP
000000003800
000000003C00
000000007C00
000000007C00
00000000FC00
00003FE0F800
0001FFFFF800
0007FFFFF000
001FFFFFF000
003FFFFFF000
007FFFFFF800
00FFE01FFC00
01FF800FFE00
03FE000FFF00
07FC001FFF80
0FF8001F7FC0
0FF0001F3FC0
1FE0003E1FE0
1FC0003E0FE0
3FC0007E0FF0
3F80007C07F0
7F8000FC07F0
7F0000F803F8
7F0001F803F8
7F0001F003F8
FF0003F003FC
FE0003E001FC
FE0007E001FC
FE0007C001FC
FE0007C001FC
FE000F8001FC
FE000F8001FC
FE001F8001FC
FE001F0001FC
FE003F0001FC
FE003E0001FC
FF007E0003FC
7F007C0003F8
7F00FC0003F8
7F00F80007F8
7F81F80007F8
3F81F00007F0
3FC1F0000FF0
1FC3E0000FE0
1FE3E0001FE0
0FF7E0003FC0
0FFFC0007FC0
07FFC000FF80
03FF8001FF00
03FF8007FE00
01FFE01FFC00
00FFFFFFF800
003FFFFFF000
007FFFFFE000
007FFFFF8000
00FDFFFE0000
00F83FF00000
00F800000000
01F000000000
01F000000000
03F000000000
03E000000000
03E000000000
01C000000000
ENDCHAR
STARTCHAR Ugrave
ENCODING 217
SWIDTH 611 0
DWIDTH 44 0
BBX 38 63 3 -1
BITMAP
003E000000
003FC00000
003FF00000
007FFE0000
003FFFC000
001FFFF000
0001FFF800
00003FF800
000003F000
0000007000
0000000000
0000000000
0700000380
0F800007C0
0FC0000FC0
1F80000FE0
1F80000FE0
1F800007E0
1F800007E0
1F800007E0
1F800007E0
1F800007E0
3F800007E0
3F000007F0
3F000003F0
3F000003F0
3F000003F0
3F000003F0
3F000003F0
3F000003F0
7E000003F8
7E000001F8
7E000001F8
7E000001F8
7E000001F8
7E000001F8
7E000001F8
FE000001F8
FC000001FC
FC000000FC
FC000000FC
FC000000FC
FC000000FC
FC000000FC
FC000000FC
FC000000FC
FC000000FC
FC000000FC
FE000001FC
FE000001FC
FE000003FC
FF000003F8
7F800007F8
7FC0000FF8
3FE0001FF0
1FF8007FE0
1FFF03FFE0
0FFFFFFFC0
07FFFFFF00
01FFFFFE00
00FFFFF800
001FFFE000
0003FF0000
ENDCHAR
STARTCHAR Uacute
ENCODING 218
SWIDTH 611 0
DWIDTH 44 0
BBX 38 63 3 -1
BITMAP
000001F000
00000FF000
00003FF800
0001FFF800
000FFFF000
003FFFE000
007FFE0000
007FF00000
003F000000
0038000000
0000000000
0000000000
0700000380
0F800007C0
0FC0000FC0
1F80000FE0
1F80000FE0
1F800007E0
1F800007E0
1F800007E0
1F800007E0
1F800007E0
3F800007E0
3F000007F0
3F000003F0
3F000003F0
3F000003F0
3F000003F0
3F000003F0
3F000003F0
7E000003F8
7E000001F8
7E000001F8
7E000001F8
7E000001F8
7E000001F8
7E000001F8
FE000001F8
FC000001FC
FC000000FC
FC000000FC
FC000000FC
FC000000FC
FC000000FC
FC000000FC
FC000000FC
FC000000FC
FC000000FC
FE000001FC
FE000001FC
FE000003FC
FF000003F8
7F800007F8
7FC0000FF8
3FE0001FF0
1FF8007FE0
1FFF03FFE0
0FFFFFFFC0
07FFFFFF00
01FFFFFE00
00FFFFF800
001FFFE000
0003FF0000
ENDCHAR
STARTCHAR Ucircumflex
ENCODING 219
SWIDTH 611 0
DWIDTH 44 0
BBX 38 64 3 -1
BITMAP
00007C0000
0000FE0000
0001FF0000
0003FF0000
0007FF8000
000FCFC000
001F87E000
003F83F000
007F01F800
00FE00FC00
00F8007C00
0000000000
0000000000
0700000380
0F800007C0
0FC0000FC0
1F80000FE0
1F80000FE0
1F800007E0
1F800007E0
1F800007E0
1F800007E0
1F800007E0
3F800007E0
3F000007F0
3F000003F0
3F000003F0
3F000003F0
3F000003F0
3F000003F0
3F000003F0
7E000003F8
7E000001F8
7E000001F8
7E000001F8
7E000001F8
7E000001F8
7E000001F8
FE000001F8
FC000001FC
FC000000FC
FC000000FC
FC000000FC
FC000000FC
FC000000FC
FC000000FC
FC000000FC
FC000000FC
FC000000FC
FE000001FC
FE000001FC
FE000003FC
FF000003F8
7F800007F8
7FC0000FF8
3FE0001FF0
1FF8007FE0
1FFF03FFE0
0FFFFFFFC0
07FFFFFF00
01FFFFFE00
00FFFFF800
001FFFE000
0003FF0000
ENDCHAR
STARTCHAR Udieresis
ENCODING 220
SWIDTH 611 0
DWIDTH 44 0
BBX 38 62 3 -1
BITMAP
0078007000
00FC00FC00
00FE01FC00
01FE01FE00
01FE01FE00
00FE01FC00
00FC00FC00
0078007800
0000000000
0000000000
0000000000
0700000380
0F800007C0
0FC0000FC0
1F80000FE0
1F80000FE0
1F800007E0
1F800007E0
1F800007E0
1F800007E0
1F800007E0
3F800007E0
3F000007F0
3F000003F0
3F000003F0
3F000003F0
3F000003F0
3F000003F0
3F000003F0
7E000003F8
7E000001F8
7E000001F8
7E000001F8
7E000001F8
7E000001F8
7E000001F8
FE000001F8
FC000001FC
FC000000FC
FC000000FC
FC000000FC
FC000000FC
FC000000FC
FC000000FC
FC000000FC
FC000000FC
FC000000FC
FE000001FC
FE000001FC
FE000003FC
FF000003F8
7F800007F8
7FC0000FF8
3FE0001FF0
1FF8007FE0
1FFF03FFE0
0FFFFFFFC0
07FFFFFF00
01FFFFFE00
00FFFFF800
001FFFE000
0003FF0000
ENDCHAR
STARTCHAR Yacute
ENCODING 221
SWIDTH 556 0
DWIDTH 40 0
BBX 36 62 2 0
BITMAP
000001F000
00000FF000
00007FF000
0001FFF800
000FFFF000
003FFFE000
007FFE0000
007FE00000
007F000000
0030000000
0000000000
0000000000
78000001E0
FC000003F0
FC000003F0
FE000007F0
FE000007F0
FE000007F0
7F00000FE0
7F00000FE0
7F00000FE0
3F80001FC0
3F80001FC0
1FC0003F80
1FE0007F80
0FE0007F00
0FF000FF00
07F801FE00
03F801FC00
03FC03FC00
01FE07F800
00FF0FF000
00FFFFF000
007FFFE000
003FFFC000
001FFF8000
0007FF0000
0003FC0000
0001F80000
0001F80000
0001F80000
0001F80000
0001F80000
0001F80000
0001F80000
0001F80000
0001F80000
0001F80000
0001F80000
0001F80000
0001F80000
0001F80000
0001F80000
0001F80000
0001F80000
0001F80000
0001F80000
0001F80000
0001F80000
0001F80000
0001F80000
0000F00000
ENDCHAR
STARTCHAR Thorn
ENCODING 222
SWIDTH 556 0
DWIDTH 40 0
BBX 34 50 6 0
BITMAP
7800000000
FC00000000
FC00000000
FC00000000
FC00000000
FC00000000
FC00000000
FC00000000
FC00000000
FFFFFFE000
FFFFFFFC00
FFFFFFFE00
FFFFFFFF00
FFFFFFFF80
FFFFFFFF80
FC00007FC0
FC00003FC0
FC00001FC0
FC00001FC0
FC00001FC0
FC00003FC0
FC00003F80
FC00007F80
FC0000FF00
FC0003FF00
FC000FFE00
FC003FFC00
FC01FFF800
FC1FFFE000
FCFFFFC000
FFFFFF0000
FFFFFC0000
FFFFE00000
FFFF000000
FFF8000000
FF80000000
FC00000000
FC00000000
FC00000000
FC00000000
FC00000000
FC00000000
FC00000000
FC00000000
FC00000000
FC00000000
FC00000000
FC00000000
FC00000000
7800000000
ENDCHAR
STARTCHAR germandbls
ENCODING 223
SWIDTH 556 0
DWIDTH 40 0
BBX 37 50 2 0
BITMAP
000FF80000
007FFF0000
01FFFFC000
03FFFFE000
07FFFFE000
07FFFFF000
07F007F000
0FE003F000
0FE003F000
0FE007F000
0FE00FE000
0FE03FE000
7FE07FC000
FFE0FF8000
FFE3FF0000
FFE7FE0000
FFE7F80000
7FEFF00000
0FEFE00000
0FEFC00000
0FEFC00000
0FEFC00000
0FEFF80000
0FEFFE0000
0FE7FFC000
0FE3FFF000
0FE1FFFE00
0FE07FFF00
0FE00FFFC0
0FE001FFE0
0FE0003FE0
0FE0001FF0
0FE00007F0
0FE00007F0
0FE00003F8
0FE00003F8
0FE00003F8
0FE00003F8
0FE00003F0
0FE00003F0
0FE00007F0
0FE0000FF0
0FE0001FE0
0FE0007FE0
0FFFFFFFC0
0FFFFFFF80
0FFFFFFF00
0FFFFFFE00
0FFFFFF800
07FFFFC000
ENDCHAR
STARTCHAR agrave
ENCODING 224
SWIDTH 500 0
DWIDTH 36 0
BBX 31 53 1 -1
BITMAP
00400000
00F80000
01FF0000
01FFC000
01FFF800
01FFFE00
007FFFC0
0007FFC0
0000FFC0
00000FC0
00000080
00000000
00000000
00000000
00000000
0FFFFE00
1FFFFFC0
1FFFFFE0
1FFFFFF0
1FFFFFF8
0FFFFFF8
000003FC
000000FC
000000FC
000000FC
000000FE
000000FE
00001FFE
0007FFFE
007FFFFE
01FFFFFE
07FFFFFE
0FFFC0FE
1FFC00FE
3FE000FE
7FC000FE
7F0000FE
7F0000FE
FE0000FE
FE0000FE
FE0000FE
FC0000FE
FC0000FE
FE0000FE
FE0001FE
7F0003FE
7F8007FE
3FE01FFE
3FFFFFFE
1FFFFF7E
0FFFFE7C
03FFF838
007FC000
ENDCHAR
STARTCHAR aacute
ENCODING 225
SWIDTH 500 0
DWIDTH 36 0
BBX 31 52 1 -1
BITMAP
00000F80
00007FC0
0001FFC0
000FFFC0
003FFFC0
00FFFF00
01FFF000
01FF8000
01F80000
00C00000
00000000
00000000
00000000
00000000
0FFFFE00
1FFFFFC0
1FFFFFE0
1FFFFFF0
1FFFFFF8
0FFFFFF8
000003FC
000000FC
000000FC
000000FC
000000FE
000000FE
00001FFE
0007FFFE
007FFFFE
01FFFFFE
07FFFFFE
0FFFC0FE
1FFC00FE
3FE000FE
7FC000FE
7F0000FE
7F0000FE
FE0000FE
FE0000FE
FE0000FE
FC0000FE
FC0000FE
FE0000FE
FE0001FE
7F0003FE
7F8007FE
3FE01FFE
3FFFFFFE
1FFFFF7E
0FFFFE7C
03FFF838
007FC000
ENDCHAR
STARTCHAR acircumflex
ENCODING 226
SWIDTH 500 0
DWIDTH 36 0
BBX 31 53 1 -1
BITMAP
0003E000
0007F000
000FF800
001FFC00
003F7E00
007F3F00
007E3F80
00FC1FC0
01F80FC0
03F007E0
03E003E0
00000000
00000000
00000000
00000000
0FFFFE00
1FFFFFC0
1FFFFFE0
1FFFFFF0
1FFFFFF8
0FFFFFF8
000003FC
000000FC
000000FC
000000FC
000000FE
000000FE
00001FFE
0007FFFE
007FFFFE
01FFFFFE
07FFFFFE
0FFFC0FE
1FFC00FE
3FE000FE
7FC000FE
7F0000FE
7F0000FE
FE0000FE
FE0000FE
FE0000FE
FC0000FE
FC0000FE
FE0000FE
FE0001FE
7F0003FE
7F8007FE
3FE01FFE
3FFFFFFE
1FFFFF7E
0FFFFE7C
03FFF838
007FC000
ENDCHAR
STARTCHAR atilde
ENCODING 227
SWIDTH 500 0
DWIDTH 36 0
BBX 31 53 1 -1
BITMAP
00000010
00780038
01FF8038
03FFF078
03FFFFF0
07FFFFF0
0787FFE0
0F00FFC0
0E001F80
04000000
00000000
00000000
00000000
00000000
00000000
0FFFFE00
1FFFFFC0
1FFFFFE0
1FFFFFF0
1FFFFFF8
0FFFFFF8
000003FC
000000FC
000000FC
000000FC
000000FE
000000FE
00001FFE
0007FFFE
007FFFFE
01FFFFFE
07FFFFFE
0FFFC0FE
1FFC00FE
3FE000FE
7FC000FE
7F0000FE
7F0000FE
FE0000FE
FE0000FE
FE0000FE
FC0000FE
FC0000FE
FE0000FE
FE0001FE
7F0003FE
7F8007FE
3FE01FFE
3FFFFFFE
1FFFFF7E
0FFFFE7C
03FFF838
007FC000
ENDCHAR
STARTCHAR adieresis
ENCODING 228
SWIDTH 500 0
DWIDTH 36 0
BBX 31 51 1 -1
BITMAP
01E003C0
03F007E0
07F007F0
07F80FF0
07F80FF0
07F007F0
03F007E0
01E001C0
00000000
00000000
00000000
00000000
00000000
0FFFFE00
1FFFFFC0
1FFFFFE0
1FFFFFF0
1FFFFFF8
0FFFFFF8
000003FC
000000FC
000000FC
000000FC
000000FE
000000FE
00001FFE
0007FFFE
007FFFFE
01FFFFFE
07FFFFFE
0FFFC0FE
1FFC00FE
3FE000FE
7FC000FE
7F0000FE
7F0000FE
FE0000FE
FE0000FE
FE0000FE
FC0000FE
FC0000FE
FE0000FE
FE0001FE
7F0003FE
7F8007FE
3FE01FFE
3FFFFFFE
1FFFFF7E
0FFFFE7C
03FFF838
007FC000
ENDCHAR
STARTCHAR aring
ENCODING 229
SWIDTH 500 0
DWIDTH 36 0
BBX 31 56 1 -1
BITMAP
0007F000
000FF800
001FFC00
003E3E00
00380F00
00780F00
00780F00
00780F00
00780F00
003C1E00
003F3E00
001FFC00
000FF800
0003E000
00000000
00000000
00000000
00000000
0FFFFE00
1FFFFFC0
1FFFFFE0
1FFFFFF0
1FFFFFF8
0FFFFFF8
000003FC
000000FC
000000FC
000000FC
000000FE
000000FE
00001FFE
0007FFFE
007FFFFE
01FFFFFE
07FFFFFE
0FFFC0FE
1FFC00FE
3FE000FE
7FC000FE
7F0000FE
7F0000FE
FE0000FE
FE0000FE
FE0000FE
FC0000FE
FC0000FE
FE0000FE
FE0001FE
7F0003FE
7F8007FE
3FE01FFE
3FFFFFFE
1FFFFF7E
0FFFFE7C
03FFF838
007FC000
ENDCHAR
STARTCHAR ae
ENCODING 230
SWIDTH 833 0
DWIDTH 60 0
BBX 55 39 2 -1
BITMAP
000000000FF000
1FFFFC007FFE00
3FFFFF81FFFF80
3FFFFFC3FFFFC0
3FFFFFE7FFFFE0
3FFFFFFFFFFFF0
1FFFFFFFE00FF0
000007FFC003F8
000003FF8001F8
000001FF0001FC
000001FE0000FC
000001FE0000FC
000001FE00007C
000001FC00007E
00003FFFFFFFFE
000FFFFFFFFFFE
00FFFFFFFFFFFE
03FFFFFFFFFFFC
0FFFFFFFFFFFF8
1FFFC1F8000000
3FF801F8000000
7FC001FC000000
7F8001FC000000
FF0001FC000000
FE0001FC000000
FC0001FC000000
FC0001FE000000
FC0001FE000000
FC0001FF000000
FC0001FF800000
FE0001FFC00000
FF0003FFF00000
FF8007FFFF0000
7FFEFFF7FFFFFE
3FFFFFE7FFFFFE
1FFFFFE1FFFFFE
0FFFFFC0FFFFFE
07FFFF001FFFFC
00FFF000000000
ENDCHAR
STARTCHAR ccedilla
ENCODING 231
SWIDTH 500 0
DWIDTH 36 0
BBX 32 51 3 -14
BITMAP
001FFFF8
00FFFFFC
03FFFFFE
07FFFFFE
0FFFFFFC
1FFFE000
3FF00000
3FC00000
7F800000
7F000000
FF000000
FE000000
FE000000
FE000000
FE000000
FE000000
FE000000
FE000000
FE000000
FE000000
FE000000
7E000000
7F000000
7F000000
3F800000
3FC00000
1FE00000
1FF00000
0FF80000
07FE0000
03FF8000
01FFFFFE
00FFFFFF
007FFFFF
001FFFFF
0007FFFF
0000FFFE
00007000
0000F000
0000F000
0000E000
0000FF00
0000FFC0
00003FE0
000003F0
000003F0
001003F0
003C07F0
003FFFE0
000FFFC0
0003FE00
ENDCHAR
STARTCHAR egrave
ENCODING 232
SWIDTH 556 0
DWIDTH 40 0
BBX 34 52 3 0
BITMAP
0078000000
00FE000000
00FFC00000
00FFF80000
00FFFE0000
007FFFC000
000FFFE000
0000FFE000
00001FE000
000001C000
0000000000
0000000000
0000000000
0000000000
0003FC0000
003FFF8000
00FFFFE000
01FFFFF800
03FFFFFC00
07FFFFFE00
0FF801FE00
1FE000FF00
3FC0007F80
3F80003F80
3F80001F80
7F00001FC0
7F00000FC0
7E00000FC0
FE00000FC0
FFFFFFFFC0
FFFFFFFFC0
FFFFFFFFC0
FFFFFFFFC0
FFFFFFFF80
FE00000000
FE00000000
FE00000000
FE00000000
FE00000000
7E00000000
7F00000000
7F00000000
3F80000000
3FC0000000
1FE0000000
0FF8000000
0FFF800000
07FFFFFFC0
01FFFFFFC0
00FFFFFFC0
003FFFFFC0
0007FFFF80
ENDCHAR
STARTCHAR eacute
ENCODING 233
SWIDTH 556 0
DWIDTH 40 0
BBX 34 52 3 0
BITMAP
000003C000
00001FE000
00007FE000
0003FFE000
000FFFE000
007FFFC000
00FFFE0000
00FFE00000
00FF000000
00F0000000
0000000000
0000000000
0000000000
0000000000
0003FC0000
003FFF8000
00FFFFE000
01FFFFF800
03FFFFFC00
07FFFFFE00
0FF801FE00
1FE000FF00
3FC0007F80
3F80003F80
3F80001F80
7F00001FC0
7F00000FC0
7E00000FC0
FE00000FC0
FFFFFFFFC0
FFFFFFFFC0
FFFFFFFFC0
FFFFFFFFC0
FFFFFFFF80
FE00000000
FE00000000
FE00000000
FE00000000
FE00000000
7E00000000
7F00000000
7F00000000
3F80000000
3FC0000000
1FE0000000
0FF8000000
0FFF800000
07FFFFFFC0
01FFFFFFC0
00FFFFFFC0
003FFFFFC0
0007FFFF80
ENDCHAR
STARTCHAR ecircumflex
ENCODING 234
SWIDTH 556 0
DWIDTH 40 0
BBX 34 53 3 0
BITMAP
0001F00000
0003F80000
0007FC0000
000FFE0000
001FBF0000
001FBF8000
003F1F8000
007E0FC000
00FC07E000
01F803F000
01F001F000
0000000000
0000000000
0000000000
0000000000
0003FC0000
003FFF8000
00FFFFE000
01FFFFF800
03FFFFFC00
07FFFFFE00
0FF801FE00
1FE000FF00
3FC0007F80
3F80003F80
3F80001F80
7F00001FC0
7F00000FC0
7E00000FC0
FE00000FC0
FFFFFFFFC0
FFFFFFFFC0
FFFFFFFFC0
FFFFFFFFC0
FFFFFFFF80
FE00000000
FE00000000
FE00000000
FE00000000
FE00000000
7E00000000
7F00000000
7F00000000
3F80000000
3FC0000000
1FE0000000
0FF8000000
0FFF800000
07FFFFFFC0
01FFFFFFC0
00FFFFFFC0
003FFFFFC0
0007FFFF80
ENDCHAR
STARTCHAR edieresis
ENCODING 235
SWIDTH 556 0
DWIDTH 40 0
BBX 34 50 3 0
BITMAP
00F001E000
01F803F000
03F803F800
03FC07F800
03FC07F800
03F803F800
01F803F000
00E001E000
0000000000
0000000000
0000000000
0000000000
0003FC0000
003FFF8000
00FFFFE000
01FFFFF800
03FFFFFC00
07FFFFFE00
0FF801FE00
1FE000FF00
3FC0007F80
3F80003F80
3F80001F80
7F00001FC0
7F00000FC0
7E00000FC0
FE00000FC0
FFFFFFFFC0
FFFFFFFFC0
FFFFFFFFC0
FFFFFFFFC0
FFFFFFFF80
FE00000000
FE00000000
FE00000000
FE00000000
FE00000000
7E00000000
7F00000000
7F00000000
3F80000000
3FC0000000
1FE0000000
0FF8000000
0FFF800000
07FFFFFFC0
01FFFFFFC0
00FFFFFFC0
003FFFFFC0
0007FFFF80
ENDCHAR
STARTCHAR igrave
ENCODING 236
SWIDTH 222 0
DWIDTH 16 0
BBX 20 51 -2 0
BITMAP
7C0000
7F8000
7FE000
FFFC00
FFFF00
3FFFE0
07FFF0
007FF0
0007F0
0000E0
000000
000000
000000
000000
00F000
01F800
01F800
01F800
01F800
01F800
01F800
01F800
01F800
01F800
01F800
01F800
01F800
01F800
01F800
01F800
01F800
01F800
01F800
01F800
01F800
01F800
01F800
01F800
01F800
01F800
01F800
01F800
01F800
01F800
01F800
01F800
01F800
01F800
01F800
01F800
00F000
ENDCHAR
STARTCHAR iacute
ENCODING 237
SWIDTH 222 0
DWIDTH 16 0
BBX 20 51 -2 0
BITMAP
0003E0
001FE0
007FE0
03FFF0
0FFFE0
7FFFC0
FFFE00
FFE000
FE0000
700000
000000
000000
000000
000000
00F000
01F800
01F800
01F800
01F800
01F800
01F800
01F800
01F800
01F800
01F800
01F800
01F800
01F800
01F800
01F800
01F800
01F800
01F800
01F800
01F800
01F800
01F800
01F800
01F800
01F800
01F800
01F800
01F800
01F800
01F800
01F800
01F800
01F800
01F800
01F800
00F000
ENDCHAR
STARTCHAR icircumflex
ENCODING 238
SWIDTH 222 0
DWIDTH 16 0
BBX 22 52 -3 0
BITMAP
00FC00
01FE00
01FF00
03FF00
07FF80
0FCFC0
1F87E0
3F83F0
7F03F8
FE01FC
F8007C
000000
000000
000000
000000
007800
00FC00
00FC00
00FC00
00FC00
00FC00
00FC00
00FC00
00FC00
00FC00
00FC00
00FC00
00FC00
00FC00
00FC00
00FC00
00FC00
00FC00
00FC00
00FC00
00FC00
00FC00
00FC00
00FC00
00FC00
00FC00
00FC00
00FC00
00FC00
00FC00
00FC00
00FC00
00FC00
00FC00
00FC00
00FC00
007800
ENDCHAR
STARTCHAR idieresis
ENCODING 239
SWIDTH 222 0
DWIDTH 16 0
BBX 24 50 -4 0
BITMAP
3C003C
7E007E
7F00FE
FF00FF
FF00FF
7F00FE
7E007E
3C003C
000000
000000
000000
000000
000000
003C00
007E00
007E00
007E00
007E00
007E00
007E00
007E00
007E00
007E00
007E00
007E00
007E00
007E00
007E00
007E00
007E00
007E00
007E00
007E00
007E00
007E00
007E00
007E00
007E00
007E00
007E00
007E00
007E00
007E00
007E00
007E00
007E00
007E00
007E00
007E00
003C00
ENDCHAR
STARTCHAR eth
ENCODING 240
SWIDTH 556 0
DWIDTH 40 0
BBX 34 53 3 -1
BITMAP
000000F000
07E001F000
07FC07F000
0FFF8FF000
07FFFFC000
03FFFF8000
00FFFE0000
001FFE0000
000FFF0000
001FFF8000
007FFFC000
00FF1FE000
00FC0FF000
00F807F000
006003F800
000003FC00
000001FC00
000000FE00
001FE0FE00
007FFC7E00
01FFFE7F00
03FFFF7F00
07FFFFBF00
0FFC0FFF80
1FF003FF80
1FC000FF80
3F80007F80
3F80007F80
7F00003FC0
7F00003FC0
7E00001FC0
FE00001FC0
FE00001FC0
FE00001FC0
FC00000FC0
FC00000FC0
FC00000FC0
FE00001FC0
FE00001F80
FE00001F80
7E00001F80
7F00003F80
7F00003F00
3F80007F00
3FC000FE00
1FE001FE00
1FF003FC00
0FFE0FF800
07FFFFF800
03FFFFE000
00FFFFC000
003FFF0000
000FFC0000
ENDCHAR
STARTCHAR ntilde
ENCODING 241
SWIDTH 556 0
DWIDTH 40 0
BBX 30 52 5 0
BITMAP
00000060
01F00060
03FF00E0
07FFE1E0
0FFFFFE0
1FFFFFC0
1E0FFFC0
1C03FF80
18003E00
00000000
00000000
00000000
00000000
00000000
0007F800
703FFF00
F8FFFF80
F9FFFFC0
FBFFFFE0
FBFFFFF0
FFF01FF8
FFE007F8
FF8003F8
FF0001FC
FF0001FC
FE0001FC
FE0000FC
FC0000FC
FC0000FC
FC0000FC
FC0000FC
FC0000FC
FC0000FC
FC0000FC
FC0000FC
FC0000FC
FC0000FC
FC0000FC
FC0000FC
FC0000FC
FC0000FC
FC0000FC
FC0000FC
FC0000FC
FC0000FC
FC0000FC
FC0000FC
FC0000FC
FC0000FC
FC0000FC
FC0000FC
78000078
ENDCHAR
STARTCHAR ograve
ENCODING 242
SWIDTH 556 0
DWIDTH 40 0
BBX 34 53 3 -1
BITMAP
0070000000
00FE000000
00FFC00000
01FFF00000
01FFFE0000
00FFFF8000
000FFFE000
0001FFE000
00001FE000
000003C000
0000000000
0000000000
0000000000
0000000000
0007F80000
003FFF0000
00FFFF8000
01FFFFE000
03FFFFF000
07FFFFF800
0FF807FC00
1FE001FE00
1FC000FE00
3F80007F00
3F00007F00
7F00003F80
7E00001F80
FE00001F80
FE00001FC0
FC00001FC0
FC00000FC0
FC00000FC0
FC00000FC0
FC00000FC0
FC00000FC0
FC00000FC0
FC00000FC0
FC00001FC0
FE00001FC0
FE00001FC0
7E00001F80
7F00003F80
7F00007F00
3F80007F00
3FC000FE00
1FE001FE00
0FF807FC00
07FFFFF800
03FFFFF000
01FFFFE000
00FFFFC000
003FFF0000
0007F80000
ENDCHAR
STARTCHAR oacute
ENCODING 243
SWIDTH 556 0
DWIDTH 40 0
BBX 34 53 3 -1
BITMAP
0000038000
00001FC000
0000FFC000
0003FFE000
001FFFE000
007FFFC000
01FFFC0000
01FFE00000
01FE000000
00F0000000
0000000000
0000000000
0000000000
0000000000
0007F80000
003FFF0000
00FFFF8000
01FFFFE000
03FFFFF000
07FFFFF800
0FF807FC00
1FE001FE00
1FC000FE00
3F80007F00
3F00007F00
7F00003F80
7E00001F80
FE00001F80
FE00001FC0
FC00001FC0
FC00000FC0
FC00000FC0
FC00000FC0
FC00000FC0
FC00000FC0
FC00000FC0
FC00000FC0
FC00001FC0
FE00001FC0
FE00001FC0
7E00001F80
7F00003F80
7F00007F00
3F80007F00
3FC000FE00
1FE001FE00
0FF807FC00
07FFFFF800
03FFFFF000
01FFFFE000
00FFFFC000
003FFF0000
0007F80000
ENDCHAR
STARTCHAR ocircumflex
ENCODING 244
SWIDTH 556 0
DWIDTH 40 0
BBX 34 54 3 -1
BITMAP
0001E00000
0003F80000
0007F80000
000FFC0000
001FFE0000
003F3F0000
007F1F8000
00FE1FC000
01FC0FE000
03F807F000
03F003F000
0000000000
0000000000
0000000000
0000000000
0007F80000
003FFF0000
00FFFF8000
01FFFFE000
03FFFFF000
07FFFFF800
0FF807FC00
1FE001FE00
1FC000FE00
3F80007F00
3F00007F00
7F00003F80
7E00001F80
FE00001F80
FE00001FC0
FC00001FC0
FC00000FC0
FC00000FC0
FC00000FC0
FC00000FC0
FC00000FC0
FC00000FC0
FC00000FC0
FC00001FC0
FE00001FC0
FE00001FC0
7E00001F80
7F00003F80
7F00007F00
3F80007F00
3FC000FE00
1FE001FE00
0FF807FC00
07FFFFF800
03FFFFF000
01FFFFE000
00FFFFC000
003FFF0000
0007F80000
ENDCHAR
STARTCHAR otilde
ENCODING 245
SWIDTH 556 0
DWIDTH 40 0
BBX 34 53 3 -1
BITMAP
0000001800
007C001800
00FFC03800
01FFF87800
03FFFFF800
07FFFFF000
0783FFF000
07007FE000
06000F8000
0000000000
0000000000
0000000000
0000000000
0000000000
0007F80000
003FFF0000
00FFFF8000
01FFFFE000
03FFFFF000
07FFFFF800
0FF807FC00
1FE001FE00
1FC000FE00
3F80007F00
3F00007F00
7F00003F80
7E00001F80
FE00001F80
FE00001FC0
FC00001FC0
FC00000FC0
FC00000FC0
FC00000FC0
FC00000FC0
FC00000FC0
FC00000FC0
FC00000FC0
FC00001FC0
FE00001FC0
FE00001FC0
7E00001F80
7F00003F80
7F00007F00
3F80007F00
3FC000FE00
1FE001FE00
0FF807FC00
07FFFFF800
03FFFFF000
01FFFFE000
00FFFFC000
003FFF0000
0007F80000
ENDCHAR
STARTCHAR odieresis
ENCODING 246
SWIDTH 556 0
DWIDTH 40 0
BBX 34 51 3 -1
BITMAP
01E001E000
03F003F000
03F807F000
07F807F800
07F807F800
03F807F000
03F003F000
00E001E000
0000000000
0000000000
0000000000
0000000000
0007F80000
003FFF0000
00FFFF8000
01FFFFE000
03FFFFF000
07FFFFF800
0FF807FC00
1FE001FE00
1FC000FE00
3F80007F00
3F00007F00
7F00003F80
7E00001F80
FE00001F80
FE00001FC0
FC00001FC0
FC00000FC0
FC00000FC0
FC00000FC0
FC00000FC0
FC00000FC0
FC00000FC0
FC00000FC0
FC00001FC0
FE00001FC0
FE00001FC0
7E00001F80
7F00003F80
7F00007F00
3F80007F00
3FC000FE00
1FE001FE00
0FF807FC00
07FFFFF800
03FFFFF000
01FFFFE000
00FFFFC000
003FFF0000
0007F80000
ENDCHAR
STARTCHAR divide
ENCODING 247
SWIDTH 600 0
DWIDTH 43 0
BBX 37 40 3 -2
BITMAP
0000F80000
0001FE0000
0003FE0000
0003FF0000
0007FF0000
0007FF0000
0003FE0000
0003FE0000
0001FC0000
0000F80000
0000000000
0000000000
0000000000
0000000000
0000000000
0000000000
0000000000
FFFFFFFFF8
FFFFFFFFF8
FFFFFFFFF8
FFFFFFFFF8
FFFFFFFFF8
FFFFFFFFF8
0000000000
0000000000
0000000000
0000000000
0000000000
0000000000
0000000000
0000F80000
0001FE0000
0003FE0000
0003FF0000
0007FF0000
0007FF0000
0003FE0000
0003FE0000
0001FC0000
0000F80000
ENDCHAR
STARTCHAR oslash
ENCODING 248
SWIDTH 556 0
DWIDTH 40 0
BBX 34 51 3 -7
BITMAP
0000003800
0000007C00
000000F800
000000F800
000001F800
000001F000
0007F9F000
003FFFE000
00FFFFE000
01FFFFE000
03FFFFF000
07FFFFF800
0FF80FFC00
1FE01FFE00
1FC01FFE00
3F803F7F00
3F003E7F00
7F003E3F80
7E007C3F80
FE007C1F80
FE00F81FC0
FC00F81FC0
FC01F80FC0
FC01F00FC0
FC03F00FC0
FC03E00FC0
FC03E00FC0
FC07C00FC0
FC07C00FC0
FC0F801FC0
FE0F801FC0
FE1F801FC0
7E1F001F80
7F3F003F80
7FBE007F00
3FBE007F00
3FFC00FE00
1FFC01FE00
0FF807FC00
07FFFFF800
03FFFFF000
01FFFFE000
03FFFFC000
03FFFF0000
07E7F80000
07C0000000
07C0000000
0F80000000
0F80000000
0F00000000
0600000000
ENDCHAR
STARTCHAR ugrave
ENCODING 249
SWIDTH 556 0
DWIDTH 40 0
BBX 30 52 5 -1
BITMAP
03E00000
03FC0000
03FF0000
07FFE000
07FFF800
01FFFF00
003FFF80
0003FF80
00003F80
00000700
00000000
00000000
00000000
00000000
78000078
FC0000FC
FC0000FC
FC0000FC
FC0000FC
FC0000FC
FC0000FC
FC0000FC
FC0000FC
FC0000FC
FC0000FC
FC0000FC
FC0000FC
FC0000FC
FC0000FC
FC0000FC
FC0000FC
FC0000FC
FC0000FC
FC0000FC
FC0000FC
FC0000FC
FC0000FC
FC0000FC
FC0000FC
FC0001FC
FE0001FC
FE0003FC
FE0003FC
FF0007FC
7F800FFC
7FE03FFC
3FFFFF7C
1FFFFF7C
0FFFFE7C
07FFFC7C
03FFF038
007F8000
ENDCHAR
STARTCHAR uacute
ENCODING 250
SWIDTH 556 0
DWIDTH 40 0
BBX 30 52 5 -1
BITMAP
00001F00
0000FF00
0003FF00
001FFF80
007FFF80
03FFFE00
07FFF000
07FF0000
07F00000
03800000
00000000
00000000
00000000
00000000
78000078
FC0000FC
FC0000FC
FC0000FC
FC0000FC
FC0000FC
FC0000FC
FC0000FC
FC0000FC
FC0000FC
FC0000FC
FC0000FC
FC0000FC
FC0000FC
FC0000FC
FC0000FC
FC0000FC
FC0000FC
FC0000FC
FC0000FC
FC0000FC
FC0000FC
FC0000FC
FC0000FC
FC0000FC
FC0001FC
FE0001FC
FE0003FC
FE0003FC
FF0007FC
7F800FFC
7FE03FFC
3FFFFF7C
1FFFFF7C
0FFFFE7C
07FFFC7C
03FFF038
007F8000
ENDCHAR
STARTCHAR ucircumflex
ENCODING 251
SWIDTH 556 0
DWIDTH 40 0
BBX 30 53 5 -1
BITMAP
0007C000
001FE000
001FF000
003FF000
007FF800
00FCFC00
01F87E00
03F83F00
07F03F80
0FE00FC0
0F8007C0
00000000
00000000
00000000
00000000
78000078
FC0000FC
FC0000FC
FC0000FC
FC0000FC
FC0000FC
FC0000FC
FC0000FC
FC0000FC
FC0000FC
FC0000FC
FC0000FC
FC0000FC
FC0000FC
FC0000FC
FC0000FC
FC0000FC
FC0000FC
FC0000FC
FC0000FC
FC0000FC
FC0000FC
FC0000FC
FC0000FC
FC0000FC
FC0001FC
FE0001FC
FE0003FC
FE0003FC
FF0007FC
7F800FFC
7FE03FFC
3FFFFF7C
1FFFFF7C
0FFFFE7C
07FFFC7C
03FFF038
007F8000
ENDCHAR
STARTCHAR udieresis
ENCODING 252
SWIDTH 556 0
DWIDTH 40 0
BBX 30 51 5 -1
BITMAP
07800780
0FC00FC0
0FE01FC0
1FE01FE0
1FE01FE0
0FE01FC0
0FC00FC0
03800780
00000000
00000000
00000000
00000000
00000000
78000078
FC0000FC
FC0000FC
FC0000FC
FC0000FC
FC0000FC
FC0000FC
FC0000FC
FC0000FC
FC0000FC
FC0000FC
FC0000FC
FC0000FC
FC0000FC
FC0000FC
FC0000FC
FC0000FC
FC0000FC
FC0000FC
FC0000FC
FC0000FC
FC0000FC
FC0000FC
FC0000FC
FC0000FC
FC0001FC
FE0001FC
FE0003FC
FE0003FC
FF0007FC
7F800FFC
7FE03FFC
3FFFFF7C
1FFFFF7C
0FFFFE7C
07FFFC7C
03FFF038
007F8000
ENDCHAR
STARTCHAR yacute
ENCODING 253
SWIDTH 500 0
DWIDTH 36 0
BBX 33 65 2 -14
BITMAP
00000F8000
00007F8000
0001FF8000
000FFFC000
003FFF8000
01FFFF0000
03FFF80000
03FF800000
03F8000000
01C0000000
0000000000
0000000000
0000000000
0000000000
7800000F00
F800001F80
FC00001F80
FC00001F80
FC00001F80
FE00003F80
FE00003F80
FE00003F80
FE00003F80
7E00003F00
7F00007F00
7F00007F00
7F00007F00
3F00007E00
3F8000FE00
3F8000FE00
1F8000FC00
1FC001FC00
1FC001FC00
0FC001F800
0FE003F800
07E003F000
07F007F000
03F007E000
03F80FE000
01F80FC000
01FC1FC000
00FC1F8000
00FE3F8000
007F7F0000
007FFF0000
003FFE0000
001FFC0000
001FFC0000
000FF80000
0007F00000
000FF00000
000FE00000
001FE00000
003FC00000
003F800000
007F800000
00FF000000
01FE000000
01FE000000
03FC000000
07F8000000
07F0000000
07F0000000
03E0000000
01C0000000
ENDCHAR
STARTCHAR thorn
ENCODING 254
SWIDTH 556 0
DWIDTH 40 0
BBX 33 64 4 -14
BITMAP
3800000000
7C00000000
FE00000000
FE00000000
FE00000000
FE00000000
FE00000000
FE00000000
FE00000000
FE00000000
FE00000000
FE00000000
FFFE000000
FFFFE00000
FFFFF80000
FFFFFE0000
FFFFFF8000
FFFFFFC000
FE01FFE000
FE003FF000
FE000FF800
FE0007FC00
FE0003FC00
FE0001FE00
FE0000FE00
FE00007F00
FE00007F00
FE00003F80
FE00003F80
FE00003F80
FE00003F80
FE00001F80
FE00001F80
FE00001F80
FE00001F80
FE00001F80
FE00003F80
FE00003F80
FE00003F80
FE00007F00
FE00007F00
FE0000FF00
FE0003FE00
FE000FFC00
FFFFFFFC00
FFFFFFF800
FFFFFFF000
FFFFFFC000
FFFFFF0000
FFFFF80000
FE00000000
FE00000000
FE00000000
FE00000000
FE00000000
FE00000000
FE00000000
FE00000000
FE00000000
FE00000000
FE00000000
FE00000000
7C00000000
3800000000
ENDCHAR
STARTCHAR ydieresis
ENCODING 255
SWIDTH 500 0
DWIDTH 36 0
BBX 33 64 2 -14
BITMAP
03C003C000
07E007E000
07F00FE000
0FF00FF000
0FF00FF000
07F00FE000
07E007E000
03C003C000
0000000000
0000000000
0000000000
0000000000
0000000000
7800000F00
F800001F80
FC00001F80
FC00001F80
FC00001F80
FE00003F80
FE00003F80
FE00003F80
FE00003F80
7E00003F00
7F00007F00
7F00007F00
7F00007F00
3F00007E00
3F8000FE00
3F8000FE00
1F8000FC00
1FC001FC00
1FC001FC00
0FC001F800
0FE003F800
07E003F000
07F007F000
03F007E000
03F80FE000
01F80FC000
01FC1FC000
00FC1F8000
00FE3F8000
007F7F0000
007FFF0000
003FFE0000
001FFC0000
001FFC0000
000FF80000
0007F00000
000FF00000
000FE00000
001FE00000
003FC00000
003F800000
007F800000
00FF000000
01FE000000
01FE000000
03FC000000
07F8000000
07F0000000
07F0000000
03E0000000
01C0000000
ENDCHAR
STARTCHAR .notdef
ENCODING -1
SWIDTH 500 0
DWIDTH 36 0
BBX 36 51 0 0
BITMAP
FFFFFFFFF0
FFFFFFFFF0
FFFFFFFFF0
FFFFFFFFF0
FC000003F0
FE000007F0
FE000007F0
FF00000FF0
FF80001FF0
F780001EF0
F3C0003CF0
F3E0007CF0
F1E00078F0
F0F000F0F0
F0F801F0F0
F07801E0F0
F03C03C0F0
F03E07C0F0
F01E0780F0
F00F0F00F0
F00F9F00F0
F0079E00F0
F003FC00F0
F003FC00F0
F001F800F0
F000F000F0
F001F800F0
F001F800F0
F003FC00F0
F007FE00F0
F0079E00F0
F00F0F00F0
F01F0F80F0
F01E0780F0
F03C03C0F0
F07C03E0F0
F07801E0F0
F0F000F0F0
F1F000F8F0
F1E00078F0
F3C0003CF0
F7C0003EF0
F780001EF0
FF00000FF0
FF00000FF0
FE000007F0
FC000003F0
FFFFFFFFF0
FFFFFFFFF0
FFFFFFFFF0
FFFFFFFFF0
ENDCHAR
STARTCHAR quoteright
ENCODING -1
SWIDTH 222 0
DWIDTH 16 0
BBX 11 19 2 32
BITMAP
03C0
07E0
07E0
07E0
0FE0
0FE0
1FC0
1FC0
1F80
3F80
3F00
3F00
7F00
7E00
FE00
FC00
FC00
F800
7000
ENDCHAR
STARTCHAR quoteleft
ENCODING -1
SWIDTH 222 0
DWIDTH 16 0
BBX 11 19 2 32
BITMAP
7800
FC00
FC00
FE00
FE00
FE00
7F00
7F00
3F80
3F80
1F80
1FC0
0FC0
0FC0
07E0
07E0
03E0
03E0
01C0
ENDCHAR
STARTCHAR fraction
ENCODING -1
SWIDTH 167 0
DWIDTH 12 0
BBX 36 52 -12 -1
BITMAP
00000000E0
00000000F0
00000001F0
00000003F0
00000003E0
00000007E0
0000000FC0
0000001F80
0000001F80
0000003F00
0000007E00
0000007E00
000000FC00
000001F800
000001F800
000003F000
000007E000
000007E000
00000FC000
00001F8000
00001F8000
00003F0000
00007E0000
00007E0000
0000FC0000
0001F80000
0001F80000
0003F00000
0007E00000
0007E00000
000FC00000
001F800000
001F800000
003F000000
007E000000
007E000000
00FC000000
01F8000000
01F8000000
03F0000000
07E0000000
07E0000000
0FC0000000
1F80000000
1F80000000
3F00000000
7E00000000
7E00000000
FC00000000
F800000000
F800000000
7000000000
ENDCHAR
STARTCHAR florin
ENCODING -1
SWIDTH 611 0
DWIDTH 44 0
BBX 42 65 1 -14
BITMAP
00000003FF00
0000000FFF80
0000003FFFC0
0000007FFFC0
000000FFFF80
000001FFFF00
000001FF0000
000003FC0000
000003F80000
000003F00000
000007F00000
000007E00000
000007E00000
000007E00000
00000FE00000
00000FE00000
00000FC00000
00000FC00000
00000FC00000
001FFFFFC000
003FFFFFE000
007FFFFFF000
007FFFFFF000
003FFFFFE000
001FFFFFC000
00001F800000
00003F800000
00003F800000
00003F000000
00003F000000
00003F000000
00003F000000
00007F000000
00007F000000
00007E000000
00007E000000
00007E000000
00007E000000
0000FE000000
0000FE000000
0000FC000000
0000FC000000
0000FC000000
0000FC000000
0000FC000000
0001FC000000
0001F8000000
0001F8000000
0001F8000000
0001F8000000
0001F8000000
0003F8000000
0003F0000000
0003F0000000
0003F0000000
0007E0000000
000FE0000000
001FC0000000
01FFC0000000
7FFF80000000
FFFF00000000
FFFE00000000
FFFC00000000
FFF000000000
3FC000000000
ENDCHAR
STARTCHAR quotedblleft
ENCODING -1
SWIDTH 389 0
DWIDTH 28 0
BBX 23 19 2 32
BITMAP
780780
FC0FC0
FC0FC0
FC0FC0
FE0FE0
FE0FE0
7F07F0
7F07F0
3F03F0
3F83F8
1F81F8
1F81F8
1FC1FC
0FC0FC
0FC0FE
07E07E
07E07E
03E03E
01C01C
ENDCHAR
STARTCHAR guilsinglleft
ENCODING -1
SWIDTH 278 0
DWIDTH 20 0
BBX 12 28 4 4
BITMAP
00E0
01F0
03F0
03F0
07E0
07E0
0FC0
0FC0
1F80
3F80
3F00
7F00
7E00
FE00
7E00
7F00
3F00
3F80
1F80
1FC0
0FC0
0FC0
07E0
07E0
03F0
01F0
01E0
00C0
ENDCHAR
STARTCHAR guilsinglright
ENCODING -1
SWIDTH 278 0
DWIDTH 20 0
BBX 12 28 4 4
BITMAP
7000
F800
FC00
FC00
7E00
7E00
3F00
3F00
1F80
1FC0
0FC0
0FE0
07E0
07F0
07E0
0FE0
0FC0
1FC0
1F80
3F80
3F00
3F00
7E00
7E00
FC00
F800
7800
3000
ENDCHAR
STARTCHAR fi
ENCODING -1
SWIDTH 500 0
DWIDTH 36 0
BBX 31 50 1 0
BITMAP
000FFFF0
007FFFFC
00FFFFFE
01FFFFFE
03FFFFFE
03FFFFFE
07F8007E
07F0007E
07E0007E
07E0003C
07E00000
07E00000
7FFFFFF8
FFFFFFFE
FFFFFFFE
FFFFFFFE
FFFFFFFE
7FFFFFFE
07E0007E
07E0007E
07E0007E
07E0007E
07E0007E
07E0007E
07E0007E
07E0007E
07E0007E
07E0007E
07E0007E
07E0007E
07E0007E
07E0007E
07E0007E
07E0007E
07E0007E
07E0007E
07E0007E
07E0007E
07E0007E
07E0007E
07E0007E
07E0007E
07E0007E
07E0007E
07E0007E
07E0007E
07E0007E
07E0007E
07E0007E
03C0003C
ENDCHAR
STARTCHAR fl
ENCODING -1
SWIDTH 500 0
DWIDTH 36 0
BBX 31 50 1 0
BITMAP
000FFFF0
007FFFFC
00FFFFFE
01FFFFFE
03FFFFFE
03FFFFFE
07F8007E
07F0007E
07E0007E
07E0007E
07E0007E
07E0007E
7FFFF07E
FFFFF87E
FFFFF87E
FFFFF87E
FFFFF87E
3FFFF07E
07E0007E
07E0007E
07E0007E
07E0007E
07E0007E
07E0007E
07E0007E
07E0007E
07E0007E
07E0007E
07E0007E
07E0007E
07E0007E
07E0007E
07E0007E
07E0007E
07E0007E
07E0007E
07E0007E
07E0007E
07E0007E
07E0007E
07E0007E
07E0007E
07E0007E
07E0007E
07E0007E
07E0007E
07E0007E
07E0007E
07E0007E
03C0003C
ENDCHAR
STARTCHAR endash
ENCODING -1
SWIDTH 500 0
DWIDTH 36 0
BBX 36 5 0 16
BITMAP
FFFFFFFFF0
FFFFFFFFF0
FFFFFFFFF0
FFFFFFFFF0
FFFFFFFFF0
ENDCHAR
STARTCHAR dagger
ENCODING -1
SWIDTH 389 0
DWIDTH 28 0
BBX 22 50 3 0
BITMAP
007800
00FC00
00FC00
00FC00
00FC00
00FC00
00FC00
00FC00
00FC00
00FC00
00FC00
00FC00
7FFFF8
FFFFFC
FFFFFC
FFFFFC
FFFFFC
FFFFF8
00FC00
00FC00
00FC00
00FC00
00FC00
00FC00
00FC00
00FC00
00FC00
00FC00
00FC00
00FC00
00FC00
00FC00
00FC00
00FC00
00FC00
00FC00
00FC00
00FC00
00FC00
01FC00
01FE00
01FE00
01FE00
01FE00
01FE00
01FE00
01FE00
00FC00
00FC00
007800
ENDCHAR
STARTCHAR daggerdbl
ENCODING -1
SWIDTH 389 0
DWIDTH 28 0
BBX 22 50 3 0
BITMAP
007800
00FC00
00FC00
00FC00
00FC00
00FC00
00FC00
00FC00
00FC00
00FC00
00FC00
00FC00
7FFFF8
FFFFFC
FFFFFC
FFFFFC
FFFFFC
FFFFF8
00FC00
00FC00
00FC00
00FC00
00FC00
00FC00
00FC00
00FC00
00FC00
00FC00
00FC00
00FC00
00FC00
00FC00
FFFFF8
FFFFFC
FFFFFC
FFFFFC
FFFFFC
7FFFF8
00FC00
00FC00
00FC00
00FC00
00FC00
00FC00
00FC00
00FC00
00FC00
00FC00
00FC00
007800
ENDCHAR
STARTCHAR bullet
ENCODING -1
SWIDTH 500 0
DWIDTH 36 0
BBX 24 25 6 12
BITMAP
00FE00
03FFC0
0FFFE0
1FFFF8
3FFFFC
3FFFFC
7FFFFE
7FFFFE
FFFFFF
FFFFFF
FFFFFF
FFFFFF
FFFFFF
FFFFFF
FFFFFF
FFFFFF
FFFFFF
7FFFFE
7FFFFE
3FFFFC
1FFFF8
0FFFF0
07FFE0
01FFC0
007E00
ENDCHAR
STARTCHAR quotesinglbase
ENCODING -1
SWIDTH 222 0
DWIDTH 16 0
BBX 11 19 2 -9
BITMAP
03C0
07E0
07E0
07E0
0FE0
0FE0
1FC0
1FC0
1F80
3F80
3F00
3F00
7F00
7E00
FE00
FC00
FC00
F800
7000
ENDCHAR
STARTCHAR quotedblbase
ENCODING -1
SWIDTH 389 0
DWIDTH 28 0
BBX 23 19 2 -9
BITMAP
03803C
07E07E
07E07E
0FE0FE
0FE0FE
1FC0FE
1FC1FC
1FC1FC
3F83F8
3F83F8
3F03F0
7F07F0
7E07E0
7E07E0
FC0FC0
FC0FC0
F80F80
F80F80
700700
ENDCHAR
STARTCHAR quotedblright
ENCODING -1
SWIDTH 389 0
DWIDTH 28 0
BBX 23 19 2 32
BITMAP
03803C
07E07E
07E07E
0FE0FE
0FE0FE
1FC0FE
1FC1FC
1FC1FC
3F83F8
3F83F8
3F03F0
7F07F0
7E07E0
7E07E0
FC0FC0
FC0FC0
F80F80
F80F80
700700
ENDCHAR
STARTCHAR ellipsis
ENCODING -1
SWIDTH 1000 0
DWIDTH 72 0
BBX 55 8 8 -1
BITMAP
3C00003C00003C
7E00007E00007E
7E00007E00007E
FF0000FF0000FE
FF0000FE0000FE
7E00007E00007E
7E00007E00007E
3C00003C00003C
ENDCHAR
STARTCHAR perthousand
ENCODING -1
SWIDTH 1000 0
DWIDTH 72 0
BBX 72 52 0 -1
BITMAP
00FE00007000000000
03FF8000F000000000
0FFFC001F800000000
1FFFE001F000000000
3FFFF003F000000000
3FC7F803F000000000
7F01FC07E000000000
7E00FC07E000000000
FC00FC07C000000000
FC007E0FC000000000
FC007E0F8000000000
F8007E1F8000000000
F8007E1F0000000000
F8007E3F0000000000
F8007E3E0000000000
FC007E7E0000000000
FC007C7C0000000000
7E00FCFC0000000000
7F01FCFC0000000000
3F83F9F80000000000
3FFFF1F80000000000
1FFFF1F00000000000
0FFFE3F00000000000
03FF83E00000000000
00FE07E00000000000
000007C00000000000
00000FC00000000000
00000F80FF00007F00
00001F83FFC001FFC0
00001F87FFE007FFF0
00003F0FFFF00FFFF8
00003F1FFFF80FFFFC
00007E3FC3FC1FC1FC
00007E3F00FC3F80FE
00007C3F007E3F007E
0000FC7E007E3E003F
0000F87E003E7E003F
0001F87C003F7E003F
0001F07C003F7E001F
0003F07C003F7C001F
0003E07C003F7E001F
0007E07C003F7E003F
0007C07E003E7E003F
000FC07E007E3E003F
000FC03F007E3F007E
001F803F80FC3F80FE
001F801FC3FC1FE3FC
001F001FFFF80FFFF8
003F000FFFF007FFF8
003E0007FFE003FFF0
003E0001FFC001FFC0
001C00007F00007F00
ENDCHAR
STARTCHAR circumflex
ENCODING -1
SWIDTH 222 0
DWIDTH 16 0
BBX 22 11 -3 41
BITMAP
007800
00FC00
01FE00
03FF00
07FF80
0FCFC0
1F87E0
3F87F0
7F03F8
FE01FC
FC00FC
ENDCHAR
STARTCHAR tilde
ENCODING -1
SWIDTH 222 0
DWIDTH 16 0
BBX 24 9 -4 42
BITMAP
000003
0F8003
1FF807
3FFF0F
7FFFFF
FFFFFE
F07FFE
E00FFC
C003F0
ENDCHAR
STARTCHAR breve
ENCODING -1
SWIDTH 222 0
DWIDTH 16 0
BBX 20 11 -2 41
BITMAP
800000
C00030
E00030
E00070
F000F0
7C03E0
7FFFE0
3FFFC0
1FFF80
0FFF00
01FC00
ENDCHAR
STARTCHAR dotaccent
ENCODING -1
SWIDTH 222 0
DWIDTH 16 0
BBX 8 8 4 42
BITMAP
3C
7E
FF
FF
FF
FF
7E
3C
ENDCHAR
STARTCHAR ring
ENCODING -1
SWIDTH 222 0
DWIDTH 16 0
BBX 14 14 1 41
BITMAP
0FC0
3FF0
7FF8
F87C
F03C
E01C
E01C
E01C
E01C
F03C
F87C
7FF8
3FF0
1FC0
ENDCHAR
STARTCHAR hungarumlaut
ENCODING -1
SWIDTH 222 0
DWIDTH 16 0
BBX 28 17 -5 38
BITMAP
003801C0
007C03E0
00FE03F0
01FE07F0
01FC0FF0
03F81FE0
07F01FC0
07F03F80
0FE07F00
1FC0FE00
1F80FC00
3F01F800
7E03F000
7E07F000
FC07E000
F807C000
70038000
ENDCHAR
STARTCHAR ogonek
ENCODING -1
SWIDTH 222 0
DWIDTH 16 0
BBX 19 16 -2 -14
BITMAP
0000C0
000F80
00FC00
03F000
0FC000
1F0000
3E0000
7C0000
FC0000
FC0040
FC01E0
FE07C0
FFFF80
7FFF00
3FF800
0FC000
ENDCHAR
STARTCHAR caron
ENCODING -1
SWIDTH 222 0
DWIDTH 16 0
BBX 22 11 -3 41
BITMAP
F8007C
FE00FC
7F03F8
3F03F0
1F87E0
0FCFC0
07FF80
03FF00
01FF00
01FE00
00FC00
ENDCHAR
STARTCHAR emdash
ENCODING -1
SWIDTH 1000 0
DWIDTH 72 0
BBX 72 5 0 16
BITMAP
FFFFFFFFFFFFFFFFFF
FFFFFFFFFFFFFFFFFF
FFFFFFFFFFFFFFFFFF
FFFFFFFFFFFFFFFFFF
FFFFFFFFFFFFFFFFFF
ENDCHAR
STARTCHAR Lslash
ENCODING -1
SWIDTH 444 0
DWIDTH 32 0
BBX 34 50 -2 0
BITMAP
0078000000
00FC000000
00FC000000
00FC000000
00FC000000
00FC000000
00FC000000
00FC000000
00FC000000
00FC000000
00FC000000
00FC000000
00FC000000
00FC000000
00FC000000
00FC000000
00FC000000
00FC000000
00FC3F0000
00FCFF0000
00FFFF0000
00FFFE0000
00FFF80000
03FFC00000
1FFF000000
7FFC000000
FFFC000000
FFFC000000
7CFC000000
00FC000000
00FC000000
00FC000000
00FC000000
00FC000000
00FC000000
00FC000000
00FC000000
00FC000000
00FC000000
00FC000000
00FC000000
00FC000000
00FC000000
00FC000000
00FFFFFF80
00FFFFFFC0
00FFFFFFC0
00FFFFFFC0
00FFFFFFC0
007FFFFF80
ENDCHAR
STARTCHAR OE
ENCODING -1
SWIDTH 1000 0
DWIDTH 72 0
BBX 68 52 2 -1
BITMAP
00007FE00000000000
0003FFFC01FFFFFFC0
000FFFFF03FFFFFFE0
003FFFFFC7FFFFFFF0
007FFFFFE7FFFFFFF0
00FFFFFFF7FFFFFFE0
01FFFC3FFFFFFFFFC0
03FF800FFFF0000000
07FE0003FFF0000000
07FC0001FFF0000000
0FF80000FFF0000000
1FF000007FF0000000
1FE000003FF0000000
3FC000003FFFFFFFC0
3FC000001FFFFFFFE0
3F8000001FFFFFFFE0
7F8000000FFFFFFFE0
7F8000000FFFFFFFE0
7F0000000FFFFFFFC0
7F00000007F0000000
7F00000007F0000000
FF00000007F0000000
FE00000007F0000000
FE00000007F0000000
FE00000007F0000000
FE00000007F0000000
FE00000007F0000000
FE00000007F0000000
FE00000007F0000000
FE00000007F0000000
FF00000007F0000000
7F00000007F0000000
7F0000000FF0000000
7F0000000FF0000000
7F8000000FF0000000
7F8000001FF0000000
3F8000001FF0000000
3FC000001FF0000000
3FC000003FF0000000
1FE000007FF0000000
1FF000007FF0000000
0FF80000FFF0000000
07FC0001FFF0000000
07FE0003FFF0000000
03FF000FFFF0000000
01FFC03FFFFFFFFFC0
00FFFFFFF7FFFFFFE0
007FFFFFE7FFFFFFF0
003FFFFFC3FFFFFFF0
000FFFFF03FFFFFFE0
0003FFFC01FFFFFFC0
00007FE00000000000
ENDCHAR
STARTCHAR dotlessi
ENCODING -1
SWIDTH 222 0
DWIDTH 16 0
BBX 6 37 5 0
BITMAP
78
FC
FC
FC
FC
FC
FC
FC
FC
FC
FC
FC
FC
FC
FC
FC
FC
FC
FC
FC
FC
FC
FC
FC
FC
FC
FC
FC
FC
FC
FC
FC
FC
FC
FC
FC
78
ENDCHAR
STARTCHAR lslash
ENCODING -1
SWIDTH 222 0
DWIDTH 16 0
BBX 20 50 -2 0
BITMAP
00F000
01F800
01F800
01F800
01F800
01F800
01F800
01F800
01F800
01F800
01F800
01F800
01F800
01F800
01F800
01F8E0
01FBF0
01FFF0
01FFF0
01FFC0
03FF00
1FFC00
3FF800
7FF800
FFF800
7DF800
21F800
01F800
01F800
01F800
01F800
01F800
01F800
01F800
01F800
01F800
01F800
01F800
01F800
01F800
01F800
01F800
01F800
01F800
01F800
01F800
01F800
01F800
01F800
00F000
ENDCHAR
STARTCHAR oe
ENCODING -1
SWIDTH 944 0
DWIDTH 68 0
BBX 62 39 3 -1
BITMAP
0007F800007FC000
003FFF0003FFF800
00FFFFC00FFFFE00
01FFFFE03FFFFF00
03FFFFF07FFFFF80
07FFFFF8FFFFFFC0
0FF807FDFF803FE0
1FE001FFFE000FF0
1FC000FFFC0007F0
3F80007FF80003F8
3F80007FF00003F8
7F00003FF00001F8
7E00003FE00001FC
FE00001FE00001FC
FE00001FE00001FC
FC00001FFFFFFFFC
FC00000FFFFFFFFC
FC00000FFFFFFFFC
FC00000FFFFFFFFC
FC00000FFFFFFFF8
FC00000FC0000000
FC00000FC0000000
FC00000FC0000000
FC00001FC0000000
FE00001FE0000000
FE00001FE0000000
7E00001FE0000000
7F00003FF0000000
7F00007FF8000000
3F80007FF8000000
3FC000FFFE000000
1FE001FFFF000000
0FF807FCFFF80000
07FFFFF87FFFFFF8
03FFFFF03FFFFFFC
01FFFFE01FFFFFFC
00FFFFC007FFFFFC
003FFF00007FFFF8
0007F80000000000
ENDCHAR
STARTCHAR trademark
ENCODING -1
SWIDTH 990 0
DWIDTH 71 0
BBX 63 30 4 20
BITMAP
FFFFFF03FE0001FE
FFFFFF03FE0003FE
FFFFFF03FF0003FE
FFFFFF03FF0007FE
FFFFFF03FF0007FE
007E0003FF8007FE
007E0003FF800FBE
007E0003FF800FBE
007E0003F7C00FBE
007E0003F7C01F3E
007E0003F7E01F3E
007E0003F3E03F3E
007E0003F3E03E3E
007E0003F3F03E3E
007E0003F1F07C3E
007E0003F1F87C3E
007E0003F0F8FC3E
007E0003F0F8F83E
007E0003F0FCF83E
007E0003F07DF83E
007E0003F07DF03E
007E0003F07FF03E
007E0003F03FE03E
007E0003F03FE03E
007E0003F01FE03E
007E0003F01FC03E
007E0003F01FC03E
007E0003F00FC03E
007E0003F00F803E
007E0003F00F803E
ENDCHAR
STARTCHAR minus
ENCODING -1
SWIDTH 600 0
DWIDTH 43 0
BBX 37 6 3 15
BITMAP
FFFFFFFFF8
FFFFFFFFF8
FFFFFFFFF8
FFFFFFFFF8
FFFFFFFFF8
FFFFFFFFF8
ENDCHAR
STARTCHAR Scaron
ENCODING -1
SWIDTH 611 0
DWIDTH 44 0
BBX 40 63 2 0
BITMAP
007E003E00
007F00FE00
003F81FC00
001FC3F800
000FC3F000
0007E7E000
0003FFC000
0001FF8000
0000FF0000
00007F0000
00003C0000
0000000000
0000000000
00FFFFFF00
07FFFFFF80
0FFFFFFF80
1FFFFFFF80
3FFFFFFF80
3FFFFFFF00
7FC0000000
7F00000000
7F00000000
7E00000000
7E00000000
7F00000000
7F80000000
7FE0000000
3FFF800000
3FFFFF0000
1FFFFFF800
0FFFFFFE00
03FFFFFF80
007FFFFFE0
0003FFFFF0
000007FFF8
0000003FF8
0000000FFC
00000003FC
00000001FE
00000001FE
00000000FE
00000000FE
00000000FE
000000007F
000000007F
000000007F
000000007E
00000000FE
00000000FE
00000000FE
00000000FE
00000001FC
00000003FC
00000007F8
0000000FF8
0000003FF0
000001FFE0
3FFFFFFFC0
7FFFFFFF80
FFFFFFFF00
FFFFFFFC00
7FFFFFF000
3FFFFF8000
ENDCHAR
STARTCHAR Ydieresis
ENCODING -1
SWIDTH 556 0
DWIDTH 40 0
BBX 36 61 2 0
BITMAP
0078007000
00FC00FC00
01FE01FC00
01FE01FE00
01FE01FE00
01FE01FC00
00FC00FC00
0078007800
0000000000
0000000000
0000000000
78000001E0
FC000003F0
FC000003F0
FE000007F0
FE000007F0
FE000007F0
7F00000FE0
7F00000FE0
7F00000FE0
3F80001FC0
3F80001FC0
1FC0003F80
1FE0007F80
0FE0007F00
0FF000FF00
07F801FE00
03F801FC00
03FC03FC00
01FE07F800
00FF0FF000
00FFFFF000
007FFFE000
003FFFC000
001FFF8000
0007FF0000
0003FC0000
0001F80000
0001F80000
0001F80000
0001F80000
0001F80000
0001F80000
0001F80000
0001F80000
0001F80000
0001F80000
0001F80000
0001F80000
0001F80000
0001F80000
0001F80000
0001F80000
0001F80000
0001F80000
0001F80000
0001F80000
0001F80000
0001F80000
0001F80000
0000F00000
ENDCHAR
STARTCHAR Zcaron
ENCODING -1
SWIDTH 500 0
DWIDTH 36 0
BBX 32 63 2 0
BITMAP
03E003F0
03F807F0
01FC0FE0
00FE1FC0
007E3F80
003F3F00
001FFE00
000FFC00
0007F800
0007F000
0001E000
00000000
00000000
1FFFFFF8
3FFFFFFC
3FFFFFFC
3FFFFFFE
3FFFFFFE
1FFFFFFE
000000FE
000000FE
000000FC
000000FC
000001FC
000001FC
000003FC
000003F8
000007F8
000007F0
00000FF0
00001FE0
00003FE0
00007FC0
0000FF80
0001FF00
0003FE00
0007FE00
000FFC00
000FF800
001FF000
003FE000
007FC000
00FF8000
01FF0000
03FE0000
07FC0000
0FF80000
0FF00000
1FE00000
3FC00000
3FC00000
3F800000
7F000000
7F000000
7E000000
FE000000
FE000000
FFFFFFFC
FFFFFFFE
FFFFFFFF
7FFFFFFF
7FFFFFFE
3FFFFFFC
ENDCHAR
STARTCHAR scaron
ENCODING -1
SWIDTH 500 0
DWIDTH 36 0
BBX 32 52 2 0
BITMAP
07E007E0
07F00FE0
03F81FC0
01FC3F80
00FC3F00
007E7E00
003FFC00
001FF800
000FF000
0007E000
0003C000
00000000
00000000
00000000
00000000
01FFFFE0
07FFFFF0
1FFFFFF8
1FFFFFF8
3FFFFFF0
7FFFFFE0
7F000000
7E000000
7E000000
7F000000
7FC00000
7FFF0000
3FFFF800
1FFFFFC0
0FFFFFF0
03FFFFF8
003FFFFC
0000FFFC
000007FE
000000FE
0000007E
0000007F
0000003F
0000003F
0000003F
0000003F
0000003F
0000007E
0000007E
000000FE
000003FC
3FFFFFFC
FFFFFFF8
FFFFFFF0
FFFFFFE0
FFFFFFC0
7FFFFE00
ENDCHAR
STARTCHAR zcaron
ENCODING -1
SWIDTH 444 0
DWIDTH 32 0
BBX 29 52 1 0
BITMAP
07C007C0
07E00FC0
03F01F80
01F83F00
00FC7E00
00FEFC00
007EFC00
003FF800
001FF000
000FE000
0007C000
00000000
00000000
00000000
00000000
0FFFFFE0
1FFFFFF0
1FFFFFF8
1FFFFFF8
1FFFFFF8
0FFFFFF8
000001F8
000003F0
000007F0
00000FF0
00001FE0
00003FC0
00007FC0
0000FF80
0003FF00
0007FC00
000FF800
001FF000
003FE000
007FC000
00FF8000
01FF0000
07FE0000
07F80000
0FF00000
1FE00000
3FC00000
3F800000
7F000000
7F000000
7E000000
FFFFFFF0
FFFFFFF8
FFFFFFF8
7FFFFFF8
7FFFFFF8
3FFFFFF0
ENDCHAR
STARTCHAR Delta
ENCODING -1
SWIDTH 707 0
DWIDTH 51 0
BBX 47 51 2 0
BITMAP
00000FE00000
00001FF00000
00001FF00000
00001FF00000
00003FF80000
00003FF80000
00007EFC0000
00007EFC0000
00007CFE0000
0000FC7E0000
0000F87E0000
0001F83F0000
0001F83F0000
0003F03F8000
0003F01F8000
0003E01F8000
0007E00FC000
0007E00FC000
000FC00FE000
000FC007E000
001F8007F000
001F8003F000
001F0003F000
003F0003F800
003F0001F800
007E0001FC00
007E0000FC00
007C0000FC00
00FC00007E00
00FC00007E00
01F800007F00
01F800003F00
03F000003F80
03F000001F80
03E000001F80
07E000001FC0
07E000000FC0
0FC000000FE0
0FC0000007E0
0F80000007E0
1F80000003F0
1F00000003F0
3F00000003F8
3F00000001F8
7E00000001FC
7E00000000FC
7FFFFFFFFFFC
FFFFFFFFFFFE
FFFFFFFFFFFE
FFFFFFFFFFFE
FFFFFFFFFFFE
ENDCHAR
STARTCHAR Omega
ENCODING -1
SWIDTH 795 0
DWIDTH 57 0
BBX 49 50 4 0
BITMAP
000000E0000000
00007FFF000000
0003FFFFE00000
000FFFFFF80000
001FFFFFFC0000
007FF807FF0000
00FFC000FF8000
01FF00003FC000
03FC00001FE000
03F800000FF000
07F0000007F000
0FE0000003F800
0FE0000001F800
1FC0000001FC00
1F80000000FC00
3F80000000FE00
3F000000007E00
3F000000007E00
7F000000007F00
7F000000003F00
7E000000003F00
7E000000003F00
7E000000003F00
7E000000003F00
7E000000003F00
7E000000003F00
7E000000003F00
7E000000003F00
7E000000003F00
7E000000003F00
3F000000003E00
3F000000007E00
3F000000007E00
1F000000007C00
1F800000007C00
0F80000000FC00
0FC0000000F800
07C0000001F000
07E0000001F000
03E0000003E000
01F0000007C000
00F800000FC000
00FC00001F8000
003E00003F0000
001F00007C0000
FFFF8000FFFF80
FFFFE003FFFF80
FFFFE003FFFF80
FFFFE003FFFF80
FFFFE003FFFF80
ENDCHAR
STARTCHAR pi
ENCODING -1
SWIDTH 621 0
DWIDTH 45 0
BBX 42 36 1 0
BITMAP
0FFFFFFFFFC0
7FFFFFFFFFC0
FFFFFFFFFFC0
FFFFFFFFFFC0
FFFFFFFFFFC0
807E0007E000
007E0007E000
007E0007E000
007E0007E000
007E0007E000
007E0007E000
007E0007E000
007E0007E000
007C0007E000
00FC0007E000
00FC0007E000
00FC0007E000
00FC0007E000
00FC0007E000
00FC0007E000
00F80007E000
01F80007E000
01F80007E000
01F80007E000
01F80007E000
01F80007E000
03F00007E000
03F00007E000
03F00007E000
03F00007F000
07E00003F000
07E00003F000
07E00003F000
07E00003F000
0FC00003F000
0FC00003F000
ENDCHAR
STARTCHAR Euro
ENCODING -1
SWIDTH 611 0
DWIDTH 44 0
BBX 41 51 4 -1
BITMAP
00003FFFFC00
0001FFFFFE00
0003FFFFFE00
000FFFFFFE00
001FFFFFFE00
003FFFFFFC00
007FF8000000
007FC0000000
00FF00000000
01FE00000000
01FC00000000
01FC00000000
03F800000000
03F800000000
7FFFFFFC0000
FFFFFFFC0000
FFFFFFFC0000
FFFFFFFC0000
7FFFFFF80000
07F000000000
07F000000000
07F000000000
07F000000000
07F000000000
7FFFFFF80000
FFFFFFFC0000
FFFFFFFC0000
FFFFFFFC0000
7FFFFFFC0000
01F800000000
01FC00000000
01FC00000000
00FE00000000
00FE00000000
00FF00000000
007F80000000
003F80000000
003FC0000000
001FE0000000
001FF0000000
000FFC000000
0007FE000000
0003FF800000
0001FFF00000
0000FFFF0000
00007FFFFF00
00001FFFFF00
00000FFFFF80
000003FFFF80
000000FFFF00
0000000FFC00
ENDCHAR
STARTCHAR estimated
ENCODING -1
SWIDTH 844 0
DWIDTH 61 0
BBX 56 52 2 -1
BITMAP
000001FFC00000
00001FF7FC0000
0000FC001F0000
0003E00003C000
0007800000F000
001F0000007800
003C0000001E00
00780000000F00
00F00000000780
01E000000003C0
03E000000003E0
07E000000003E0
0FE000000003F0
0FE000000003F8
1FE000000003F8
1FE000000003FC
3FE000000003FC
3FE000000003FE
3FE000000003FE
7FE000000003FE
7FE000000003FF
7FE000000003FF
7FE000000003FF
7FE000000003FF
FFE000000003FF
FFE000000003FF
FFFFFFFFFFFFFF
FFE00000000000
FFE00000000000
7FE00000000000
7FE00000000000
7FE00000000000
7FE00000000000
7FE00000000000
3FE00000000000
3FE00000000000
1FE00000000000
1FE00000000000
0FE00000000000
0FE00000000000
07E00000000000
03E00000000000
01E000000003C0
00F00000000780
00780000000F00
003C0000001E00
001E0000007C00
0007800000F000
0003E00003E000
0000F8001F0000
00001FC1FC0000
000001FFC00000
ENDCHAR
STARTCHAR partialdiff
ENCODING -1
SWIDTH 592 0
DWIDTH 43 0
BBX 36 55 3 0
BITMAP
001FF00000
01FFFE0000
07FFFF8000
1FFFFFC000
1FFFFFF000
1FC00FF800
0E0003FC00
000001FC00
000000FE00
0000007F00
0000003F00
0000003F80
0000001F80
0000000FC0
0000000FC0
0000000FC0
00000007E0
00000007E0
00000007E0
00000007E0
00000003E0
0007F003E0
003FFE03F0
00FFFF83F0
03FFFFC3F0
07FFFFE3F0
0FF803F3F0
0FF000FBF0
1FC0007FF0
3F80003FF0
3F00001FF0
7F00000FE0
7E000007E0
7E000007E0
7E000007E0
FC000007E0
FC000007E0
FC00000FC0
FC00000FC0
FC00000FC0
FC00001F80
FC00001F80
7C00003F80
7E00003F00
7E00007F00
7F00007E00
3F0000FE00
3F8001FC00
1FC003F800
0FF00FF000
07FFFFE000
03FFFFC000
01FFFF8000
00FFFE0000
001FF00000
ENDCHAR
STARTCHAR product
ENCODING -1
SWIDTH 758 0
DWIDTH 55 0
BBX 51 55 2 -7
BITMAP
FFFFFFFFFFFFE0
FFFFFFFFFFFFE0
FFFFFFFFFFFFE0
FFFFFFFFFFFFE0
FFFFFFFFFFFFE0
007C00000FC000
007C00000FC000
007C00000FC000
007C00000FC000
007C00000FC000
007C00000FC000
007C00000FC000
007C00000FC000
007C00000FC000
007C00000FC000
007C00000FC000
007C00000FC000
007C00000FC000
007C00000FC000
007C00000FC000
007C00000FC000
007C00000FC000
007C00000FC000
007C00000FC000
007C00000FC000
007C00000FC000
007C00000FC000
007C00000FC000
007C00000FC000
007C00000FC000
007C00000FC000
007C00000FC000
007C00000FC000
007C00000FC000
007C00000FC000
007C00000FC000
007C00000FC000
007C00000FC000
007C00000FC000
007C00000FC000
007C00000FC000
007C00000FC000
007C00000FC000
007C00000FC000
007C00000FC000
007C00000FC000
007C00000FC000
007C00000FC000
007C00000FC000
007C00000FC000
007C00000FC000
007C00000FC000
007C00000FC000
007C00000FC000
007C00000FC000
ENDCHAR
STARTCHAR summation
ENCODING -1
SWIDTH 601 0
DWIDTH 43 0
BBX 40 56 2 -7
BITMAP
7FFFFFFFFC
7FFFFFFFFC
7FFFFFFFFC
7FFFFFFFFC
7FFFFFFFFC
3F80000000
1FC0000000
1FE0000000
0FF0000000
07F0000000
03F8000000
01FC000000
00FE000000
00FF000000
007F800000
003F800000
001FC00000
000FE00000
0007F00000
0007F80000
0003FC0000
0001FC0000
0000FE0000
00007F0000
00007F8000
00003FC000
00001FE000
00000FE000
00000FC000
00001FC000
00003F8000
00003F0000
00007E0000
0000FC0000
0001F80000
0003F00000
0007F00000
000FE00000
000FC00000
001F800000
003F000000
007E000000
00FC000000
01FC000000
03F8000000
03F0000000
07E0000000
0FC0000000
1F80000000
3F00000000
7F00000000
FFFFFFFFFF
FFFFFFFFFF
FFFFFFFFFF
FFFFFFFFFF
FFFFFFFFFF
ENDCHAR
STARTCHAR uni2219
ENCODING -1
SWIDTH 305 0
DWIDTH 22 0
BBX 8 8 7 14
BITMAP
3C
7E
FF
FF
FF
FF
7E
3C
ENDCHAR
STARTCHAR radical
ENCODING -1
SWIDTH 612 0
DWIDTH 44 0
BBX 41 68 3 -10
BITMAP
000000000780
000000000780
000000000F80
000000000F80
000000000F00
000000000F00
000000001F00
000000001F00
000000001E00
000000001E00
000000003E00
000000003C00
000000003C00
000000003C00
000000007C00
000000007800
000000007800
000000007800
00000000F800
00000000F000
00000000F000
00000000F000
00000001F000
00000001E000
00000001E000
00000001E000
00000003E000
00000003C000
00000003C000
00000003C000
00000007C000
00C000078000
07E000078000
1FE000078000
FFF0000F8000
FFF0000F0000
F9F0000F0000
41F8000F0000
01F8001F0000
00F8001E0000
00FC001E0000
007C001E0000
007E003E0000
007E003C0000
003E003C0000
003F007C0000
001F007C0000
001F00780000
001F80780000
000F80F80000
000FC0F80000
000FC0F00000
0007C0F00000
0007E1F00000
0003E1F00000
0003E1E00000
0003F1E00000
0001F3E00000
0001F3C00000
0000FBC00000
0000FBC00000
0000FBC00000
00007F800000
00007F800000
00003F800000
00003F800000
00003F000000
00001F000000
ENDCHAR
STARTCHAR infinity
ENCODING -1
SWIDTH 810 0
DWIDTH 58 0
BBX 50 22 4 9
BITMAP
01FF00001FF000
07FFC0007FFC00
0FFFE001FFFE00
1F03F803F03F00
3E00FC07C00F80
7C003E0F800780
78001F1F0007C0
F0000FBE0003C0
F00007FC0003C0
F00003F80001C0
F00001F00001C0
F00001F00001C0
F00003F80001C0
F00007FC0003C0
F0000FBE0003C0
78001F1F0007C0
7C003E0F800780
3E00FC07C00F00
3F83F803F03F00
1FFFE001FFFE00
07FFC0007FFC00
03FF00003FF000
ENDCHAR
STARTCHAR integral
ENCODING -1
SWIDTH 373 0
DWIDTH 27 0
BBX 25 70 1 -11
BITMAP
00007F00
0001FF80
0003FF00
0007FF00
000FE100
001F8000
001F0000
001F0000
003F0000
003E0000
003E0000
003E0000
003E0000
003E0000
007E0000
007E0000
007E0000
007E0000
007E0000
007E0000
007E0000
007E0000
007E0000
007E0000
003E0000
003E0000
003E0000
003E0000
003E0000
003E0000
003E0000
003E0000
003E0000
003E0000
003E0000
003E0000
003E0000
003E0000
003E0000
003E0000
003E0000
003E0000
003E0000
003E0000
003E0000
003E0000
003F0000
003F0000
003F0000
003F0000
003F0000
003F0000
003F0000
003F0000
003F0000
003F0000
003E0000
003E0000
003E0000
003E0000
003E0000
007E0000
007C0000
007C0000
00FC0000
43F80000
FFF00000
FFF00000
FFE00000
FF800000
ENDCHAR
STARTCHAR approxequal
ENCODING -1
SWIDTH 605 0
DWIDTH 44 0
BBX 36 22 4 9
BITMAP
01F8000040
07FF000060
1FFFC000F0
3FFFE001E0
7E07F803E0
7801FE0FC0
F0007FFF80
E0001FFF00
600007FE00
0000006000
0000000000
0000000000
0000000000
01F8000040
07FF000060
1FFFC000F0
3FFFF001E0
7C03FC03C0
F800FFFFC0
F0003FFF80
E0000FFE00
400001F800
ENDCHAR
STARTCHAR notequal
ENCODING -1
SWIDTH 605 0
DWIDTH 44 0
BBX 36 37 4 1
BITMAP
0000008000
000001E000
000001C000
000003C000
000003C000
0000078000
0000078000
0000070000
00000F0000
FFFFFFFFF0
FFFFFFFFF0
FFFFFFFFF0
FFFFFFFFF0
0000380000
0000780000
0000780000
0000F00000
0000F00000
0000E00000
0001E00000
0001C00000
0003C00000
0003800000
0007800000
FFFFFFFFF0
FFFFFFFFF0
FFFFFFFFF0
FFFFFFFFF0
001E000000
001C000000
003C000000
0038000000
0078000000
0070000000
00F0000000
00E0000000
0020000000
ENDCHAR
STARTCHAR lessequal
ENCODING -1
SWIDTH 605 0
DWIDTH 44 0
BBX 36 43 4 -1
BITMAP
0000000060
00000001E0
00000007E0
0000001FE0
000000FF80
000003FE00
00000FF800
00003FE000
0000FF8000
0003FC0000
000FF00000
003FC00000
00FF000000
07FC000000
1FE0000000
7F80000000
FE00000000
F800000000
FC00000000
FF00000000
3FC0000000
0FF0000000
03FC000000
00FF800000
003FE00000
000FF80000
0003FE0000
00007F8000
00001FF000
000007FC00
000001FF00
0000007FC0
0000001FE0
00000007E0
00000001E0
0000000020
0000000000
0000000000
0000000000
FFFFFFFFF0
FFFFFFFFF0
FFFFFFFFF0
FFFFFFFFF0
ENDCHAR
STARTCHAR greaterequal
ENCODING -1
SWIDTH 605 0
DWIDTH 44 0
BBX 36 44 4 -1
BITMAP
8000000000
E000000000
F800000000
FE00000000
FF80000000
3FE0000000
0FF8000000
01FE000000
007FC00000
001FF00000
0007FC0000
0001FF0000
00003FC000
00000FF000
000003FC00
000000FF00
0000003FE0
0000000FE0
00000001E0
00000003E0
0000000FE0
0000003FC0
000000FF00
000007FC00
00001FF000
00007FC000
0001FE0000
0007F80000
003FE00000
00FF800000
03FE000000
0FF8000000
3FE0000000
FF80000000
FE00000000
F000000000
C000000000
0000000000
0000000000
0000000000
FFFFFFFFF0
FFFFFFFFF0
FFFFFFFFF0
FFFFFFFFF0
ENDCHAR
STARTCHAR lozenge
ENCODING -1
SWIDTH 613 0
DWIDTH 44 0
BBX 36 55 4 -3
BITMAP
0001F80000
0001F80000
0003FC0000
0003FC0000
0007FE0000
0007FF0000
000F9F0000
001F9F8000
001F0F8000
003F0FC000
003E07C000
007C07E000
007C03E000
00F801F000
00F801F800
01F000F800
03F000FC00
03E0007C00
07C0007E00
07C0003E00
0F80003F00
0F80001F00
1F00000F80
3F00000FC0
3E000007C0
7E000007E0
7C000003E0
F8000003F0
FC000003F0
7C000003E0
3E000007C0
3F000007C0
1F00000F80
1F80001F80
0F80001F00
0FC0003F00
07C0003E00
03E0007C00
03E0007C00
01F000F800
01F800F800
00F801F000
00FC03F000
007C03E000
007E07C000
003E07C000
001F0F8000
001F0F8000
000F9F0000
000F9F0000
0007FE0000
0007FE0000
0003FC0000
0001F80000
0001F80000
ENDCHAR
STARTCHAR uni02C9
ENCODING -1
SWIDTH 222 0
DWIDTH 16 0
BBX 20 5 -2 44
BITMAP
FFFFF0
FFFFF0
FFFFF0
FFFFF0
FFFFF0
ENDCHAR
STARTCHAR uni03A9
ENCODING -1
SWIDTH 795 0
DWIDTH 57 0
BBX 49 50 4 0
BITMAP
000000E0000000
00007FFF000000
0003FFFFE00000
000FFFFFF80000
001FFFFFFC0000
007FF807FF0000
00FFC000FF8000
01FF00003FC000
03FC00001FE000
03F800000FF000
07F0000007F000
0FE0000003F800
0FE0000001F800
1FC0000001FC00
1F80000000FC00
3F80000000FE00
3F000000007E00
3F000000007E00
7F000000007F00
7F000000003F00
7E000000003F00
7E000000003F00
7E000000003F00
7E000000003F00
7E000000003F00
7E000000003F00
7E000000003F00
7E000000003F00
7E000000003F00
7E000000003F00
3F000000003E00
3F000000007E00
3F000000007E00
1F000000007C00
1F800000007C00
0F80000000FC00
0FC0000000F800
07C0000001F000
07E0000001F000
03E0000003E000
01F0000007C000
00F800000FC000
00FC00001F8000
003E00003F0000
001F00007C0000
FFFF8000FFFF80
FFFFE003FFFF80
FFFFE003FFFF80
FFFFE003FFFF80
FFFFE003FFFF80
ENDCHAR
STARTCHAR afii61289
ENCODING -1
SWIDTH 528 0
DWIDTH 38 0
BBX 33 54 3 0
BITMAP
0003F80000
000FFE0000
003FFF0000
007FFF8000
00FF1F8000
00FC07C000
01F803C000
01F803E000
01F001E000
03F001E000
03F001E000
03E001E000
03E001E000
07E001E000
07E001E000
07E003E000
07E003E000
07E003C000
07E007C000
07E007C000
07E00F8000
07E00F8000
07E01F0000
07E03E0000
07E03E0000
07E07C0000
07E0F80000
07E1F80000
07E3F00000
07E7E00000
07EFC00000
07FF800000
07FF000000
07FE000000
07FC000000
07F8000000
07F0000000
1FE0000000
3FE0000000
7FE0000000
FFE0000000
F7E0000000
E3E0000200
43F0000700
03F0000780
03F8000F80
01F8001F00
01FC007E00
00FF00FC00
00FFFFF800
007FFFF000
003FFFE000
000FFF8000
0003FE0000
ENDCHAR
STARTCHAR uni03BC
ENCODING -1
SWIDTH 556 0
DWIDTH 40 0
BBX 30 52 5 -15
BITMAP
78000078
FC0000FC
FC0000FC
FC0000FC
FC0000FC
FC0000FC
FC0000FC
FC0000FC
FC0000FC
FC0000FC
FC0000FC
FC0000FC
FC0000FC
FC0000FC
FC0000FC
FC0000FC
FC0000FC
FC0000FC
FC0000FC
FC0000FC
FC0000FC
FC0000FC
FC0000FC
FC0000FC
FC0000FC
FC0001FC
FE0001FC
FE0003FC
FE0003FC
FF0007FC
FF800FFC
FFE03FFC
FFFFFF7C
FFFFFF7C
FFFFFE7C
FFFFFC7C
FDFFF038
FC7F8000
FC000000
FC000000
FC000000
FC000000
FC000000
FC000000
FC000000
FC000000
FC000000
FC000000
FC000000
FC000000
FC000000
78000000
ENDCHAR
STARTCHAR uni2215
ENCODING -1
SWIDTH 167 0
DWIDTH 12 0
BBX 36 52 -12 -1
BITMAP
00000000E0
00000000F0
00000001F0
00000003F0
00000003E0
00000007E0
0000000FC0
0000001F80
0000001F80
0000003F00
0000007E00
0000007E00
000000FC00
000001F800
000001F800
000003F000
000007E000
000007E000
00000FC000
00001F8000
00001F8000
00003F0000
00007E0000
00007E0000
0000FC0000
0001F80000
0001F80000
0003F00000
0007E00000
0007E00000
000FC00000
001F800000
001F800000
003F000000
007E000000
007E000000
00FC000000
01F8000000
01F8000000
03F0000000
07E0000000
07E0000000
0FC0000000
1F80000000
1F80000000
3F00000000
7E00000000
7E00000000
FC00000000
F800000000
F800000000
7000000000
ENDCHAR
ENDFONT
